<svg id="Layer_1" data-name="Layer 1" xmlns="http://www.w3.org/2000/svg" viewBox="0 0 1080 1080"><defs><style>.cls-1{fill:#fff;}</style></defs><path class="cls-1" d="M1048,546.72c-4,278.95-232.07,502.56-510.37,501.19C256.28,1046.52,26.77,815.82,32.09,530,37.24,253.67,265.06,26,552,32.21,827.15,38.15,1051,264.82,1048,546.72ZM997.21,541C997.37,290.34,796.1,83.74,541.44,83,288.92,82.16,84,285,82.93,538.14,81.84,791.69,286.39,996.56,539.3,997.07,791.12,997.58,996.07,794.18,997.21,541Z"/><path class="cls-1" d="M387.55,539.58q0-89.1,0-178.21a61.58,61.58,0,0,1,2.78-18.85c4.55-14.44,26.67-29.06,46.91-19.18a77.5,77.5,0,0,1,8.36,4.66c14.23,9.35,28.39,18.79,42.58,28.2q29.61,19.62,59.19,39.27c13.51,9,26.87,18.23,40.36,27.26,14.81,9.93,29.71,19.71,44.53,29.62,13.94,9.32,27.79,18.76,41.74,28.06,11.51,7.68,23.09,15.25,34.65,22.86,3.78,2.48,7.7,4.76,11.37,7.4,16.2,11.66,19.3,35.08,7.17,51.1-4.17,5.49-9.78,9-15.25,12.69q-22.42,15.28-45,30.27c-9.52,6.35-19.16,12.51-28.7,18.82C628.4,630,618.7,636.55,609,643q-22.26,14.82-44.56,29.59-21.92,14.61-43.79,29.28-22.25,14.83-44.51,29.65-15.25,10.2-30.45,20.51c-11.88,8.08-24.39,10.27-37.76,4.1-7.23-3.33-12.88-8.41-16.19-15.81a43.45,43.45,0,0,1-4.12-17.76c0-2.67,0-5.33,0-8Zm282.87,1.6a10.41,10.41,0,0,0-.59-1.94,7.88,7.88,0,0,0-1.55-1.78q-113.55-75.68-227.13-151.3a1.41,1.41,0,0,0-.75-.08c-.26,0-.51.09-.95.16-1.3,3.26-.73,6.76-.74,10.17q0,143.38,0,286.78c0,2.39,0,4.79.09,7.18.06,1.25-.07,2.72,2.32,3.39C517.48,643.39,593.66,592,670.42,541.18Z"/></svg>