<svg id="Layer_1" data-name="Layer 1" xmlns="http://www.w3.org/2000/svg" viewBox="0 0 1080 1080"><defs><style>.cls-1{fill:#fff;}</style></defs><path class="cls-1" d="M822.25,121.67c3.85-3.8,6.13-8.21,8.94-12.17,7.67-10.82,15-21.85,22.63-32.74a36.08,36.08,0,0,1,4.84-5.56,11,11,0,0,1,10.23-3,7.77,7.77,0,0,1,5.78,4.21,70.06,70.06,0,0,1,4.27,10.18c4.63,16.33,9,32.74,13.54,49.11q6,21.71,12,43.4c3.67,13.27,7.4,26.53,11,39.82,3.12,11.53-1.84,21.93-12.86,26.55a34.75,34.75,0,0,1-10.67,2.69c-14.5,1.05-29,2.1-43.42,4.1-7.31,1-14.73,1.3-22.1,1.86-10.57.8-21.16,1.41-31.72,2.34-9.81.87-19.59,2.14-29.4,3.06a113.37,113.37,0,0,1-14,.59,14.67,14.67,0,0,1-7-2c-4.48-2.78-5.71-8-3.21-12.95a90.15,90.15,0,0,1,6.07-10.13c8.76-12.81,17.64-25.54,26.46-38.31.55-.79.95-1.68,1.56-2.76-.79-1-1.36-2.18-2.31-2.76-8.58-5.28-17.17-10.55-25.88-15.61-4.45-2.59-9.09-4.9-13.76-7.09-10-4.69-19.74-9.87-30.11-13.86-9-3.45-17.74-7.28-26.91-10.17-3.75-1.19-7.43-2.62-11.21-3.68-9-2.53-18-5.26-27.11-7.26-13.23-2.9-26.51-5.66-39.9-7.66-11.2-1.67-22.56-2.38-33.87-3.13a403.73,403.73,0,0,0-63.55,1.15,429.25,429.25,0,0,0-45.31,6.71,408,408,0,0,0-51.34,13.74q-20.56,7-40.45,15.93c-13.25,6-25.87,13-38.72,19.66-6.73,3.49-12.8,8.24-19.31,12.18-12.89,7.79-24.24,17.68-36.3,26.61-6.5,4.81-12.12,10.81-18.22,16.17C238.31,242,227.08,254.37,216.12,267c-7.41,8.54-14.22,17.61-21,26.67a386.57,386.57,0,0,0-33.43,53.82,434.69,434.69,0,0,0-19.76,43.69,411.31,411.31,0,0,0-16.6,53.57,424.71,424.71,0,0,0-9.42,56.83c-1.32,13.47-1.63,27.07-1.81,40.62-.14,10.83.43,21.69,1,32.52.33,6.14,1.31,12.24,2.07,18.35,1.76,14.18,4.1,28.23,7,42.26,4.07,19.89,10.48,39,17,58.11,3.7,10.92,8.67,21.44,13.43,32a371.15,371.15,0,0,0,25.79,47.23A421.73,421.73,0,0,0,287.14,886.67a460.71,460.71,0,0,0,43.92,28.39,419.85,419.85,0,0,0,85.27,36.48c14.87,4.5,29.94,8,45.17,11.06,8,1.59,15.55,4.29,21.92,9.88,11.65,10.22,18.19,27.63,11.71,44.94-7.27,19.42-26.74,29.65-47,25.77-16-3.06-31.87-6.5-47.48-11.1-11.79-3.49-23.65-6.77-35-11.59-6.32-2.68-12.94-4.67-19.33-7.23s-12.74-5.23-18.93-8.23c-10.83-5.25-21.65-10.54-32.22-16.29-9.48-5.16-18.76-10.75-27.86-16.56-8.49-5.42-16.92-11-24.88-17.18-13.8-10.69-27.78-21.14-40.81-32.88a527.34,527.34,0,0,1-46.1-46.55c-12.56-14.51-24.69-29.44-35.11-45.64-4.39-6.83-9-13.54-13.31-20.39-2.88-4.55-5.55-9.24-8.26-13.9A442.51,442.51,0,0,1,72,741.47a539.5,539.5,0,0,1-18.6-52.06c-5.29-18-9.19-36.29-13.17-54.57-2.19-10.09-3-20.47-4.52-30.71-3.81-26-4.2-52.11-3.39-78.22.57-18.2,1.35-36.48,5-54.45a101,101,0,0,0,1.89-13.16c.64-8.93,3.58-17.36,5.27-26.05.56-2.9,1.39-5.74,2-8.64,2.35-11.87,6.46-23.24,9.8-34.83C61.4,371,69,354.16,76,337.1c3.6-8.85,8.5-17.15,12.62-25.8,6.57-13.78,14.78-26.64,22.6-39.68a271,271,0,0,1,23.61-33.86c5.34-6.44,10.73-12.85,15.81-19.49,8.56-11.19,18.71-20.92,28.24-31.22,13.06-14.14,27.89-26.36,42.45-38.81,9.89-8.46,20.78-15.78,31.47-23.25,7.45-5.21,15.32-9.81,23-14.67,3.34-2.1,6.7-4.14,10-6.23,10.85-6.79,22.68-11.68,33.94-17.67a215,215,0,0,1,27.67-12.1c7.14-2.6,14-6,21.14-8.54,7.64-2.74,15.46-5,23.21-7.37,2.57-.8,5.15-1.63,7.76-2.31,9.76-2.57,19.5-5.23,29.32-7.56,7.66-1.82,15.38-3.46,23.15-4.7,12.17-1.94,24.36-3.77,36.6-5.14a489.89,489.89,0,0,1,65-2.55,481.78,481.78,0,0,1,61.84,5.43c14.86,2.26,29.62,5.05,44.2,8.66,15.05,3.72,29.91,8.06,44.59,13.13,12.1,4.18,24,8.9,35.78,13.74,15.92,6.52,31.2,14.47,46.26,22.76,9.67,5.31,18.88,11.46,28.3,17.21C817.05,118.6,819.57,120.07,822.25,121.67Z"/><path class="cls-1" d="M547.53,535.46c7.52,4,14.84,8,22.25,11.81,8.73,4.51,17.57,8.81,26.29,13.33,13.11,6.79,26.15,13.71,39.24,20.53q22.59,11.75,45.24,23.4c9,4.61,18,9.06,27,13.7,9.36,4.87,18.61,9.94,28,14.81,8.93,4.65,17.95,9.13,26.9,13.75,17,8.81,34.15,17.52,51.09,26.55,13.43,7.17,20.09,22.79,16.49,36.24-3.21,12-10.64,20.79-22.68,24.09a35.11,35.11,0,0,1-25.93-2.6c-10.24-5.33-20.52-10.59-30.76-15.91-7.63-4-15.21-8-22.85-11.95-14.43-7.43-28.9-14.77-43.3-22.24-17.06-8.83-34-17.79-51.09-26.64-8.93-4.64-17.94-9.12-26.88-13.75-9.59-5-19.13-10.07-28.7-15.08-4.58-2.39-9.2-4.69-13.79-7.06q-21.27-11-42.54-22-15.75-8.11-31.54-16.17c-1.54-.79-3-1.72-4.6-2.37-2.69-1.12-3.58-3.16-3.48-5.89.05-1.47,0-3,0-4.43q0-157.59,0-315.17c0-5.65-.06-11.26,2-16.76A32.81,32.81,0,0,1,532,219c9,5.75,14.49,13.91,15.33,24.78.27,3.43.2,6.9.2,10.35q0,136.13,0,272.25Z"/><path class="cls-1" d="M774.09,988.83c-16.18-1.09-29.24-7.36-37-22.47a38,38,0,0,1-3.43-27.19c2.47-10.16,7.69-18.63,16.49-24.47,8.39-5.56,16.88-11,25.59-16.06,8.46-4.91,17.63-7.7,27.58-5.87,12.38,2.29,22.24,8.33,29,19.33,5.78,9.4,6.9,19.42,4.88,29.87-2.06,10.65-8.12,18.93-17.05,24.94-6.31,4.26-13.08,7.84-19.35,12.16-4.52,3.11-9.49,5-14.43,7.19A32.29,32.29,0,0,1,774.09,988.83Z"/><path class="cls-1" d="M854.73,846.88a35.44,35.44,0,0,1,7.33-23.6c7.18-9.63,14.12-19.54,22.75-28,11.09-10.85,24.41-14.2,39.33-10,17.24,4.86,26.41,17.08,29.55,34.17,1.49,8-.78,15.64-4.11,22.9a27.35,27.35,0,0,1-3.38,5.72c-7.23,9-14.25,18.24-22,26.83-13,14.4-35.69,14.92-48.84,7C862,873.85,855.27,862.26,854.73,846.88Z"/><path class="cls-1" d="M981.21,750.37c-20.44.49-38.3-9.7-44.13-28.72a39.73,39.73,0,0,1,.42-24.72c3.06-9.1,6.06-18.22,9.46-27.19,6.29-16.55,18.49-26.08,36.07-27.17,14.9-.93,27.3,4.87,36,17.61,7.27,10.68,9.15,22.22,5.29,34.44-3.39,10.75-6.82,21.54-11.26,31.88C1006.24,742.27,993.19,749.4,981.21,750.37Z"/><path class="cls-1" d="M693,1003.12c.35,10.17-11.15,27.84-28.85,32.59-11.38,3-22.92,5.93-34.58,7.49a40.32,40.32,0,0,1-44.88-48.52c3.4-15.41,12.87-25.57,27.82-30.55,2.79-.93,5.7-1.48,8.58-2.13,6.95-1.57,13.89-3.19,20.86-4.63,12.66-2.6,24.49-.75,34.92,7.28C687.48,972.82,692.64,983.77,693,1003.12Z"/><path class="cls-1" d="M966.11,539.85c0-5.67,0-11.33,0-17-.08-16.05,13.67-32.76,31.06-36.8,20.37-4.74,43.92,7.13,49,31.47,0,.24.12.48.15.72a156.59,156.59,0,0,1,.43,42c-2.07,16-11.93,26.71-26.87,32.45a37,37,0,0,1-11.58,2c-22.53.9-41.19-17.15-42-37.12-.22-5.9,0-11.82,0-17.73Z"/><path class="cls-1" d="M981.77,437.56c-17.08-.49-29.4-9.06-36.22-24.91A247.1,247.1,0,0,1,934,380c-5-18.19,4.61-39.46,23.73-47.12,17.65-7.08,34.62-2.41,46.79,11.44a42.75,42.75,0,0,1,7.1,12c3.71,9.07,7.15,18.29,10.13,27.63,7,22-4.21,43.24-24.22,51.4C992.61,437.34,987.43,437.41,981.77,437.56Z"/></svg>