<svg id="Layer_1" data-name="Layer 1" xmlns="http://www.w3.org/2000/svg" viewBox="0 0 1080 1080"><defs><style>.cls-1{fill:#fff;}</style></defs><path class="cls-1" d="M169.66,765.27c1.87-2.44,1.25-5.18,1.28-7.75.14-12.14.18-24.28.26-36.41q1.25-201.87,2.51-403.73c.3-45.39.87-90.78,1.12-136.16a125.33,125.33,0,0,1,6.1-38.1c2-6.39,5.95-11.71,9-17.53,7.32-14.17,18.69-24.9,31.59-33.67a103.05,103.05,0,0,1,27.69-13.24A106.08,106.08,0,0,1,281.86,74c2.11,0,4.22,0,6.33,0h651c9.22,0,18.49-.29,27.54,1.89,17.83,4.3,34.54,10.75,48.68,23.17a154.89,154.89,0,0,1,20.82,22.56c7.35,9.6,11.84,20.45,15.22,31.89a107,107,0,0,1,4.3,30.44q0,72.43,0,144.87a29,29,0,0,1-1,8.58c-1.92,6.17-5.75,10.7-12.57,11.65a75.73,75.73,0,0,1-10.21.72q-75.54.06-151.08.05c-3.11,0-6.28-.34-9.74.71a39.94,39.94,0,0,0-.71,4.6c-.11,2.9,0,5.8,0,8.71q0,245.8,0,491.61c0,6.06-.13,12.14-.56,18.19a140.44,140.44,0,0,1-18.65,61.53c-14.15,24.2-33.48,43.18-58.88,55.63-10.67,5.24-21.57,9.8-33.3,12.08a141.57,141.57,0,0,1-33,2.89c-5-.22-10,.19-15,.19q-271.71,0-543.42-.11a142.29,142.29,0,0,1-63.34-14.61c-22.31-11-40.26-26.73-54.62-46.82-2.14-3-4-6.18-5.9-9.36-12.06-20.65-19-42.84-19.24-66.83-.28-27.71-.14-55.42-.11-83.12a24.81,24.81,0,0,1,.91-7c2-6.64,6.4-10.84,13.43-11.73a69.69,69.69,0,0,1,8.68-.31q57,0,113.9,0C164.06,766,167,766.59,169.66,765.27ZM865.8,108a64.09,64.09,0,0,0-11.47-.49H289.56c-2.37,0-4.77-.17-7.12.06-6.54.64-13.14,1-19.57,2.3-12.21,2.37-22.47,8.67-31.68,16.88-11.45,10.22-18.28,23.14-21.24,38-1.39,6.92-1.49,14.17-1.56,21.28q-1.17,133-2.15,266Q205,604.29,203.77,756.67c0,1.85-.06,3.7.08,5.54a16.45,16.45,0,0,0,.77,3c3.23,1.3,6.42.79,9.52.79q110.73,0,221.47,0,81.09,0,162.16,0a58.4,58.4,0,0,1,8.68.32c8.47,1.27,13.66,6.75,14.55,15.22a83.93,83.93,0,0,1,.32,8.69c0,21.64-.07,43.28.07,64.91,0,7.38.3,14.79,1.05,22.13a99.58,99.58,0,0,0,19.78,50.08,132.52,132.52,0,0,0,21.33,22.06c15.71,13.24,34,19.77,54,22.28a102.39,102.39,0,0,0,45.29-4.54c11.32-3.73,21.83-9,31-16.84,8-6.85,16.06-13.67,21.83-22.66,3-4.64,5.57-9.53,8.47-14.23,5.48-8.89,8.4-18.65,10.37-28.83,1.83-9.41,1.82-18.89,1.82-28.38q0-330.51,0-661c0-3.69-.27-7.41.09-11.07.78-7.86,1.39-15.79,3-23.5,3.45-16.87,12-31.35,22.19-45C863.15,113.64,865.24,111.87,865.8,108ZM587.64,800.32c-4-1.58-7.22-1.15-10.33-1.15q-254.29,0-508.58,0c-1.84,0-3.7-.09-5.53.06a46.19,46.19,0,0,0-4.78.93c-.21,2.7-.55,5-.55,7.33,0,18.21-.09,36.42,0,54.62a120.63,120.63,0,0,0,2.78,26.71c2.94,12.71,7.51,24.78,15.16,35.37a127.69,127.69,0,0,0,26.08,27.32,103,103,0,0,0,32.17,16.36c12.51,3.92,25.32,4.73,38.29,4.73q226.61,0,453.21,0c2.37,0,4.75,0,7.12-.1a16,16,0,0,0,3.26-1c-.75-1.33-1-2.4-1.72-3C621,957.13,611,943.32,603.33,927.86a139.4,139.4,0,0,1-8.77-22c-3.69-12.37-6.45-25-6.54-38-.13-19.53-.09-39.05-.15-58.58C587.86,806.4,587.73,803.53,587.64,800.32ZM1021.36,316c1.39-2.86,1.07-5.53,1.07-8.12,0-39.83.07-79.65-.06-119.48,0-6.31-.12-12.78-1.46-18.9-4.78-21.83-16.29-39.23-35.64-50.93A64.53,64.53,0,0,0,971.81,112a80.67,80.67,0,0,0-35-3.49,79.54,79.54,0,0,0-23.34,6.83c-7.09,3.21-13,8-18.7,13.08-9.88,8.75-16.43,19.72-20.63,32.22-3.08,9.16-3.77,18.57-3.78,28.09q0,43.51,0,87c0,11.34,0,22.68,0,34a53.53,53.53,0,0,0,.66,5.86C877.62,316.69,1012.2,316.9,1021.36,316Z"/><path class="cls-1" d="M659,331.55q0,25.71,0,51.43c0,9-.42,18-2.7,26.68-4.3,16.4-10.58,32-20.26,46a126.21,126.21,0,0,1-33.47,33.1C579,504.72,555.68,521,532.24,537.08c-3,2.09-6.25,3.93-9.26,6.06-7.34,5.2-14.66,5.1-22,.15-7.22-4.84-14.47-9.63-21.65-14.53-9.35-6.38-18.62-12.87-28-19.26-11.3-7.72-22.85-15.09-33.9-23.15-11.75-8.57-22.1-18.72-30.05-31-10.66-16.54-18.61-34.23-21.48-53.86a121.07,121.07,0,0,1-1.24-17.33c-.11-38-.06-76-.06-113.94,0-1.05,0-2.1,0-3.16,0-7.07,3.54-12,9.58-15.18,8.41-4.37,17-8.46,25.44-12.66q36.08-17.85,72.17-35.7c9.92-4.88,20-9.54,29.9-14.38,6.59-3.21,13-3.35,19.68,0,13.89,6.95,27.88,13.68,41.85,20.47,9.23,4.49,18.52,8.87,27.74,13.39q17.35,8.52,34.65,17.19,10.93,5.46,21.8,11.06a45.93,45.93,0,0,1,6,3.76,13.17,13.17,0,0,1,5.39,10.13c.18,2.36.17,4.74.17,7.12Q659,301.88,659,331.55Zm-147.25-110c-2.79,1.23-5.48,2.29-8.06,3.58C485.8,234,468,243,450.05,251.9c-15.54,7.74-31.1,15.46-46.73,23-3.5,1.7-5.47,3.92-5.19,7.91.11,1.58,0,3.16,0,4.75,0,30.59.07,61.18,0,91.78,0,15.53,2.75,30.39,9.51,44.44,6.5,13.52,15.31,25.24,27.62,33.95,15.69,11.1,31.59,21.9,47.4,32.83,7.36,5.1,14.65,10.28,22.08,15.28,2.34,1.58,4.5,3.7,8.06,3.86,3.84-2.7,7.88-5.62,12-8.41,8.3-5.6,16.72-11,25-16.7,12.13-8.38,23.94-17.23,36.26-25.3,13.95-9.14,23.19-22,30.47-36.53,6.49-13,9.14-26.86,9.13-41.32q0-47.47,0-94.95a30.27,30.27,0,0,1,0-3.16c.45-4.35-1.66-6.89-5.52-8.48-3.41-1.4-6.75-3-10-4.64Q583.56,257,557.13,243.68q-19.41-9.72-38.87-19.33C516.16,223.31,514,222.47,511.75,221.51Z"/><path class="cls-1" d="M519.63,669.53q96.43,0,192.89.05a66.14,66.14,0,0,1,11.74,1.14c7.08,1.29,11.22,8.24,11.49,15.2.28,7.4-4.86,14.85-11.42,16.14-2.06.41-4.12.83-6.21,1-1.83.18-3.68.07-5.53.07q-193.29,0-386.59,0a84.33,84.33,0,0,1-11.75-1c-7.13-1-12-9.34-12-15.73,0-5.9,4.13-14.57,11.91-15.71a79.31,79.31,0,0,1,11-1.09c21.34-.1,42.69-.05,64-.05Z"/><path class="cls-1" d="M518.77,592.42q96.5,0,193,0a68,68,0,0,1,9.48.3c10.24,1.45,16.07,9.83,14.07,20-1.31,6.67-5.64,10.51-12,12.22a30.45,30.45,0,0,1-6.27.74c-2.1.13-4.22.05-6.33.05q-191.4,0-382.82,0a86.36,86.36,0,0,1-11.82-.61A15.39,15.39,0,0,1,302.44,611c-.81-8,3.27-14.68,10.84-17.27a28.51,28.51,0,0,1,7-1.2c2.62-.21,5.27-.07,7.9-.07Z"/><path class="cls-1" d="M495.7,375.21c6.89-6,13.26-12.25,19.49-18.63,9.58-9.79,19.17-19.56,28.87-29.24a75.68,75.68,0,0,1,8.4-7.17c7.15-5.33,16.49-3,21,1.57,5.59,5.59,6.42,14.07,1.92,21A27,27,0,0,1,572,347q-23.48,23.45-47,46.84c-4.66,4.66-9.21,9.42-13.8,14.14-.74.76-1.43,1.56-2.2,2.28-8.3,7.7-17.56,8-26.21.55-3.39-2.91-6.37-6.28-9.54-9.45-5.95-6-11.95-11.87-17.81-17.92a71.42,71.42,0,0,1-7.11-8.43c-4.77-6.76-3.86-15.07,2.7-21.49,5.14-5,14.85-6,21.66-.12,1.19,1,2.27,2.19,3.39,3.3,5.64,5.54,11.26,11.09,16.92,16.6A20.76,20.76,0,0,0,495.7,375.21Z"/></svg>