<svg id="Layer_1" data-name="Layer 1" xmlns="http://www.w3.org/2000/svg" viewBox="0 0 1080 1080"><defs><style>.cls-1{fill:#fff;}</style></defs><path class="cls-1" d="M108.39,667.22c-2.51-2.25-4.54-4.17-6.67-6-13.11-11-18.24-25.29-15.9-42,1.92-13.71,9.09-24.48,20.88-32a45.55,45.55,0,0,1,24.88-7.37c1.26,0,2.52-.11,3.76,0a8.61,8.61,0,0,0,7.38-3.34c12.71-14.5,19.52-31.28,19.13-50.64-.4-20-8-37-22-50.88-6.06-.59-11.7-.84-17.24-1.73C92,468.41,73.64,431.16,93.35,402.37c8.67-12.66,20.93-19.72,36.41-20,16.61-.35,33.23-.08,49.84-.12,3.05,0,6.1-.19,9-.29,1-2.57-.8-3.18-1.86-4.14-10.75-9.67-20.92-19.9-28.36-32.41-4.48-7.53-9-15.12-12.35-23.19-10.72-26.1-14.49-53.28-9-81.1,6.14-30.9,20.19-57.72,43.51-79.42a153.72,153.72,0,0,1,50.81-31.35c15.77-6,32-8.5,48.74-8.94,3.45-.09,6.9-.06,10.35-.06q266.18,0,532.34,0c4.08,0,8.16-.09,12.23.15,28.47,1.66,50.91,29.49,40.92,60.67-5.5,17.18-17.93,27.49-35.78,30.92a35.17,35.17,0,0,1-6.54.7c-10.09,0-9.28-.79-16.91,9.08-12.57,16.25-17.07,34.81-14.06,54.89a69.76,69.76,0,0,0,17.49,36.86c2.64,2.94,5.5,4.75,9.73,4.66A66,66,0,0,1,842,320.38c19.41,3.2,35.44,22.27,35.94,40.57.19,6.8-.61,13.63-1,21.19a61,61,0,0,0,6.56,1.69c33,5.15,61.24,19.59,84.17,43.93,37,39.25,48,85.62,35.37,137.41-6.43,26.37-20.27,49.1-40.55,67.56-2.77,2.52-5.46,5.13-8.1,7.62.58,2.33,2.31,2.11,3.79,2.12,11.91,0,23.83,0,35.74.07,14,.13,26.42,4.54,36.64,14.39,17.49,16.86,18,40.9,10.24,56.28-9.15,18.12-23.93,27.6-44.26,28.29-2.81.09-5.62,0-8,0-33.94,26.6-37.6,86.77-.54,118.71,3.18,0,6.94-.18,10.68,0,20.28,1.17,39.12,14.22,45.07,36.46,8.55,31.9-15.35,61.24-45.51,61.85-3.76.08-7.52.11-11.28.11q-392.69,0-785.35,0c-15.08,0-30.12-.29-44.85-3.92-19.62-4.83-37.9-12.59-54.55-24.32a163,163,0,0,1-34.62-32.87,151.31,151.31,0,0,1-23.29-41.65,156.87,156.87,0,0,1-7.37-82.39,154,154,0,0,1,36.87-76,162.42,162.42,0,0,1,29.36-26.24C104.85,670.14,106.43,668.77,108.39,667.22Zm561.27,75.65c-3.36-2-6.56-1.29-9.6-1.29q-231.36,0-462.72-.07a68.38,68.38,0,0,0-19.51,2.42c-24.16,7.15-38.87,23.29-43.77,47.86-2.88,14.43.39,28,8.41,40.41,8.72,13.45,20.56,22.47,36.3,26.28,7.11,1.72,14.29,1.67,21.5,1.67H723.18c3.45,0,6.91-.12,10.34.16a14.48,14.48,0,0,1,12,7.94c4.85,9-.7,19.53-11.21,21.15a74,74,0,0,1-11.26.36h-522c-4.39,0-8.79,0-13.17-.25-9.12-.5-18.15-1.85-26.61-5.38-24.56-10.24-42.56-27-51.87-52.48-10.33-28.28-6.89-55,9.58-79.81,12.79-19.23,30.88-31.61,53.53-37.18a111.45,111.45,0,0,1,27-2.95q228.08.09,456.14,0c2.82,0,5.65.08,8.47,0,1.76-.08,3.51-.46,5.09-.68,1.4-10.62,1.18-31.15-.39-38.18-3.5-1.07-7.26-.59-11-.59q-229.48,0-459-.11a159.63,159.63,0,0,0-36.3,4.28c-18.66,4.29-35.23,13-50.07,24.87a127.4,127.4,0,0,0-10.88,190.16c16.85,16.86,36.83,27.9,59.64,34,12.81,3.44,26,3.84,39.2,3.84q393.12-.06,786.25,0c2.82,0,5.65.08,8.46-.09a30.7,30.7,0,0,0,6.49-.93,19.24,19.24,0,0,0,13.28-24.4c-2.48-8-8.22-12.41-16.26-13.75-3.37-.56-6.88-.33-10.32-.34q-94,0-188.1,0a79,79,0,0,1-10.33-.31c-6.93-.94-11.62-5.61-12.62-12.05-1.37-8.76,4.36-16.21,13.33-17.11,2.8-.28,5.64-.13,8.46-.14q68.66,0,137.31,0c3.35,0,6.78.52,10.65-.83-2-8.24-7.58-14.68-9.37-22.56s-3.53-15.89-5-23.89a64,64,0,0,1,0-24.32c1.56-8,2.82-16.09,5.29-23.8s6.23-14.79,9.6-22.54a34.53,34.53,0,0,0-4.28-.58q-31.5.06-63,.25c-.55,0-1.08.5-2.22,1.06-.15,2.4-.46,5.14-.47,7.88-.05,13.17,0,26.33,0,39.5a55.18,55.18,0,0,1-.24,7.51,14.44,14.44,0,0,1-18.68,12.05,41.08,41.08,0,0,1-6.93-2.89c-4.46-2.27-8.81-4.77-13.26-7.07-13.07-6.77-26.16-13.48-39.24-20.23-7-3.59-13.94-7.12-20.84-10.82a8.64,8.64,0,0,0-8.92-.12c-1.64.92-3.31,1.79-5,2.66q-15,7.82-30,15.62-17.51,9.09-35,18.1a65.45,65.45,0,0,1-10.27,4.61c-9.34,2.88-17.91-2.93-18.94-12.62-.26-2.48-.18-5-.19-7.51,0-12.86,0-25.71,0-38.57C670.1,748.26,669.81,745.51,669.66,742.87ZM785.08,215c-3.73-1.76-7.52-1.1-11.16-1.1q-142-.06-284,0-61.61,0-123.2,0a65.53,65.53,0,0,1-10.31-.44c-7.82-1.27-12.58-7.53-12.14-15.39a14.31,14.31,0,0,1,13.32-13.41c3.74-.32,7.52-.2,11.28-.2H820.27c3.13,0,6.27,0,9.4,0a30.77,30.77,0,0,0,5.6-.5c8.37-1.82,13.67-8.61,13.32-16.89-.36-8.73-6.52-15.09-15.54-15.79-3.43-.27-6.9-.13-10.34-.13H517.06q-116.61,0-233.23,0c-24.15,0-46.42,6-66.62,19.37-27.52,18.24-44.75,43.6-50.88,75.92-5.27,27.82-.25,54.16,14.31,78.63,16.92,28.44,41.7,46.14,73.53,54.23,10.07,2.56,20.42,3.07,30.79,3.07l540.75,0a69.55,69.55,0,0,0,7.51-.19c4.86-.52,9-2.43,12-6.49a16.53,16.53,0,0,0-11.09-26.47,72.5,72.5,0,0,0-10.33-.25H291.54c-5.32,0-10.66.07-16-.19-11.74-.59-23.14-3.32-33.27-9.11-30.43-17.39-46-43.46-43.95-79,1.37-23.59,12.15-42.47,30.16-57.29a80.67,80.67,0,0,1,52.92-18.78c6.58,0,13.2-.33,19.73.26,10,.9,15.58,10.73,11.86,20.07-2.4,6-7.2,8.55-13.21,8.92-5.63.34-11.28.18-16.92.2a57.72,57.72,0,0,0-25.42,5.72c-20.11,9.7-31.35,29.22-29.41,52.17a51.36,51.36,0,0,0,37.08,45c7.37,2.18,14.79,2.4,22.31,2.4H773.65c2.51,0,5,.05,7.52-.08,1.46-.08,3.21.15,3.77-1.52-3.09-8.41-6.43-16.47-9-24.77a88.32,88.32,0,0,1-3.43-26,90.27,90.27,0,0,1,3.56-27C778.64,231.54,781.94,223.52,785.08,215ZM878,576.11a8.72,8.72,0,0,0,2.35.49,12.18,12.18,0,0,0,3.62-.9c13.84-6.77,23.94-17.09,29-31.77a49.36,49.36,0,0,0,0-33.25,54.41,54.41,0,0,0-51.11-36.18c-3.13,0-6.26,0-9.4,0H190.23c-2.5,0-5,0-7.52,0-1.53,0-3.19-.09-3.87,2.32.88,2,1.88,4.23,2.9,6.5,12.18,27.06,13.32,54.45,2.37,82.17-1.15,2.91-2.61,5.7-3.72,8.63a46.93,46.93,0,0,0-1.31,5.8H657.49c2.19,0,4.4.11,6.58,0,1.78-.13,3.54-.58,5.52-.92.52-6,1.44-11.45-.94-17.3-3.59-.07-7-.18-10.42-.18H577.35a79.27,79.27,0,0,1-8.45-.19c-8.14-.9-13.14-6.51-13.34-14.34-.18-7.2,6-14.48,13.05-14.72,2.82-.09,5.64-.24,8.46-.24H856.38a69.8,69.8,0,0,1,7.52.19c7.92.84,13.23,6.19,13.63,14.21.34,6.88.09,13.79.15,20.68C877.71,570.12,877.86,573.19,878,576.11Zm.62,64.41c6.91.78,12.93-1.19,18.82-3.08,20.38-6.54,37.87-17.48,52.06-33.82,12.17-14,21-29.72,25.4-47.61,8.19-33.07,2.9-64.05-16.08-92.49a113.59,113.59,0,0,0-48-40.78,120.54,120.54,0,0,0-51-11q-360.69.12-721.37.06c-2.51,0-5,.09-7.52.08-8.61,0-15.7,8.33-15.72,15.7,0,9.22,5.77,16,15.32,16.93,3.73.35,7.52.18,11.28.18H847.06c4.39,0,8.78,0,13.16,0a85.48,85.48,0,0,1,48.64,15c18.42,12.62,30.11,29.83,34.77,51.65a77.25,77.25,0,0,1-5,47.83c-8.32,19.16-21.81,33.46-40.85,42.21-6.22,2.87-12.76,5-19.19,7.55C877.38,616.08,877.29,631,878.57,640.52ZM847.4,769.92c.22-3.22.57-5.92.57-8.62q0-95.46,0-190.94a24.06,24.06,0,0,0,0-2.82c-.22-1.77-.56-3.53-.81-5.09-9.75-1.48-85.8-2-139.64-1-2.13,0-4.26.36-6.47.55-1.94,3.88-1.29,7.68-1.29,11.35q-.06,92.64,0,185.3c0,2.19-.08,4.4.1,6.58a33.78,33.78,0,0,0,1.07,4.72c5.86-1.18,10.31-4.19,15-6.56,15.62-8,31.23-15.94,46.59-24.38,8-4.39,15.3-4.17,23.16.08q23.14,12.51,46.6,24.42C836.83,765.89,841.23,769.08,847.4,769.92ZM669.8,611.11c-4.18-2.2-7.69-1.51-11.07-1.51q-260.43-.06-520.86,0c-2.51,0-5,.13-7.52.16-7.62.11-15.83,7.92-15.26,17.11.53,8.72,6.41,14.83,15.74,15.54,3.43.26,6.89.13,10.33.13H656.39c2.51,0,5,.09,7.52,0,1.79-.09,3.56-.49,5.71-.81C670.52,631.27,670.23,621.36,669.8,611.11ZM878,711.25c3.12.19,5.55.48,8,.48q53.09,0,106.18,0a44.45,44.45,0,0,0,7.49-.37c12.08-2.12,19-13.82,15.16-25.48-2.67-8.13-10.51-13.58-20.39-13.6q-55.44-.13-110.88,0a38.91,38.91,0,0,0-5.54.82Z"/></svg>