<svg id="Layer_1" data-name="Layer 1" xmlns="http://www.w3.org/2000/svg" viewBox="0 0 1080 1080"><defs><style>.cls-1{fill:#fff;}</style></defs><path class="cls-1" d="M508.56,633a62.65,62.65,0,0,0-10.13-7.51Q287.85,486.78,77.25,348.06c-.38-.25-1.16.11-1.75.19-.33.49-.94,1-1,1.49-.09,11.75-.38,23.5-.11,35.24.34,14.67,6.88,26.11,19.08,34.34q34.71,23.42,69.35,46.92,35.87,24.28,71.73,48.57Q273.26,540.9,312,566.86q47,31.64,93.92,63.31a49.91,49.91,0,0,1,4.65,3.3c7.66,6.59,6.42,16,2.74,21.54-4.48,6.77-12.59,9.49-20.06,5.89-5.39-2.59-10.35-6.13-15.35-9.49Q335.2,622.79,292.6,594c-17.08-11.54-34-23.26-51.15-34.77-16.84-11.34-33.81-22.48-50.69-33.77q-22.53-15.07-45-30.29Q118.17,476.6,90.55,458c-9.49-6.39-18.78-13-26.78-21.28C49,421.37,41.22,403.19,41.16,381.83s0-42.57,0-63.86a44.44,44.44,0,0,1,.13-4.76C42.6,300.84,55.19,294.28,66,300.54c6,3.48,11.68,7.63,17.55,11.39a37.21,37.21,0,0,0,4.73,2.15c5.81-8.2,11.53-16.16,17.13-24.2,6-8.59,11.83-17.28,17.79-25.88a48.78,48.78,0,0,1,4.71-6,15.92,15.92,0,0,1,18.3-3.68,65.82,65.82,0,0,1,7.54,4c2.17,1.27,4.24,2.71,6.11,3.92,3.74-.55,4.76-3.65,6.32-5.83,6.84-9.54,13.34-19.32,20-29,4.52-6.51,9-13.09,13.79-19.38,7.26-9.45,14.77-10.52,24.69-3.76,17.59,12,35.67,23.11,54.9,32.31,28.24,13.51,57.56,23.46,88.89,26.64,4.73.48,9.5.93,14.25.95a273.14,273.14,0,0,1,40.79,3.45c29.52,4.61,56.05,15.71,78.47,35.9,14.12,12.71,24.82,27.93,33.55,44.67,1.13,2.16,2.43,4.24,4.11,7.17,1.56-2.3,2.71-3.71,3.54-5.29A189.44,189.44,0,0,1,564,318.34c17.64-21.47,39.78-36.08,66.06-44.7,18.26-6,37.08-8.52,56.2-9.14,5.72-.19,11.45-.07,17.15-.47A243.79,243.79,0,0,0,771,249c29.64-11,57.12-26,83-44a28,28,0,0,1,6.6-3.71c7-2.4,13.73-.29,18.56,6s9.21,12.92,13.76,19.42q11.17,16,22.34,32c.87,1.25,2,2.34,3.25,3.86,1.92-1,3.57-1.81,5.14-2.73,2.73-1.6,5.32-3.5,8.15-4.89,8.2-4,16.38-2.14,21.95,5.21,3.83,5.05,7.23,10.43,10.83,15.66,7.38,10.72,14.73,21.45,22.16,32.13,1.43,2.06,3.14,3.91,5.13,6.36,4.45-2.81,8.7-5.45,12.91-8.17,2.93-1.89,5.69-4.08,8.72-5.78a16.69,16.69,0,0,1,25.1,12.56,51,51,0,0,1,.21,6.66c0,19.7,0,39.4,0,59.09,0,26-9.76,47.4-29.61,64.37a248.38,248.38,0,0,1-23.76,17.39c-22.68,15.18-45.25,30.52-67.9,45.74-28.44,19.11-57,38.1-85.38,57.24-28.15,19-56.18,38.11-84.34,57.07q-58.8,39.6-117.69,79.05-28.43,19.11-56.77,38.36c-.78.52-1.57,1-2.81,1.83,1.93,1.84,3.1,3.32,4.6,4.33q52.89,35.61,105.85,71.14c14.48,9.73,29,19.42,43.39,29.28a13.4,13.4,0,0,0,7.89,2.68q47.64-.09,95.3-.1c.81,0,1.63-.47,3.37-1a34.62,34.62,0,0,0-3.67-3.42q-28.55-18.95-57.14-37.8-33.78-22.29-67.56-44.54c-10.06-6.64-20-13.38-30.18-19.91-4.55-2.93-7.65-6.63-8.1-12.16a16.8,16.8,0,0,1,8-16.23c5.54-3.63,11.58-3.4,17.11.09,11.52,7.3,22.89,14.84,34.28,22.33Q767.11,763,810.4,791.51q42.09,27.81,84.1,55.73c1.06.7,2.18,1.32,3.2,2.07,6.8,5,9.13,11.5,6.94,19.18-2,7-7.32,10.87-15.78,11.33-1.9.1-3.81,0-5.72,0-51.46,0-102.92-.11-154.38.11a35.66,35.66,0,0,1-21.25-6.63C662.9,843,618.09,813,573.35,782.91c-9-6-17.84-12.13-26.82-18.12-2.07-1.38-4.36-2.44-6.89-3.83-4.67,2.95-9.28,5.7-13.72,8.69q-50.53,34-101,68.12c-18.14,12.23-36.41,24.28-54.43,36.7a29.77,29.77,0,0,1-17.77,5.47q-79.09-.2-158.2-.08a51.78,51.78,0,0,1-5.71-.15c-6.93-.75-12.33-5-13.95-11.19-1.72-6.59-.73-12.64,4.7-17.36a35.51,35.51,0,0,1,3.86-2.76q39.73-26.17,79.47-52.36,40.5-26.74,80.95-53.59,38.12-25.19,76.31-50.26,31.38-20.7,62.69-41.52c7.14-4.73,14.33-9.4,21.47-14.14C505.56,635.68,506.66,634.59,508.56,633ZM861.18,241.18a9.1,9.1,0,0,0-2.55.79,367.24,367.24,0,0,1-52.23,29.28,293.12,293.12,0,0,1-59.32,20.18c-11.73,2.67-23.59,5.16-35.72,5.59-9.52.34-19,.89-28.54,1.16a146.47,146.47,0,0,0-49.28,9.48,107.62,107.62,0,0,0-51.77,41.7c-13.07,19.63-20.2,41.54-23.6,64.72-.87,6-1,12-1.77,18-1.17,9.62-8.19,15.58-17.52,15.11s-14.74-6.43-15.47-17c-1.61-23-6.76-45.17-16.94-66-10.77-22-26.5-39.32-48.29-50.92-18.3-9.75-38-14.05-58.5-15-5.07-.24-10.16-.22-15.24-.31-27.23-.45-53.6-5.84-79.36-14.27-29.13-9.54-56.17-23.4-81.63-40.4a57,57,0,0,0-5.64-2.84c-9.6,13.78-19.11,27.07-28,41.13,1.73,1.4,2.87,2.48,4.15,3.33q25,16.57,50,33.11,32.57,21.51,65.16,43c19.08,12.54,38.24,25,57.3,37.54q40.9,27,81.71,54.13,32.91,21.82,65.8,43.66c7.42,4.9,15,9.61,22.39,14.46a6,6,0,0,0,7.1.08c1.6-1,3.29-1.93,4.88-3q19.07-12.56,38.12-25.17c19.82-13.17,39.56-26.44,59.41-39.55q39.71-26.22,79.51-52.28,31.4-20.68,62.74-41.43,48.86-32.22,97.69-64.46a25.23,25.23,0,0,0,3.67-3.63C884,271.46,866.49,246.61,861.18,241.18Zm74.14,51c-16.75,11-32.39,21.28-48,31.58Q853.58,346,819.85,368.34c-27,17.8-54.12,35.47-81.11,53.31-26.73,17.66-53.33,35.49-80,53.17q-30.13,20-60.39,39.76C582.41,525,566.43,535.4,550.65,546c-7.2,4.86-14.08,5-21.24.28-11.12-7.34-22.28-14.62-33.38-22q-43.61-29-87.17-57.93c-26.2-17.32-52.5-34.47-78.73-51.73q-34.19-22.47-68.32-45c-17.22-11.34-34.48-22.61-51.69-34q-30.19-19.92-60.33-39.91c-1.53-1-3.21-1.79-4.69-2.61-6,5.72-24.82,32.89-27.69,39.77a9.29,9.29,0,0,0,.35.87,2.82,2.82,0,0,0,.51.79,10.53,10.53,0,0,0,1.45,1.22Q329,473.85,538.39,611.87a2.13,2.13,0,0,0,.92.24c.3,0,.62,0,1.24,0a22.31,22.31,0,0,0,2.24-1.16q45-29.51,89.9-59,33.79-22.2,67.56-44.45Q752.65,472.88,805,438.16c20.35-13.5,40.6-27.15,61-40.59,30.71-20.26,61.51-40.38,92.24-60.62,1.73-1.14,3.1-2.83,4.95-4.55C954,318.82,945.08,305.85,935.32,292.19Zm70.29,54c-7.62,4-13,7.94-18.45,11.57Q951,381.62,914.9,405.53c-19.87,13.09-39.85,26-59.69,39.14-26.47,17.5-52.83,35.16-79.3,52.66-20.11,13.3-40.35,26.41-60.49,39.67-18.54,12.22-37,24.57-55.52,36.81q-29.77,19.66-59.58,39.25c-18.83,12.37-37.72,24.65-56.51,37.07C516,668.48,488.32,687,460.54,705.32q-42.06,27.79-84.2,55.47Q342.56,783,308.78,805.27q-28.57,18.88-57.06,37.93c-.86.58-1.4,1.64-3,3.56,4.41.17,7.47.39,10.53.39q36.69,0,73.38,0c6.33,0,13,1,18.9-.77,5.53-1.62,10.22-6.17,15.22-9.52q35.58-23.83,71.13-47.74Q503.37,745,568.82,700.77q54.46-36.71,109-73.29c20.53-13.82,40.95-27.79,61.49-41.58,27.66-18.57,55.41-37,83.08-55.54q34.36-23.06,68.65-46.27t68.62-46.31c9.19-6.23,18.24-12.67,27.36-19s15-14.52,17.24-25.31a34.37,34.37,0,0,0,1.12-5.59C1006,374.59,1005.75,361.3,1005.61,346.18Z"/></svg>