<svg id="Layer_1" data-name="Layer 1" xmlns="http://www.w3.org/2000/svg" viewBox="0 0 1080 1080"><defs><style>.cls-1{fill:#fff;}</style></defs><path class="cls-1" d="M521.67,316.7V260.37c-2.57-.89-4.92-1.78-7.32-2.5C476.22,246.34,452,221.1,443,182.55c-8-34.52,1-65,26.08-90.55,13.61-13.87,30-22.48,48.72-27.09a46.7,46.7,0,0,1,9.08-1.39c11.57-.52,18.69,8.74,15.6,20a23.78,23.78,0,0,1-7,10.92c-11.34,10.91-14.54,24.56-13,39.73,3.37,33.72,41.85,53.62,71.18,36.7,4.16-2.4,7.77-5.71,11.77-8.4a45.72,45.72,0,0,1,9-5.18c10.65-4,24.45,1.14,22.38,17.86-2.52,20.3-11.15,37.61-24.73,52.65s-30.89,24.16-50.5,29a19.76,19.76,0,0,0-3.42,1.55c-2,9.62-2.33,41.72-.58,57,2.25,1.23,4.82,2.77,7.5,4.09,31.06,15.32,61.7,31.38,91.28,49.42,13.47,8.22,27.37,15.77,40.52,24.46,19,12.55,37.85,25.41,56.13,39q27.95,20.78,54.61,43.25c34,28.61,64.55,60.57,90.51,96.7,19.56,27.22,35,56.67,44.77,88.85a195.86,195.86,0,0,1,8.48,55.76c.24,37.72.1,75.45.12,113.18,0,.88,0,1.76,0,2.63-.58,13.44-5.2,18.19-18.31,18.76-3.07.13-6.14,0-9.21,0q-384.33,0-768.66,0a104.38,104.38,0,0,1-13.13-.41c-7.68-1-11.71-5-13.12-12.58a50.86,50.86,0,0,1-.61-9.16c0-36.85-.26-73.7.07-110.55.32-35.28,10-68.24,25.52-99.76,18.25-37,43.13-69,71.29-98.76,23.87-25.2,49.94-47.91,77.17-69.42a1023.92,1023.92,0,0,1,105-72.27c24.72-15,49.69-29.56,75.73-42.24C495.81,330.22,508.17,323.62,521.67,316.7Zm19,26.78c-3.44,1.38-5.57,2-7.49,3-25.1,13.44-50.33,26.65-75.2,40.52s-49.14,28.78-72.58,45c-16.93,11.7-33.61,23.76-50.23,35.89a634,634,0,0,0-94.85,84.83c-21.68,23.75-40.84,49.31-55.44,78-13,25.6-22.46,52.5-22.94,81.58-.55,32.89-.23,65.79-.18,98.68,0,2.43.91,4.87,1.53,8H900.63c3.07,0,6.15.14,9.2-.06,2.52-.18,5-.77,7.56-1.19a39.47,39.47,0,0,0,.88-5.69c0-33.77.06-67.54-.22-101.31-.12-14.55-2.94-28.79-7.42-42.62-8.58-26.46-21.32-50.77-37.23-73.62C851,562.26,824,534.14,794.83,508.22c-17-15.11-35.31-28.79-53.17-42.93-25.45-20.16-52.5-38-80.24-54.81-25.87-15.63-52.13-30.63-78.5-45.42C569.2,357.36,554.89,350.7,540.65,343.48ZM490.14,119.16c-21.8,22.28-22.78,67.54,8.73,93.45,25.06,20.59,64.24,19.53,81.12-2-16.17-1.17-31.71-2.35-45.9-10.42a87.8,87.8,0,0,1-33.78-33.81C492.22,152.24,491.25,136.81,490.14,119.16Z"/><path class="cls-1" d="M539.74,884.81h448.9c4.39,0,8.8-.18,13.16.17,9.46.75,14.16,5.37,15.34,14.88a64.81,64.81,0,0,1,.23,7.89q0,42.78,0,85.56a59.88,59.88,0,0,1-.4,9.19c-1.14,7.22-5.17,12-12.62,13.27a44.42,44.42,0,0,1-6.52.62c-4,.11-7.9.05-11.85.05H93.43c-4.82,0-9.68.24-14.47-.21-10.37-1-15-5.59-16.13-15.73a69.12,69.12,0,0,1-.19-7.89q0-42.12,0-84.24a64.07,64.07,0,0,1,.35-9.2c1.31-8.83,5.87-13.27,14.69-14.13,4.35-.43,8.77-.22,13.15-.22Zm442.8,32.53H113.21c-3.08,0-6.16-.17-9.21.07a64.9,64.9,0,0,0-7.21,1.36c-1.88,17.06-1.36,54.47.8,63.23,13.48,1.93,804.64,3,877.7,1.12,2.52-.06,5-.46,7.31-.67C984.68,970.78,984.74,929.93,982.54,917.34Z"/><path class="cls-1" d="M306.21,588a15.83,15.83,0,0,1-14-23.46,26,26,0,0,1,5.79-7.06c18.75-16.5,37.3-33.23,56.5-49.2,28-23.29,57.71-44.25,88.33-63.94,7.37-4.74,15-9,22.62-13.42,3.45-2,7.11-3.45,11.27-2.69,6.53,1.2,11.58,4.35,13.27,11.12,1.74,7-.16,13.25-5.85,17.67a139.26,139.26,0,0,1-15.39,10.05c-27.71,16.15-53.73,34.74-79,54.39a770.34,770.34,0,0,0-68.58,59.3C317.05,584.84,312.45,588.22,306.21,588Z"/></svg>