<svg id="Layer_1" data-name="Layer 1" xmlns="http://www.w3.org/2000/svg" viewBox="0 0 1080 1080"><defs><style>.cls-1{fill:#fff;}</style></defs><path class="cls-1" d="M216.66,683.07c-15.68-1-29.56-5-43.36-8.91a156.59,156.59,0,0,1-32.76-13.64q-7.6-4.18-15-8.68a190.74,190.74,0,0,1-39.18-32,200.78,200.78,0,0,1-29.52-39.21c-4.23-7.45-8.39-14.91-11.93-22.76A225.56,225.56,0,0,1,25,466.78c-.13-11.89,1.29-23.67,3.19-35.44a233.32,233.32,0,0,1,8.67-34.44C43.25,377,53.07,358.82,65.24,342,75,328.48,86,316,99,305.38c8.8-7.18,17.65-14.2,27.47-19.91,6.74-3.92,13.54-7.71,20.58-11.1,7.53-3.63,15.48-6.07,23.12-9.36a48.74,48.74,0,0,1,5.78-1.72,213.92,213.92,0,0,1,89.26-6.88,194.1,194.1,0,0,1,36.13,8.21c11.38,3.84,22.85,7.92,33.34,14.12,2.78,1.64,5.64,3.34,9.05,3.58,1.93-2.12,1-4.42.76-6.53-.55-4.5-1.47-9-2-13.48a225.65,225.65,0,0,1,16.24-115A203.27,203.27,0,0,1,374,117.82,192.3,192.3,0,0,1,402.78,82a213.9,213.9,0,0,1,31.06-25.22,186.65,186.65,0,0,1,60.92-26.13c24-5.65,48.37-7.36,73-4,18.37,2.49,36.22,7,53.18,14.41A187,187,0,0,1,658,62.88a193.25,193.25,0,0,1,56.29,67.3A215,215,0,0,1,733.1,182a234,234,0,0,1,2.95,91.09,61.26,61.26,0,0,0-.66,6.78A7.1,7.1,0,0,0,736,282c3.15.7,5.53-1.07,7.83-2.42,10.7-6.31,22.44-10.28,33.92-14.69,8.18-3.14,17.06-4.53,25.69-6.4,5.17-1.12,10.45-1.79,15.71-2.44A209.92,209.92,0,0,1,930,273.08a202.15,202.15,0,0,1,27.9,15,206.27,206.27,0,0,1,21.78,16.17,218.73,218.73,0,0,1,20.69,19.92,207.46,207.46,0,0,1,21.19,27.57A202.64,202.64,0,0,1,1036,378.3c7.16,16.18,13,32.8,15.44,50.47.71,5.26,1.49,10.51,2.19,15.77a176,176,0,0,1-.18,46.09c-1.45,11-2.86,22-5.83,32.79a239.94,239.94,0,0,1-11.53,32.81,217.56,217.56,0,0,1-61.46,81.34,194.55,194.55,0,0,1-24.8,17.34,245.47,245.47,0,0,1-30.54,14.88c-11.77,4.82-24.2,7-36.27,10.54-4.8,1.41-10,1.59-15,2.34-1.2.18-2.4.39-4.21.69.77,1.7,1.11,3.19,2,4.22a80.8,80.8,0,0,0,6.31,6.51c8.88,8.32,16.3,17.94,23.37,27.71,5.61,7.74,10,16.33,14.88,24.6A141.18,141.18,0,0,1,922,772.69a280.91,280.91,0,0,1,8.12,29.94,187.63,187.63,0,0,1,4,48.22c-.54,12.37-1.56,24.7-4.7,36.75-1.52,5.86-3,11.74-4.5,17.59-4.32,16.5-11.74,31.68-20.14,46.39a188.21,188.21,0,0,1-27.59,36.87,219.64,219.64,0,0,1-54.42,41.65,217.43,217.43,0,0,1-47,18.81,126.43,126.43,0,0,1-24.61,4.2c-2.77.19-5.53.53-8.28.88a115.81,115.81,0,0,1-31.72-.31c-6.23-.91-12.54-1.39-18.75-2.44-18.86-3.2-36.44-10.09-53.28-19a203.23,203.23,0,0,1-47.83-35.51,226.81,226.81,0,0,1-33.36-41.8c-4.68-7.53-8.58-15.43-12.88-23.14a46.54,46.54,0,0,0-2.93-4,48.36,48.36,0,0,0-3.12,4.73,234.92,234.92,0,0,1-21,35,225.79,225.79,0,0,1-32.88,36.4,206.73,206.73,0,0,1-43.64,29.74c-18.14,9.25-37.19,15.92-57.34,18.72-12.21,1.69-24.58,3.42-37,2.44-17.12-1.36-34.15-3.14-50.72-8.28a218.63,218.63,0,0,1-63.34-31.76,213.67,213.67,0,0,1-64.19-75.1c-7.3-13.95-12.4-28.72-16.59-43.76-2.49-8.94-3.42-18.34-4.73-27.59-.88-6.23-1.41-12.54-1.73-18.84-.95-18.57,1.75-36.84,5.81-54.85a192.81,192.81,0,0,1,9.17-28.84,211.25,211.25,0,0,1,15-30.47,207.31,207.31,0,0,1,30.89-40c2.67-2.67,5.39-5.31,7.93-8.09C215.47,686.39,215.73,685.11,216.66,683.07ZM431.94,471.56c-1.25-2.25-2.27-4.24-3.44-6.16Q407.06,430.17,385.55,395c-2.62-4.26-5.18-8.65-9-12.06-11.49-10.23-22.64-20.81-35.3-29.69-6.83-4.8-13.75-9.39-21-13.59-10.46-6.11-21.13-11.65-32.62-15.75a163.85,163.85,0,0,0-38.29-8.65c-24.93-2.58-48.84,2-71.8,11.53a147.42,147.42,0,0,0-53.27,37.9,149.46,149.46,0,0,0-28.95,47.5,155,155,0,0,0-8,29.91C83,468.5,86,494.28,95,519.58a164.8,164.8,0,0,0,28.77,51.09A145.93,145.93,0,0,0,203.35,620c10.51,2.53,21.46,3.23,32.22,4.64,12.11,1.59,24.23.25,36.35,0a113.55,113.55,0,0,0,18.84-1.68,161,161,0,0,1,16.52-2.22,53.24,53.24,0,0,0,13.28-2.9q11.78-4.15,23.56-8.25c14.29-4.94,28.59-9.82,42.87-14.77,5-1.72,5.1-2.2,5-7.77-.12-8.08,0-16.16,0-24.24,0-1.23,0-2.47,0-3.92-2-.89-3.83-1.82-5.7-2.44q-17.61-5.85-35.27-11.58-33.82-11-67.67-22c-3.83-1.25-7.59-2.71-11.37-4.09-10.17-3.73-18.5-15.67-18-29a30.29,30.29,0,0,1,37-27.95c7.08,1.63,13.91,4.42,20.85,6.72,10.52,3.48,21,7.07,31.57,10.47,9.11,2.94,18.3,5.61,27.4,8.55,11.73,3.78,23.4,7.74,35.13,11.53a27.76,27.76,0,0,0,4.91.73ZM674.15,500.2c5.61-1.59,10.51-2.83,15.31-4.37,12-3.84,23.95-7.83,35.92-11.76,1-.31,2-.54,2.9-.86,9.78-3.28,19.54-6.63,29.34-9.84,10.55-3.44,21.21-6.52,31.67-10.19a30.49,30.49,0,0,1,24.83,1.38c19.78,9.73,20.32,36.35,7.43,48.19-4.65,4.27-10.11,6.75-15.76,8.71-12.38,4.29-25,8-37.45,12q-35.3,11.43-70.54,23a36.81,36.81,0,0,0-4.36,2c-.3.69-.5.91-.5,1.15q-.2,15.14-.36,30.28c0,2.6,1.26,4.08,3.79,4.92,7.89,2.6,15.73,5.38,23.57,8.11,2.63.92,5.22,1.91,7.82,2.88,7.56,2.82,15.08,5.73,22.68,8.44,9.73,3.47,19.47,6.83,30,7.52,6.28.41,12.49,2.13,18.77,2.44,18.42.91,36.84,1.64,55.24-.87,10.25-1.4,20.46-2.66,30.43-5.68a146.55,146.55,0,0,0,50.52-26.42,162.83,162.83,0,0,0,34.75-39.51c8.33-13,14.1-27.37,18.45-42.11,3.48-11.84,5-24.2,6.12-36.54s-.81-24.73-3.14-36.9a145,145,0,0,0-25.29-58.48A155.67,155.67,0,0,0,932.85,344a144.36,144.36,0,0,0-30.94-17.41,158.86,158.86,0,0,0-28.15-8.64c-16-3.4-32-4.41-48.17-2.1-13,1.85-25.8,4.66-37.88,10.11-5.74,2.6-11.75,4.67-17.3,7.63a284,284,0,0,0-59,42.12c-5.74,5.29-11.47,10.58-15,17.74-1.45,2.93-3.18,5.72-4.83,8.55q-7.2,12.42-14.43,24.83c-6.07,10.46-12.24,20.87-18.11,31.44-2.41,4.34-5.4,8.46-6.71,13.7,3.68,4.57,7.31,9.07,11,13.55S669,496.08,674.15,500.2ZM479.45,713.42c-.61.71-1.32,1.41-1.9,2.21q-11.12,15.29-22.21,30.6c-8.3,11.44-16.57,22.89-24.92,34.29-8.2,11.18-16.24,22.5-24.79,33.41s-21.47,13.76-33.39,9.29a29.61,29.61,0,0,1-15.93-42.44c3.72-6.54,8.32-12.6,12.74-18.72,9.45-13.07,19.06-26,28.58-39,8.49-11.62,17.1-23.14,25.3-35,2.52-3.63,6.16-6.69,7.33-11.61-3.34-4.17-6.72-8.22-9.92-12.42-3.31-4.36-5.53-9.53-9.7-13.49-9.32,3.1-18.42,6-27.45,9.17-9.75,3.39-19.4,7.09-29.18,10.4-6.95,2.35-13.42,5.75-20.09,8.7-5.5,2.43-10.56,5.85-15.94,8.58a271.52,271.52,0,0,0-39.6,24.83c-18.81,14-35,30.41-48.07,49.91a137.69,137.69,0,0,0-20.79,50c-5.33,26.76-4.3,53.24,4.43,79.3A152.19,152.19,0,0,0,240,939a162.68,162.68,0,0,0,22,21.82,145.89,145.89,0,0,0,35.93,22,120.49,120.49,0,0,0,30.3,9.29c10,1.52,19.93,3.62,30.11,2.7,5-.45,10-1.46,15-2,11.91-1.31,23.15-5,34.07-9.69a142.77,142.77,0,0,0,41.33-27.49c18.54-17.37,31.77-38.33,41.58-61.57,6.78-16.07,12.34-32.55,15.5-49.77.86-4.72,1.82-9.43,2.75-14.13a152.47,152.47,0,0,0,3.24-29.34c.1-23.51,0-47,0-70.54,0-2.22-.23-4.45-.38-7.12-10.11-3-20.09-5.57-29.56-9.69A7.12,7.12,0,0,0,479.45,713.42Zm125.32,0c-3.35-.24-5.77,1.34-8.35,2.21s-5,2.37-7.66,3.21c-2.87.92-5.89,1.39-8.83,2.08-2.69.63-5.46,1.08-7.72,3.24-.09,1.41-.27,2.91-.27,4.41,0,24.51-.1,49,.06,73.53a117.67,117.67,0,0,0,1.51,15c.81,6,2,12,2.79,18,1.78,13.86,6.14,27.07,10.25,40.3,2.53,8.13,6.29,15.89,9.74,23.71a174.18,174.18,0,0,0,12.7,24,170.91,170.91,0,0,0,43,46.27A134.54,134.54,0,0,0,677.61,984c8.27,3.61,16.82,6.85,25.9,8,8.23,1.08,16.29,3.24,24.75,3,7.37-.18,14.54-1.4,21.78-2.45,17-2.45,32.58-9,47.31-17.26a152.31,152.31,0,0,0,36-28.56,135.54,135.54,0,0,0,18.75-24.69,185.61,185.61,0,0,0,10.36-21,166.31,166.31,0,0,0,8.11-25.9c2.88-11.84,3.51-24,3.26-36.12a146.22,146.22,0,0,0-9.34-48.05c-.35-.94-.63-1.92-1.07-2.82-2.7-5.66-5.4-11.33-8.18-17a99.84,99.84,0,0,0-12.36-19c-8.35-10.15-16.88-20-26.91-28.67a290.76,290.76,0,0,0-26.31-20.31c-10.84-7.36-22.41-13.53-34-19.56-6-3.13-12.31-5.79-18.26-9a115.33,115.33,0,0,0-18.08-7.6c-5.72-2-11.39-4.08-17.07-6.13l-27.94-10.09c-1,.45-1.6.53-1.87.88q-7.66,10.28-15.26,20.61c-1,1.4-1.84,3-3,4.86,1.62,2.52,3.12,5.11,4.86,7.52,9.32,12.83,18.71,25.6,28.05,38.41,12.63,17.32,25.2,34.69,37.87,52a32.21,32.21,0,0,1,5.95,26.5c-2.28,11.08-9.3,18.71-19.89,21.88-14.28,4.27-25.86-.34-34.61-12.13-7.2-9.7-14-19.67-21.15-29.45q-23.81-32.76-47.71-65.43A41.37,41.37,0,0,0,604.77,713.4Zm-3.09-277.53c1.13-1.61,2.07-2.77,2.82-4.05,8.9-15.26,17.82-30.5,26.58-45.85a23.23,23.23,0,0,0,2.69-7.81c.9-5.88,3.32-11.08,6.27-16.11a285.67,285.67,0,0,0,18.41-36.47c2.38-5.84,4.33-11.86,6.77-17.63,3.76-8.9,5.7-18.26,8.17-27.47,1.89-7,2.54-14.4,3.64-21.63,2.67-17.65,1.84-35.29-.6-52.88a116.7,116.7,0,0,0-3.65-17.79A174.11,174.11,0,0,0,658,152.66a141.5,141.5,0,0,0-30.69-37.13,116.44,116.44,0,0,0-25.95-16.79c-6.74-3.26-13.55-6.7-21.12-8a36.48,36.48,0,0,1-7.33-1.86c-6-2.37-12.35-2.81-18.59-3.31a137.43,137.43,0,0,0-63.72,9.63,142.82,142.82,0,0,0-33.86,19.55,138,138,0,0,0-32.09,35.93c-15.25,24.09-21.81,50.83-23.44,79-.56,9.6.49,19.11,1.72,28.68a240.58,240.58,0,0,0,9.75,43.5A300.6,300.6,0,0,0,438,358.43c3.5,6.13,7.32,12.07,8.53,19.27.35,2.13,1.81,4.13,3,6.06q14.88,24.58,29.86,49.1a32.1,32.1,0,0,0,2.92,3.51c1.41-.41,2.63-.69,3.79-1.12,6.88-2.49,13.7-5.18,21-6.37,1.59-.26,3-1.54,4.79-2.49v-8.51q0-53.85,0-107.69c0-2.78-.06-5.57.18-8.34,1.5-17.27,15.93-29.69,34-27.92,11.24,1.1,22.82,11.41,24.64,21.44a73.09,73.09,0,0,1,1.25,12.77c.1,36.9,0,73.81.09,110.72,0,2.71-.66,5.57,1.08,8.35,7.75,2.47,15.63,5,23.54,7.49C598,435.15,599.51,435.38,601.68,435.87ZM542,665.23c2.52-.18,5-.5,7.56-.5,12.74,0,24.21-4.36,35.31-10.06,10.48-5.38,19.09-12.94,26.66-22a86.72,86.72,0,0,0,20.07-46.46,88.78,88.78,0,0,0-12-57.4,84.69,84.69,0,0,0-16.24-19.78,86,86,0,0,0-17.69-12.79c-5.18-2.71-10.27-5.28-15.94-6.67a18.64,18.64,0,0,1-2.81-1.11,36,36,0,0,0-12.48-2.84c-3.28-.14-6.56-.35-9.84-.57-13.65-.93-26.45,2.68-39.07,7.28-5.68,4.17-12.37,6.6-18,11a92,92,0,0,0-27.81,35.19,87.57,87.57,0,0,0-7.72,36c0,6.78.32,13.8,2.05,20.3,3.71,13.91,9.14,27.13,19,38.21,5.91,6.66,12.13,12.92,19.62,17.64C507.63,660.17,523.88,665.88,542,665.23Z"/></svg>