<svg id="Layer_1" data-name="Layer 1" xmlns="http://www.w3.org/2000/svg" viewBox="0 0 1080 1080"><defs><style>.cls-1{fill:#220063;}</style></defs><path class="cls-1" d="M569.85,925.44c-2.42-3.11-4.3-5.66-6.3-8.11a217.46,217.46,0,0,1-40.36-76.15c-5.58-18.77-10.32-37.79-15.47-56.7-4.81-17.68-9.71-35.33-14.47-53-7.61-28.23-15.41-56.41-22.6-84.75-3.95-15.6-4-31.33,3.69-46.09,11.19-21.4,28.93-33,53.14-34.37,3.15-.18,6.31-.17,10.2-.27-.32-2.34-.41-4.15-.83-5.87-1.53-6.24-3.16-12.46-3.12-19,.14-23.72,10-42.05,30.26-54.61,10.06-3.09,15.14-11.12,19.91-19.66,9.25-16.55,18.69-33,28.15-49.4,9.3-16.15,18.79-32.2,28.1-48.35,10.58-18.36,21-36.81,31.6-55.19q10.8-18.81,21.76-37.52c10.19-17.49,20.44-35,30.61-52.45,7.43-12.78,15-25.49,22.09-38.45,7.92-14.42,8.71-29.57,2-44.56-8.88-19.82-34.71-33.71-59.34-23.52A47.85,47.85,0,0,0,664.7,138.6c-6.8,12-13.77,24-20.69,35.89q-23.7,40.86-47.41,81.7Q574.37,294.56,552.24,333q-25.74,44.68-51.41,89.41c-9.63,16.7-19.41,33.3-29.08,50-5,8.61-9.85,17.3-14.81,25.94-1.28,2.23-2.64,4.42-4.05,6.56-6.23,9.43-18.92,8.73-25,5.07-6.93-4.19-11.9-14.16-7.11-23.56,3.65-7.15,7.65-14.14,11.68-21.08,11.28-19.46,22.74-38.81,34-58.28,8.67-15,17.05-30.21,25.71-45.24,10.43-18.09,21.09-36.06,31.54-54.14,9.32-16.13,18.47-32.36,27.76-48.51,9.62-16.71,19.33-33.37,29-50.07,4-7,8.2-13.83,11.82-21,9.22-18.27,6.87-35.87-5.45-51.54-12.12-15.42-35-22.34-55.89-12.49a46.47,46.47,0,0,0-22,20.84c-3.72,7.11-8,13.91-12,20.89-2.72,4.73-5.2,9.6-8,14.25-2.49,4.1-4.84,8.47-8.13,11.86a18.66,18.66,0,0,1-29.68-3.82c-3.45-6-3.1-12.37.06-18.45,2.08-4,4.52-7.78,6.8-11.66,7.31-12.47,14.47-25,22-37.38A75.76,75.76,0,0,1,504,96c19.56-12.52,40.86-16.73,63.64-12.17,23.58,4.72,41.77,17.53,54.8,37.72,1.19,1.85,2.44,3.66,3.49,5.23,2.65.16,3-1.65,3.72-3a87.84,87.84,0,0,1,20.7-26.42C663.24,86,678.53,79.44,695.5,77.27c44-5.63,85.07,24.4,93.61,67.92,3.95,20.13.5,38.91-9,56.86-1.73,3.25-4.61,6.12-4.75,9.88,2.14,2.31,4.52,1.67,6.66,1.78,28.24,1.37,51.08,13.58,66.66,36.79,16.8,25,20.1,52.41,7.9,80.78-5.6,13-13.55,24.79-20.56,37.06-5.73,10-11.57,20-17.32,30.06a36.41,36.41,0,0,0-1.77,4.17c2.71,2.66,5.78,1.62,8.55,1.84,14.63,1.17,28.48,4.69,40.94,12.83,37.9,24.75,49.82,74.28,28.36,112.06-12,21.23-24.29,42.36-36.42,63.54-1.27,2.22-2.38,4.52-3.42,6.5,5.45,24,10.29,40.37,14,46.77,1.18-1.7,2.32-3.13,3.22-4.7,4.31-7.53,8.43-15.17,12.84-22.64a66.85,66.85,0,0,1,29.47-27c17.07-8,35-10,53.56-5a69.92,69.92,0,0,1,40.72,29.07c13,19.34,17.16,40.71,10.47,63.48-2.89,9.85-6.32,19.56-9.74,29.25q-17.77,50.46-35.71,100.86c-5.8,16.35-11.38,32.77-17.47,49-8.9,23.71-22.26,44.78-38.53,64.13a218.93,218.93,0,0,1-50.6,44.24c-19,12-39.31,21.65-61.31,27.51-23.15,6.16-46.5,9.69-70.46,8.94a232,232,0,0,1-53.21-8.19,223.73,223.73,0,0,1-76.61-37.38c-2-1.54-4.16-3-6.53-4.66a53.78,53.78,0,0,0-6.06,2.71c-27.23,16.3-56.55,27.72-87.06,35.86a308.12,308.12,0,0,1-57.85,10c-9.29.66-18.59,1.4-27.9,1.65-27.12.72-53.83-2.69-80.39-8-27.6-5.53-53.81-15.14-79.13-27.09C241.11,959,222.36,948.36,205.31,935c-10.63-8.3-21.6-16.26-31.47-25.39A336,336,0,0,1,145,879.92a407.18,407.18,0,0,1-30.11-40,325.49,325.49,0,0,1-26.28-48.19c-13.48-31.1-23-63.35-27.46-97.07A372.34,372.34,0,0,1,57.79,637c.51-22.56,3.67-44.78,8.13-66.89C70.15,549.2,77,529.21,84.8,509.44c11.77-29.89,23.18-59.92,34.82-89.87q11.52-29.64,23.26-59.19c7.93-20,21.86-34.52,40.7-44.59,17.44-9.32,36-11,55.26-8.36,18.25,2.47,33.64,11.08,46.47,23.7,12.31,12.11,21.13,26.67,24.22,44.1,1.69,9.53,2.76,19.09,1.29,28.77a45.67,45.67,0,0,0,0,5.73c1.51-1.2,2.7-1.73,3.23-2.63,5-8.61,9.87-17.29,14.85-25.92,3.53-6.12,7.2-12.17,10.75-18.28q11.86-20.41,23.69-40.87c1.29-2.22,2.8-4.32,4-6.61,3.68-7.22,15.34-10.64,24.77-5.85,8,4.09,11.58,14.32,8,23.31a32.07,32.07,0,0,1-2.17,4.3c-6.41,11.14-12.87,22.24-19.27,33.38q-15.6,27.17-31.14,54.36c-2.72,4.74-5.63,9.37-8.36,14.1q-29.87,51.76-59.71,103.54C276.36,547.84,273,553,270,558.24a19.93,19.93,0,0,1-24.3,8.4c-9.35-3.63-14.67-13-12.84-23.3a123.75,123.75,0,0,1,3.51-13q15.12-51.83,30.26-103.64c2.06-7.09,4.08-14.21,5.7-21.41,4.2-18.8-.63-35.28-14.61-48.34s-31-16.19-49.32-10.68c-15.26,4.57-25.22,15.09-31.21,29.38-5.58,13.33-10.41,27-15.68,40.42-10.18,26-20.46,52-30.65,78.06-5,12.86-10.14,25.7-14.95,38.64-15.63,42.1-23,85.56-20.7,130.5,1.07,21.25,4.71,42.12,9.75,62.79,6.28,25.79,16.45,50,29,73.26a314,314,0,0,0,74,90.54,303.22,303.22,0,0,0,61.68,41c73.2,36,149.33,45.14,228.68,23.92,22.18-5.94,43.14-14.67,63.69-24.64C564.55,928.89,566.86,927.24,569.85,925.44ZM737.2,965.89c34.54,0,62-6.49,87.88-18.68,33.33-15.71,60-39.39,79.85-70.55,2.25-3.52,4.53-7,6.47-10.72,8.22-15.7,14.37-32.26,20.14-49q11.63-33.71,23.37-67.37,13.5-38.69,27.14-77.32a40.13,40.13,0,0,0,2.06-17.1,36.24,36.24,0,0,0-43.76-32.46c-12,2.6-20.66,9.55-26.5,20.48-10.75,20.12-21.89,40-32.83,60-2,3.69-4.19,7.21-7.51,9.93a18,18,0,0,1-23.08.19A21.71,21.71,0,0,1,843,701.29c-4.62-17.72-9.41-35.39-14.11-53.09-6.51-24.53-13-49.09-19.52-73.61q-11-41-22.12-81.91a44.73,44.73,0,0,0-3.32-9,24.22,24.22,0,0,0-28.61-12.14,24.79,24.79,0,0,0-16.88,26.21,54.63,54.63,0,0,0,1.54,7.55c3.72,14.3,7.41,28.62,11.27,42.89q14.61,54,29.34,107.87c3,11.16,6.27,22.28,8.79,33.56a17.68,17.68,0,0,1-12.12,21.26c-10.36,3.19-19.9-1-23.9-10.63a56.06,56.06,0,0,1-2.29-7.36c-7.06-27-14-54.12-21.17-81.15-7.07-26.71-14.33-53.38-21.54-80.06q-8.05-29.77-16.2-59.51c-1.18-4.34-2.11-8.76-3.52-13A24.13,24.13,0,0,0,648.09,450c-6.67,6.95-7.78,15.24-5.58,24.2,2.85,11.54,5.73,23.08,8.8,34.56,7.64,28.56,15.42,57.09,23.12,85.63q15.2,56.29,30.3,112.61a35.46,35.46,0,0,1,1.4,10.41c-.36,8.88-6.8,15.3-15.94,16.52s-17-3.28-20-11.45c-.88-2.42-1.54-4.91-2.21-7.39q-10.83-40.52-21.64-81-9.21-34.47-18.47-68.92c-2.67-9.93-5.52-19.8-8.15-29.74A28.89,28.89,0,0,0,613,522.8a23.2,23.2,0,0,0-27.35-5.33c-11.71,5.46-16.71,17-13.06,30.74q10.38,39.13,21,78.22,14,52.11,28.09,104.23a32.45,32.45,0,0,1,1.23,5.62,18.72,18.72,0,0,1-35.88,9A56.49,56.49,0,0,1,584.7,738q-13.79-51.21-27.53-102.42c-1.42-5.28-2.84-10.57-4.62-15.73-1.36-3.94-3.27-7.57-6.82-10.27-8.92-6.77-19.52-7.59-28.8-1.91-8.75,5.35-12.73,14.91-10.47,25.87,1.31,6.29,2.93,12.52,4.6,18.72Q528.49,716.89,546,781.55c4,14.89,7.56,29.91,12,44.68,5.72,19.16,13.55,37.38,24.86,54.08a191.59,191.59,0,0,0,76.28,66.23C685.47,959.32,713.5,966,737.2,965.89ZM724.73,444.62a4.92,4.92,0,0,0,1.85-.37,63.26,63.26,0,0,1,24.58-10.47,8.55,8.55,0,0,0,6.07-4.31c1.29-2.22,2.62-4.41,3.91-6.64q19-32.93,38-65.85c6.74-11.67,13.51-23.31,20.18-35,12.37-21.67,5.48-44.19-7.93-57.48-17-16.8-45-18-62.89-2-7.36,6.57-12.1,14.87-16.85,23.25q-12.81,22.6-25.8,45.11-19.7,34.19-39.44,68.35c-.76,1.33-1.88,2.69-.91,4.41C698.33,409.36,706.79,415,724.73,444.62ZM802,446.53c12.4,11.51,18.94,25.06,22.61,40.38,4,16.82,8.78,33.47,13.28,50.17.71,2.66,1.77,5.23,2.83,8.29,1.35-1,2.3-1.43,2.71-2.14,6.76-11.63,14.2-22.94,20-35,13.29-27.6-4-61.06-36.21-65.94C819,441,810.68,441.5,802,446.53Z"/><path class="cls-1" d="M424.92,270.73c-12.42,0-17.82-8.12-18.17-18a18.26,18.26,0,0,1,18.58-19,19.1,19.1,0,0,1,18.48,19.45C443.48,263.43,435.56,270.82,424.92,270.73Z"/></svg>