<svg id="Layer_1" data-name="Layer 1" xmlns="http://www.w3.org/2000/svg" viewBox="0 0 1080 1080"><defs><style>.cls-1{fill:#220063;}</style></defs><path class="cls-1" d="M17,777.58V98.79a55.55,55.55,0,0,1,2-13.32l0,0c6.2-21,16.73-39.37,35.45-51.38,1.06-.68,2.14-1.34,3.23-2A112.68,112.68,0,0,1,114.87,17H424.15a122.17,122.17,0,0,1,27.44,3.78l.09,0c28.14,7.78,48.25,25.49,57.57,52.59,6.53,19,9.09,39.44,12.18,59.44,2.9,18.82,4.89,37.79,7.07,57.06a14.68,14.68,0,0,0,14.58,13h0c145.38,0,290.76-.22,436.14.21,26.2.07,47.83,12.42,63.19,33.35,1.4,1.91,2.72,3.89,4,5.92a113.64,113.64,0,0,1,16.61,60V981.14a55.88,55.88,0,0,1-2,13.42h0c-6.2,21-16.73,39.37-35.45,51.38-1.06.68-2.14,1.34-3.23,2A112.58,112.58,0,0,1,965.15,1063H471.86a121.29,121.29,0,0,1-27.33-3.78l-.08,0c-28.13-7.81-48.26-25.49-57.57-52.6-6.52-19-9.09-39.43-12.18-59.43-3.31-21.48-5.43-43.15-8-65.23a5.49,5.49,0,0,0-5.45-4.85h-7.16c-84.43,0-168.86.35-253.29-.21-26.21-.17-47.83-12.41-63.19-33.35-1.4-1.91-2.72-3.89-4-5.92C22.46,819.65,17,798.73,17,777.58ZM543.21,264.2A5.23,5.23,0,0,0,538,270v.05c2,16.62,4.05,33.22,6.1,49.83,2.09,16.95,4.12,33.91,6.29,50.85,2.59,20.23,5.41,40.43,8,60.67,2.26,17.95,4.16,35.95,6.43,53.9,2.51,19.9,5.4,39.75,7.86,59.66,2.34,19,4.19,38,6.52,56.94,2.44,19.91,5.28,39.78,7.78,59.68,2.3,18.28,4.28,36.6,6.58,54.88,2.47,19.57,5.18,39.11,7.75,58.67,2.53,19.23,5.2,38.45,7.46,57.71,1.46,12.42,2.88,24.92-7.4,35.1-4.77,4.72-8.87,10.11-13.25,15.22q-36.76,42.84-73.5,85.72c-9,10.51-18,21.08-27.53,32.3,2.3.29,3,.45,3.65.45,157.64,0,315.28.29,472.92-.2,26-.09,37.84-11.86,37.88-38.7q.54-329.93,0-659.85a49.92,49.92,0,0,0-5.12-22.1c-7.15-13.85-20.87-16.55-35-16.56q-206.33-.12-412.66-.05ZM536.3,815.8a5.44,5.44,0,0,0,5.41-6.06c-1.54-13.38-2.93-25.82-4.48-38.24-2.39-19.25-5.06-38.46-7.41-57.71-2.28-18.62-4.14-37.3-6.51-55.91-3.12-24.54-6.73-49-9.81-73.55-2.38-19-4.1-38-6.41-57-2.47-20.23-5.38-40.42-7.92-60.65-2.26-18-4.16-35.94-6.43-53.88-2.51-19.9-5.4-39.75-7.86-59.65-2.34-19-4.18-38-6.51-56.93-2.45-19.91-5.3-39.76-7.8-59.66-2.3-18.28-4.27-36.59-6.55-54.87-2.49-19.91-5.54-39.75-7.7-59.68-3.29-30.38-9.93-43.27-40.44-43.49q-149.61-1.08-299.23,0C90.28,78.7,78.56,90.44,78.51,117q-.58,329.87,0,659.74a52.28,52.28,0,0,0,5.54,22.93c7.17,14,21.2,16.1,35.2,16.11q205.79.18,411.57.07ZM448.22,948.13,501,886.86a5.44,5.44,0,0,0-4.13-9h-60.4a5.46,5.46,0,0,0-5.42,6.13c2.52,20.34,5,40.36,7.6,61.24A5.46,5.46,0,0,0,448.22,948.13Z"/><path class="cls-1" d="M908.15,514.87h5.59q44.65,4.53,44.66,36.28V554q-8.89,34.71-20.94,44.66-23,19.53-69.78,19.54h-2.79q-26.52,0-43.27-5.59v14q0,39.43-40.47,76.76-29.67,20.94-57.23,20.94h-2.79q-42.92,0-68.39-47.45a143.16,143.16,0,0,1-7-47.46q10.83-50.23,33.5-71.18l7-4.18h4.19v1.39q0,5.24-22.33,34.89a43.89,43.89,0,0,0-8.38,26.52v7q0,16.75,25.12,44.66Q706.13,681,733.69,681q49.2,0,76.77-39.08l2.79-19.54q0-5.93-19.54-36.28V554q2.09-3.84,4.19-2.8Q815,571.75,837,576.28h2.8Q866.64,514.87,908.15,514.87Zm-51.64,61.41,19.54,2.79q41.54,0,68.39-16.75v-1.4a41.77,41.77,0,0,0-30.7-12.56h-5.59Q874.66,548.36,856.51,576.28ZM883.9,438.45q17.1,2.79,33.5,20.94v2.79q-10.47,27.92-15.35,27.91-33.49-11.5-33.5-18.14Q868.55,459,883.9,438.45Z"/><path class="cls-1" d="M278.28,208.77q7.52,0,15,50.12L315.87,309l-10,57.64L313.37,507v22.56q-5,85.84-25.07,100.25l-2.5-2.5,2.5-37.6q0-50.75-32.58-323.31Q271.38,208.77,278.28,208.77Z"/></svg>