<svg id="Layer_1" data-name="Layer 1" xmlns="http://www.w3.org/2000/svg" xmlns:xlink="http://www.w3.org/1999/xlink" viewBox="0 0 1311 1920"><defs><style>.cls-1{fill:none;}.cls-2{fill:#fff;}.cls-3{clip-path:url(#clip-path);}.cls-4{fill:#b25b8d;}.cls-5{fill:#f5fbfd;}.cls-6{fill:#dfc5d2;}.cls-7{fill:#f4e1ed;}.cls-8{fill:#990a39;}.cls-9{fill:#f4e3ef;}</style><clipPath id="clip-path"><rect class="cls-1" width="1311" height="1920"/></clipPath></defs><rect class="cls-2" width="1311" height="1920"/><g class="cls-3"><path class="cls-4" d="M283.41,969c-1.4-36.46-4-72.82-9.79-108.9-3.67-22.78-1.23-45.18,4.41-67.37.64-2.54.81-5.19,1.21-7.78.41-.75.82-1.5,1.24-2.25.08-1.24.17-2.47.25-3.71q1.11-6.06,2.2-12.11c2.27-7.76,4.55-15.51,4.42-23.71,2.82-11.06,5-22.23,5.61-33.66,6-26.72,6.49-54.15,10.58-81.12l3-18a52,52,0,0,0,6.09-25.45c-.48-18.39,1.36-36.51,8.12-53.83,1.27-3.28,3.08-6.35,4.63-9.52l9.18-4.15A68.35,68.35,0,0,1,366,522c.68,3.51,3.15,5.54,6,7.24q8.1,18.75,16.18,37.51c.58,3.55,1.15,7.09,3.56,10-.15,10.71,4.7,20.4,6.26,30.81,3.41,22.72,2.58,45.37-.37,67.94-3.06,23.45-2.81,46.57,3.77,69.39,1.45,5-3,12.83,6.37,14.33,2.72,4.64,7.25,7.21,11.54,10.06,13.36,11.14,28.1,17.52,45.9,13.4,4.45.43,8.51-.45,12-3.48,15.26-3.19,26.89-13.52,40-20.81,16-8.89,32.42-17.49,45.6-30.71,16.52-11.6,31.36-25.14,45.4-39.59a92.29,92.29,0,0,0,24.13-23.77c10.61-8.14,16.72-20,25.12-30,14.12-17.22,29.9-33.08,41.9-52,9.76-15.42,24.68-26.33,36.12-40.32,1.24-1.51,2.92-2.63,3.18-4.76,10.89-9,20.37-19.23,27.69-31.37,12.66-7.4,18.08-20.64,25.84-32,10.2-7.72,16.79-18.78,25.63-27.75,12.63-12,24.51-25,42.56-29.06,21.54-4.85,39.3,5.9,41.6,26.25A39.34,39.34,0,0,1,894,472.09c-21.38,27.54-38.19,58.25-60.11,85.46-13,16.13-23.13,34.37-31.41,53.49-8.14,18.8-22.62,33-35.05,48.71-15.49,19.59-32.52,38-46,59.18-5,7.92-3.08,14.34,3.44,18.92,13.52,9.5,23.66,14.2,37.66-1.08,20.25-22.1,42.13-42.71,63.24-64,3.43-3.47,6.48-7.31,9.71-11,10.2-7.2,20.65-14.1,30.51-21.75,4.21-3.27,9.94-5.32,11.72-11.25,15.54-7.75,26.54-21.18,39.54-32,23.93-20,48.16-39.54,73.68-57.44,5.35-3.76,11.25-6.75,16.89-10.09l21.88-5.7,7.64.42c3.92,5.66,10.75,7.37,15.75,11.58,7.69,8.25,12.93,17.5,11.89,29.31l-3.9,11.78-17.91,19.68a26.75,26.75,0,0,0-14,13.76c-11.71,4.21-18,15-27.14,22.39-26.42,21.24-50.83,44.64-72.34,70.93-19.93,24.37-40.08,48.11-66.64,66.24-16,10.93-31.5,23.57-44.13,38.89-6.29,2.4-10.16,7.34-15.27,13.86,13.89.1,21.65-6.68,28.27-15.53,2.35-1.12,4.94-1.92,7-3.43C865.31,784,891.78,764.77,919,746.64c3.7-2.46,8-4.59,9.79-9.26a23.52,23.52,0,0,0,9.72-8.14c8.43-6.7,16.89-13.36,23.8-21.73,4.71-3.18,9.66-6.11,12.37-11.45,22.66-15.82,41.6-35.89,61.92-54.36,9.24-8.4,19.17-14.86,32.31-14.2l12,3c28.37,16.66,31.82,43.72,7.42,66.26-35.65,32.92-69.09,68-103.33,102.36-9.75,9.77-18.56,20.5-27.56,31-16.39,19.13-39.07,30-58.73,44.81-21.56,16.25-43.63,31.82-63.85,49.78-8.61,7.64-9.21,13.37-2.58,24.23,5.08,8.32,12.62,11,21.72,7.5,19.68-7.63,39.56-14.52,60.49-18,5.57-.92,10.43-3.42,15.21-6.65,11.72-7.93,23.65-15.62,35.95-22.6,14.25-8.09,26.63-18.07,36.31-31.32,3.44-2.56,7-5,8-9.62a240,240,0,0,1,51.94-39.46c3.29-.29,6.56-.65,9.4-2.58,12.92-1.68,21.48,5.43,29.1,14.44l1.32,11.66q-2.84,10.74-5.68,21.47c-4.59,1.76-4.85,6.51-6.91,10L1062.67,921c-4.1,2-6,5.85-7.79,9.74-19.58,17.59-43.15,30.24-61.26,49.65-5.16,2-8.43,6-11.52,10.32l-16,11.66c-3.78,1.08-7.53,2.2-9.79,5.82-8.62,1.79-16.9,4.38-23.8,10.18-3.76,1.13-8.1,1.13-10.38,5.23-5.23.71-10.11,2.2-13.78,6.33-3.56.39-6.89,1.31-9.46,4A12.68,12.68,0,0,0,891,1038l-6,1.2-1.91-.48c-2.27-3.23-6-4.67-8.89-7.31-13.3-12.27-27.17-24.74-44.6-30.06-10.77-3.29-16.25-9.78-21.34-18.25-4.06-6.76-7.89-13.7-12.53-20-9.11-12.43-15.73-27.07-28.1-36.65-11.81-9.14-25.55-16-29.86-32a3.75,3.75,0,0,0-1.2-1.54c-15.17-13.6-23.24-30.6-24.74-50.9-.63-8.58-5.35-13.75-14-15.25-8.94-1.54-16.5.73-21.6,8.32-3.26,4.85-5.5,10.38-8.19,15.61-.1-10.64-2.58-19.25-15.1-21.6-9.77-1.83-17.21,1.28-24.76,11.59-1.58,2.16-2.15,5.88-6.16,5.45-2.64.42-4.16-1.53-6-2.8-15-10.1-30.42-19.79-46.86-27.32-14.29-6.54-25.42-7.76-32.84,10.42-9.76-4.57-18.66-11.06-30-12.06-8.57-.76-15.34,1.95-18.5,9.82-3.34,8.34-2.81,16.4,5,23.07s14.59,13.91,21.84,20.92c-15.28-6-28.93-5.32-39,9.7C469,875.63,462.64,873,456,871.27c-8.32-2.2-16.91-3.51-24.58,2.13-14.87,10.93-13.69,30.16,2.48,40.08,12.86,7.88,26,15.2,37.69,25,19.3,16.14,39,31.81,61,44.21-21.95,1.15-43.78-1.41-65.66-2.18-10.8-.38-18.25,3.11-23.16,12.5C430,986.9,415.73,988.2,401.42,990c-4.3.55-6.54,3.51-8.78,7.09-10.89,17.39-2.18,33.15,15.35,40.15,15.48,6.18,32.38,4.4,48.32,8.61,24,6.33,49.35,7.26,72.41,17.65,2.37,1.07,7,.25,4.09,5s-5.45,10.87-9.86,13.34c-21.46,12-39.86,29.33-63.63,37.34-8.53,2.87-15.88,7.8-23.44,12.47-8.55,5.28-9.4,12.55-7.28,21.38,2.21,9.22,9,11.32,17,12,7.42.58,14.26-2.12,21.17-4.09,12.09-3.44,24.07-7.26,36.1-10.92,3.14-.94,6.33-1.73,9.4-2.84,20.76-7.49,43.4-8.39,63.49-18.18a13,13,0,0,0,10.74,4c22.18-1.9,43.73,5.22,65.79,4.21,6.69-.3,10.86,2,14.52,7.78,3.11,4.87,4.61,12.21,12.62,12.39-17.73,11.82-36.83,21.23-55.55,31.27-27,14.48-50.47,33.73-73.86,53.14-4.85.63-8.43,2.8-9.6,7.9-8.59,4.24-12.75,12-15.95,20.42-2,4.88-7.41,7.76-8.06,13.46-1,1.67-2.15,3.27-3,5-26.54,55.88-50.83,112.73-71.94,170.9-8.17,22.52-17.62,44.62-23.44,68-3.1,2.63-3.46,6.4-4.15,10l-27.51,79a30.4,30.4,0,0,0-4,12.15c-5.46,9.15-7,19.65-10.17,29.59l-5.91,15.87c-3.07,6.21-124.83,326.51-125.3,333.56-3.22,2.2-6.88,1.85-10.5,1.85q-153.22,0-306.44-.06c-21.82,0-37.63-11-41.94-29-.75-3.16,118-320.51,118-323.77-.06-40.2,0-80.41-.08-120.62a33.63,33.63,0,0,1,2.13-12.52c11.89-12.81,21-27.71,31.19-41.77q73-100.74,135.77-208.22c10.71-18.25,17.32-38.35,26.32-57.35,11-23.18,23.18-45.76,34.85-68.61,2.55-5,5-10,6-15.59,4.29-2.89,4.59-7.62,5.56-12,8.73-13,14.68-27.29,19.5-42.1,3.07-2.48,3.94-5.93,4.24-9.63,14.13-26,17-54.43,18.5-83.21C284.83,979.62,286.15,974.2,283.41,969Z"/><path class="cls-5" d="M936.61,1333.21c-1.1-7.39-8.29-9-13-10.57-12.74-4.4-22.08-13.61-33-20.53-12-7.64-23.5-16.13-35.22-24.24-11.65-13.93-28-22.39-40.62-35.21-5.11-5.21-7.7-3.62-10.41,2.46-4.15,9.28-13.82,14.07-22.18,12.05s-14.35-6.56-15.92-15.39c-1.84-10.39,1-19.45,10.77-24.19,6.05-2.94,4.46-4.63,1.16-8.14-10.08-10.73-19.51-22.12-31.8-30.54-5.66-13-16.26-22.31-24.76-33.12-3.17-4-3.16-9.8-7.95-12.51-3.54-6.2-7.55-10-16-10.29-22.59-.74-45.18-3.17-67.6-5.54-20.26-2.14-36.88,4.9-54.37,11.56-20.09,9.79-42.73,10.69-63.49,18.18-3.07,1.11-6.26,1.9-9.4,2.84-11.57.81-18.65-2.88-21.41-11.47-3.13-9.73,1.1-16.57,9-21.74,2.47-1.61,4.92-3.48,7.66-4.44,24.13-8.52,44.53-23.81,66.41-36.41a45.62,45.62,0,0,0,16.09-15.63c3.36-5.35,2.13-7.43-3.88-9.44-32.86-11-66.82-16.55-101-20.72-24.19-3-38.52-18.71-32-37.21,4.91-9.39,12.36-12.88,23.16-12.5,21.88.77,43.71,3.33,65.66,2.18,16.43,3.84,33.38,3,50,5.52,6.7,1,6-4.64,4.17-8.77-1.47-3.37-4.82-5.27-8-7a168.51,168.51,0,0,1-18.93-12.48c-21.88-16.27-42-34.86-65.9-48.46-7.18-4.09-13.89-8.85-18.48-16-.26-.61-.52-1.22-.77-1.83l-.84-3.94.6-6,1.11-5.82c10.06-15,23.71-15.66,39-9.7h0c.78.43,1.55.87,2.32,1.31,29.26,14,58.87,27.19,87.63,42.28-15.79-25.19-35.18-46.45-57.43-65.11-6.28-5.28-10.7-11.63-10.89-20.22,7.42-18.18,18.55-17,32.84-10.42,16.44,7.53,31.82,17.22,46.86,27.32,1.88,1.27,3.4,3.22,6,2.8,2.24,6.39,7.82,9.65,13,12.74a103.66,103.66,0,0,1,28.69,24.91c1,1.28,1.82,3.82,5.59,1.75-6.34-11.19-3.73-23-1.3-34.84,2.69-5.23,4.93-10.76,8.19-15.61,5.1-7.59,12.66-9.86,21.6-8.32,8.69,1.5,13.41,6.67,14,15.25,1.5,20.3,9.57,37.3,24.74,50.9a3.75,3.75,0,0,1,1.2,1.54c4.31,16,18,22.85,29.86,32,12.37,9.58,19,24.22,28.1,36.65,4.64,6.35,8.47,13.29,12.53,20,5.09,8.47,10.57,15,21.34,18.25,17.43,5.32,31.3,17.79,44.6,30.06,2.87,2.64,6.62,4.08,8.89,7.31l1.91.48,6-1.2c-1.7,6.48,3.58,8,7.44,10.67,13.76,9.44,25.48,22,42,27.22,3.45,2.88,7.57,3.84,11.9,4.18,9.21,5.8,17.78,13.22,29.87,11.58,2.54,5.47,7.54,3.67,11.82,4,3.12,3.84,7.43,4.13,11.89,4,3.81,1.76,7.32,4.42,11.87,4,8,5.68,17.84,7.3,26.66,11a181.4,181.4,0,0,1,47.73,29.65,8.75,8.75,0,0,0,2.73,1c.74,4.5,4.48,5.14,7.92,6.15,1.76,6.75,8.54,8.72,12.81,13,8.74,8.81,15.07,6.9,21-5.23,4.94-.13,9.2-1.65,12-6,24.34-10.63,49.71-14.54,76.31-14.3a166.82,166.82,0,0,0,52.1-7.92c3-1,5.41-3.55,8.09-5.39,6.77.41,11.42-5.42,17.83-6.07,8.48,8.55,10.94,17.83,4.31,28.8-1.18,2-.34,5.18-.34,7.82,0,56.1-2.92,112.41,1,168.24,2.92,42.14,1.54,84.08,2.89,126.08-20.56-8-22.77-11.87-17.06-32.93,1.37-5-1.42-4.72-4.31-5.24-11.95-2.16-23.93-4-36.13-3.71-5-3.45-10.89-2-16.29-2.85q-29.87-4.77-60.08-7.29c-17.48-1.47-34.68-6.1-52.13-8.42-14.56-1.94-28.5-7.48-43.4-7.2-2.13-2.68-5.27-1.76-8-2.23-.86-4.1-4.13-3.79-7-3.55-10,.82-19.64-1.26-29.07-4.14a90.28,90.28,0,0,0-31.09-3.94c-5.35-7.64-14.84-7.54-22-11.76l-25.87-15.81C951.06,1338.52,945.4,1331.71,936.61,1333.21Z"/><path class="cls-6" d="M3.67,877.91c.92-18.69,9.57-27.53,33.38-33.25-8.48-4.59-14.91-10.48-20.91-16.89-9.24-9.86-11-22.23-4.2-30.26,6.65-7.84,23-9.06,32.74-2.58,5.09,3.38,10.45,11.67,14.57,9.78,5.23-2.41,1.24-11.28,2-17.31,1.43-11.16,11.38-18.7,25-18.55,12.09.13,21.59,8.08,22.44,19.06a95,95,0,0,1,0,12.85c-.24,4.14-1,8.26-1.58,13.22,7.63-2,12.85-7,20.14-8.45,11.67-2.27,20.39,2.26,27.65,9.31,10,9.77,5.46,24.4-8.86,31-6.8,3.17-13.81,5.91-22.22,9.48,11.23,6.26,23.39,10.42,26.16,23,1.55,7,1.61,14.8-3.68,21.64-8.76,11.33-20.93,10.29-45.1-5.1-1.11,6-.06,11.82-2.2,17.44C94,925.72,75.36,936.24,64.2,928.91c-5.3-3.49-8.94-7.5-8.91-14.2,0-10.44-1-21,5.86-32.83C40,892.21,21.23,903.79,3.69,881.75,3.68,880.47,3.68,879.19,3.67,877.91Zm57.59-28.14c-.1,12.48,8.09,20.83,20.85,21.37,7.3.3,21.52-10.13,20.75-21.27C102.15,839.74,92.33,829,82.72,829,70.17,829,61.36,837.57,61.26,849.77Z"/><path class="cls-6" d="M1037.72,1693.67c-2.32-8.64-11.74-11-16-18.09-1.8-3-4.45.43-6.51,1.9-10.76,7.63-23.16,9.71-34.57,4.21s-17.53-16.52-16.31-30.09c.59-6.47-1.24-8.91-8.48-9.51-26.25-2.18-41.88-29.67-32.75-54.63,3.52-9.62,9.29-17.31,15.39-24.87,7.67-9.5,24-12.8,36-8.16,3.75,1.44,6.48,4,8.14-2.91,8.91-37.26,49.27-46.51,78.93-33.29,5.68,2.53,10.78,8,14.32,13.31,4.73,7.1,9.41,6,14.6,2,7.9-6.09,17.23-8.25,26.6-9.56,20.74-2.9,47.43,14.73,45.37,39.34-.86,10.21-6.73,17.34-13.67,23-6,4.85-6.77,8.51-3.23,14.8,14.27,25.33-6,46-25.9,48.59-.65.09-1.41.56-1.92.35-14.79-5.94-17.3,2.57-18.16,14.59-.64,8.93-6.56,15.55-13,21.38-2.46,2.24-5.3,4-5.61,7.7C1066.54,1695.55,1052.13,1697.09,1037.72,1693.67ZM994.06,1562c-1.17,7.2.92,14.24,4.86,21.06,5.43,9.41,16.19,15.25,25.41,13.23,10.35-2.26,19.13-12.53,18.61-23.79-.38-8.21-2.81-16.43-11.57-20.23-4.63-2-9.56-1.86-12.17,3s-2.9,10.23.79,14.86c4.09,5.12,6.71.22,9.71-1.79,2.08-1.39,4.52-1.95,6.41-.24,2.35,2.12,1.46,4.7,0,7.15-5.27,8.73-16.76,10.32-23.63,3.22-8.11-8.39-8.28-24.13-.35-32.4,6.92-7.22,22.18-6.58,30.6,1.44,16.34,15.56,13.21,37.55-.57,51-13,12.66-36,11.5-48.8-4.87a61.41,61.41,0,0,1-9.27-17.26c-4-11.19-19-16.74-29.52-11.32-11.15,5.77-18.83,14.83-21.2,27.07-2.45,12.6-2.1,25.15,9.72,34,9.15,6.86,18.85,8.51,29.39,3.34,2.84-1.39,5.92-1.58,8.21,1,2.58,2.94.33,5.27-1.27,7.87-8.18,13.33-6.63,23.8,4.83,32.83,7.51,5.91,15.43,3,22.18-.86,5-2.83,9.61-6.87,7.87-15a30.93,30.93,0,0,1,6-26.17c10.58-13.15,31.72-16.75,45.7-8.2,11.81,7.23,14.73,22.95,7.4,39.71-4.7,10.72-19.42,14.8-31.4,8.68-10.41-5.31-13.31-17.13-6.82-27.79,5.65-9.27,18.26-11.39,24.17-4.09,2.32,2.86,3,6.25,1.13,9.14-2.11,3.18-4.61.68-6.71-.82-2.55-1.83-4.92-1.54-7.15.5-3,2.69-6,5.12-3.14,10,3,5,7,7.24,12.36,5.37,6.06-2.12,11-5.53,11.57-13.14.75-9.25-1.85-16.2-10.76-19.93-16.07-6.74-33,5.9-32.28,24,.57,13.35,14.11,29.21,27.91,32.71s27.45-2.86,34.87-16.25c5.31-9.58,4.51-19.59,1.28-29.58-.84-2.59-1.92-5.1.5-7.29,2.65-2.4,4.93,0,7.21.93,2.73,1.14,5.22,3.09,8,3.78,8.6,2.09,17.23,4,25.33-2.1,8.77-6.63,11.11-15.79,8.63-25.55-2.38-9.36-9.67-16-18.43-19.43-13.06-5.09-26,4.13-24.74,16.56.45,4.62,3.3,6.81,6.92,8.82,3.23,1.81,5.69.28,8.23-1.28a4.37,4.37,0,0,0,2.38-4c-.16-2.67-2.16-3-4.21-3.07-3.6-.18-8.08.41-6.92-5.39.88-4.42,4.2-6.31,8.7-6.54,9.18-.48,16.77,7.91,14.38,16.8-2,7.42-7.23,13-14.69,14.52-8.49,1.76-16.22-.91-22.08-7.95-4.92-5.89-6.14-12.42-3.17-19.32,8.18-19,23-24.69,42.61-16.66,3.24,1.32,6,3.8,10,1.14,9-6,16.5-20.41,14.18-28.43-3.35-11.59-14.45-18.94-27.74-19.64-15.38-.82-27.23,5.4-37.68,16-6.71,6.81-11.89,5.57-14-3.23-3.15-12.9-11.11-20.17-23.8-23.31C1018.28,1517.32,989.74,1536.07,994.06,1562Z"/><path class="cls-6" d="M1310.5,764.63c-21.8.32-30.35-9.8-25.94-30.69,1.2-5.69,2.41-11.38,3.86-18.18-9,3.85-16.49,9-25.48,10.78-13.29,2.65-24-1.2-27.55-10.78-4.67-12.46,0-24.38,11.87-31,5.81-3.24,11.82-5.63,18.54-5.37.84-4.39-2.64-4.59-4.66-5.51-8.69-4-15.09-10.77-20.33-18.24-4.94-7.08-5.68-15.61-.42-23.07,6-8.5,17.08-11.06,27.31-6.92,6.42,2.6,12.59,5.75,17.21,11.25,1.17,1.39,2.78,3.52,4.85,1.88,1-.77,1.1-2.91,1.2-4.45.39-6.5-.51-12.95,2.48-19.37,3.58-7.7,8.88-11.84,17.23-12.28q0,25.7.07,51.37c0,4.3.48,8.39-5.47,9.93-8.89,2.29-13.41,8.65-14.3,17.81-1,9.94,3.88,17.28,12.34,20.22,7.16,2.48,7.6,6.36,7.51,12.27C1310.54,731,1310.58,747.84,1310.5,764.63Z"/><path class="cls-6" d="M1310.59,400.27c-14.61,4.46-27.13-4.64-27.51-19.73-.16-6.39,1.67-12.28,3.29-18.28.61-2.23,4-4.7.46-6.8-2.47-1.48-4.94.21-7.19,1.83-5.46,3.92-12,5.47-18.29,7.06-11,2.78-24.12-2.9-27.22-11-3.42-8.87,2.62-25,11.7-30.18,4.51-2.57,8.94-5.65,14.45-6,1.55-.08,3.65.27,4-1.9.39-2.42-1.68-3.35-3.45-4.15-8.41-3.78-13.66-11.22-19.91-17.43-6-6-4.42-14.05-2.36-20.45a16.42,16.42,0,0,1,13.61-11.45c10.74-1.26,20,2,28.5,8.42,2.94,2.21,4.94,8.06,9,5.76,3.29-1.85,1.16-7.31,1.22-11.13.24-14.52,6.14-22,19.8-24.73,0,16.47-.1,32.94.12,49.41.07,5.88-1.28,10-7.5,12.14-8.34,2.86-12.28,9.21-12.37,18.1-.1,9.31,4.22,16.06,12.54,19.32,6,2.34,7.58,5.63,7.41,11.73C1310.42,367.33,1310.65,383.81,1310.59,400.27Z"/><path class="cls-6" d="M1302.9,1119.48c-6.41.65-11.06,6.48-17.83,6.07-3.85-11.86-.15-23.1,3.76-34.8-5.34-.25-8.68,2.16-12.39,4.07-11.21,5.8-23.75,8.92-34.55,1.64-14.93-10.06-9.37-32.55,9.27-41.15,4.47-2.06,9.21-3.34,16.45-3.67-7.22-5.28-13.17-9.22-18.63-13.74-6.16-5.1-11-11.21-11.46-19.79-.8-15.7,10.67-24.69,26-20.36,12.06,3.41,12.06,3.41,28.22,18.82-.87-17.68-5.42-36.67,18.83-41.49.05,17.14,0,34.29.2,51.44.06,5-.81,8.26-6.41,10.5-8.27,3.31-14.05,9.19-13.55,19.58.48,10,5.39,16.05,14.37,19,4.29,1.4,5.62,3.89,5.56,8-.11,8.57-.33,17.16.07,25.71C1311.12,1115.37,1306.43,1116.8,1302.9,1119.48Z"/><path class="cls-6" d="M418.06,1527.45c.94.25,2.49.23,2.74.78,6.05,13.62,13.3,7,22.27,2.67,22.87-11.1,45.42-9.22,59.9,10,10.89,14.48,8.06,31.75-7,45.61-4.53,4.17-6.71,6.87-3.27,13.34,6.41,12,7.11,24.86-1.86,36.12-9.24,11.62-21.15,17.51-36.47,12.89-4.44-1.34-7.49,0-6.87,5.07,2.15,17.39-8,28.17-19.94,38.06-11.41,5.18-23.48,3.83-35.44,3.58-7.15-6.6-16.83-10.41-21.6-19.72-.54-1.05-2.79-1.24-4.25-1.82l5.91-15.87c.76,1.41,1.44,2.85,2.28,4.21,6.8,11.08,14,21.91,28.47,23.4,18.57,1.91,40-14,33.84-40.64-1-4.12-3.25-8.84.72-11.88,3.43-2.64,7.48.17,11.14,1.69,8.35,3.45,17,5.92,25.58,1.24,7.57-4.11,13.15-10,12.73-19.45-.52-11.59-7.37-19.55-16.54-25.13-9.61-5.85-19.4-3.26-26.3,5.52-4.83,6.13-2.92,15.3,3.88,18.49a7.14,7.14,0,0,0,9-1.77c1.68-1.83,4.76-3.26,3.26-6.47-1.6-3.41-4.36-1.65-6.86-1.07a4.16,4.16,0,0,1-4.95-2.31c-1.12-2.25.59-3.63,1.82-5.15,2.76-3.39,6.44-5.25,10.48-3.71,5.36,2,9.58,5.76,10.42,12,1.16,8.65-6.47,17.84-15.89,19.26-11.54,1.74-22.58-5.37-23.56-15.83-.88-9.35-.14-18.28,8.35-24.95,9.78-7.68,20.4-8.36,31.65-5.2,4.58,1.28,8.17,7.39,13.81,1.31,3.49-3.78,8.47-5.91,10.7-11.23,8.19-19.53-3.48-32.14-23.18-35-16.65-2.42-30.08,4.65-41.37,16.54-1.91,2-3.61,5.48-7.14,4.16-3.34-1.24-4.73-4.25-4.89-7.91-.19-4.44-1.57-8.4-5.73-10.81C414.6,1533.85,415,1530.08,418.06,1527.45Z"/><path class="cls-6" d="M1253.21,1408.54c12.2-.25,24.18,1.55,36.13,3.71,2.89.52,5.68.21,4.31,5.24-5.71,21.06-3.5,25,17.06,32.93q0,27.55,0,55.1c-7.76,3.28-14.92,2.29-20.65-3.94-7.57-8.24-8.79-18.07-5.35-28.44,1.51-4.53,3.81-8.8,4.34-15-9.51,4.22-17,9.36-26.09,11.17-13.21,2.66-24.43-1.09-27.84-10.08a25.76,25.76,0,0,1,12.47-31.78c4.86-2.53,12.64-3.17,14.48-6.93C1264.88,1414.69,1253.49,1414.83,1253.21,1408.54Z"/><path class="cls-7" d="M366.31,1674.07c1.46.58,3.71.77,4.25,1.82,4.77,9.31,14.45,13.12,21.6,19.72-10.55-3.3-21.74,3.67-32.15-2C360.48,1686.58,363.24,1680.28,366.31,1674.07Z"/><path class="cls-4" d="M378.23,436c-1.47-1.64-3.52-1.41-5.44-1.78-15.89-3.05-25.32-17.27-21.47-33,4.56-18.62,16.31-30.21,35.16-34.33,4.06-.89,8.14-1.66,13.51-2.76l-31.16-21.9a38,38,0,0,0-12-15.53l-1-7.24c.53-8.17-.23-16.58,4.45-24l3.93-4,13.9-5.88c24.08-2.31,40.94,10.77,56.59,27.1a142.26,142.26,0,0,1-1.27-25.61c1.07-20.09,16.61-34.85,36-34.28,18.07.54,32.45,16,33.47,35.06.63,11.58-1.86,22.68-3.78,34.56,11.42-11.4,24.63-16,40.31-15.36,11.92.53,20.95,6.78,30.49,12.43,9.49,14.7,8.66,28.12-4.88,40-.64.56-.69,1.78-1,2.7-14.46,6-28.51,13-46.15,16.92,15.2,4.54,26.87,10,36.37,19.79C566,411,565,425,561.6,439.52c-4.92,2.14-8.05,6.31-11.46,10.16-21,9.86-38.15,2.11-54-11.72-1.63-1.43-3-4.16-5.62-3.08-2.81,1.17-1.41,4.11-1.27,6.17.85,12.55-1,23.94-10,33.84-11.6,12.73-25.85,14.32-41.51,12-2.13-2.36-4-5-7.61-5.32q-2.25-4.89-4.49-9.76-1.25-6.06-2.48-12.12,1-10.69,2.12-21.4c1.6-4.25,3.24-8.49,4.79-12.76.74-2,2.6-4.29.53-6.3s-4.29-.15-6.16.91c-5.65,3.16-11.19,6.5-16.77,9.77l-19.34,5C384.75,433.53,381.6,435.78,378.23,436Zm84.89-35.16a29.35,29.35,0,0,0,29.69-29.05c.2-16-14.12-30.7-29.84-30.64-16.56.06-30.72,13.74-30.79,29.74C432.09,388.35,445,400.87,463.12,400.81Z"/><path class="cls-6" d="M1081.05,271.23c1.42,13.8-5.55,23.46-14.53,31.48-4.61,4.13-5.8,7-2.52,12.25,8.55,13.59,7,27.51-2.08,39.58-8.92,11.92-22.82,14-36.7,11.51-6.28-1.11-7.9.26-7.46,5.92,2.18,28.24-26.66,50.81-56.68,42.2-6.86-2-13.06-5.47-17-11.31-6.05-9-12.26-10.16-21.14-3.75-6.55,4.72-15,5.28-22.68,4.53-12.89-1.27-25.15-15.38-24.83-29,.22-9.43-1.86-12.88-11.92-15.14C834.81,353,823,326.37,834.15,299.24A68.83,68.83,0,0,1,850,276.05c10.81-10.63,24.56-13.65,38-7.37,4.75,2.23,6.19,3.25,7.23-3.22,3.33-20.82,16.7-33,36.33-38.54,20.93-5.87,40.06-3.18,57,12.12,4.11,3.72,3.1,13.15,11,11.5,5.2-1.08,9.63-5.51,14.64-8,20.52-10.08,43.12-9.14,58.75,8.05C1078.48,256.71,1082.65,263.1,1081.05,271.23ZM950.22,236c-31.92,0-47.22,17.38-43.4,49.4,1.82,15.22,15.81,27.43,29.66,25.88,14-1.58,21.87-13.72,19.88-30.81-1.13-9.7-8.85-15.61-18.71-14.82-5,.4-7.06,2.71-7,7.53,0,4-.21,7.89,3.44,10.79,4.07,3.23,6.54-.14,9.6-1.83,2.15-1.19,4.5-3.32,7.12-.71,1.86,1.86,1.87,4.19,1.17,6.47-2.31,7.47-15,12.11-21.66,8-9.93-6.16-14-21.74-8.44-32.2,5.26-9.88,18.64-13.09,30.21-7,10.5,5.56,15.75,14.63,16.14,26.38.49,14.36-3.67,27.34-16.79,34.32-19,10.09-44.24,3.46-53-20.87-2.45-6.85-4.72-13.38-12.17-17-11.78-5.8-18.92-3.66-29.26,5.52-9.67,8.59-15.65,19.28-15.54,32.77.18,22.41,18,35.58,39.5,29,3.71-1.14,7.76-3.63,11-.13a6,6,0,0,1-.48,8.21c-6.44,5.89-4.67,13.43-4.35,20.43.48,10.62,10.06,18.47,19.88,17.15,15.54-2.08,22.1-9.21,20-21.64a22.47,22.47,0,0,1,.5-9.77c5.85-21.8,21.36-31.67,43.85-27.75,16.13,2.81,25.73,16.41,22.3,33.73-2.85,14.38-12,25.24-28.66,23.51-10.88-1.13-18.37-8.31-18.58-17.92-.27-12.06,7.16-21.63,17.79-23.37,5.22-.85,8,2.27,10.6,5.74,1.87,2.54,2.39,6,.3,8.29-2.88,3.22-5.74.47-8.72-1-5.15-2.53-7.15,2.31-9,5.28-2.57,4.06-.34,7.69,3.35,10.05,7,4.52,13.18,2.39,18.3-3.33,4.55-5.08,4.41-20.82.12-25.13-8.68-8.73-31.8-6-37.82,4.47-9.36,16.28,5.86,47.53,24.51,50.73,28.46,4.87,47.9-20.7,39.87-42.92-1.29-3.58-3.86-8-.45-11.13,3.74-3.43,8-.47,11.88,1.34a27.87,27.87,0,0,0,4.47,2.1c19.65,5.39,38.18-2.66,35.78-24.66-.9-8.27-6.43-13.41-11.85-18.66-10.64-10.28-24.07-8.27-32.62,4-3.61,5.16-2.93,9,.49,13.23s7.85,4.41,12.49,2.33c2.35-1.05,5.56-2.07,4.89-5.32-.72-3.48-3.54-3.08-6.33-2a4.43,4.43,0,0,1-5.88-2.22c-1.56-2.91-.05-5.19,2.09-6.91,5-4,9.94-6.2,15.66-.55,7.26,7.17,7.06,18.53-.94,25-7.33,5.93-18.39,6.49-26.72,1.35-7.14-4.4-10.76-14.57-8.25-24.43,5.27-20.69,28.49-26.09,44.42-18.48,3,1.42,5.37,3.83,9,2.56,15.64-5.38,21-31.38,8.73-42.74-9.54-8.86-27.39-11.39-39.73-6a73.55,73.55,0,0,0-23.19,16.44c-5.15,5.28-10.54,3.87-11.45-2.77C985.87,246.71,970.94,234.67,950.22,236Z"/><path class="cls-4" d="M138.5,1077.93c-13.88,2-24.48-5.11-35.29-14.23-1,7,0,12.56-1.83,17.94-3.81,11-13.32,19-24.67,19.81a18,18,0,0,1-19.46-16.72,82.35,82.35,0,0,1,.43-15.78c.69-5.07,2.43-10,4.06-16.36-12.29,6.53-23.11,12.56-36.28,11.72-14-.9-22.12-11.58-18.13-25.16,4.3-14.64,15.29-21.34,31.29-23.75-6.54-5.26-11.71-9.51-17-13.62A32.64,32.64,0,0,1,11,986.66c-4.48-12.43,3.45-24.34,16.57-25.54,15.94-1.45,26.41,7.74,37.35,20.31-1.16-10.86-3-19.74.59-28.37,3.88-9.25,10.8-13.71,20.65-14.08,11.16-.43,19.51,4.71,23.63,14.31s1.55,19.25.84,29.29c33.65-12.52,51.43-5.4,51.83,19.94-8.38,14-23,18.09-39.4,23.18,9.05,4.52,16.65,6.46,22.85,11.06,8.3,11.12,12.53,22.51,2.26,34.83Zm-55.12-37.39c12.51.13,20.91-7.57,21.29-19.54.37-11.58-9.46-21.83-20.86-21.75a20.81,20.81,0,0,0-20.59,20.81C63.18,1032.42,71.05,1040.41,83.38,1040.54Z"/><path class="cls-6" d="M61.27,1195.58c0-7.24-.05-11.51,0-15.79.16-13.11,10.57-24.33,22.86-24.69,14-.4,23.55,8.13,24.57,22.66.5,7.13.72,14.35-1.75,23.24,9.71-4.49,17.73-9.47,27.65-8.46,8.62.87,15.53,3.49,21.37,10.29,6.53,7.6,5.2,14.18-.25,21.2-8.12,10.48-20.68,13-33,17.81,6.41,5.38,14.59,5.59,19.9,11.29,8.14,8.73,10.57,23.74,4.46,32.66-5.47,8-17,10.63-28.61,5.54-6.4-2.81-12.11-7.21-18.42-11.07.18,22.14-4.91,31-20.15,35.9-12.52,4-22.58-1.9-24.53-14.85-1.3-8.68-1.91-17.5,2.77-25.63.87-1.5,1.48-3.24-.07-4.46s-2.91.39-4.32,1.1c-7.29,3.71-14.69,6.78-23,7.88-9.83,1.3-18.71-.23-24.45-8.37-5.17-7.33-2.79-19.34,4.34-27.3,4.58-5.12,9.64-9.9,17.25-10.35,2.58-.15,5.83-.64,6.43-3.5s-2.94-2.92-4.64-4.23c-7.32-5.66-14-11.88-19.08-19.75-4.35-6.78-4.58-13.69.2-20.16,5-6.73,11.6-10.25,20.4-8.84C42.65,1179.52,51.85,1185.34,61.27,1195.58Zm0,40.55c-.07,11.31,9,21.58,19.37,21.87,11,.32,22.23-10.36,22.08-21-.16-11-9.82-20.51-20.8-20.5C69.24,1216.49,61.33,1224,61.25,1236.13Z"/><path class="cls-6" d="M117.15,546.68c-7.45.78-10.69-6.73-16.9-9.45,1.35,20.67-3.45,30.11-17.68,35.82-15.51,6.22-27.08-1.48-27.33-18-.13-8.81-.25-17.57,5.88-27.89-11.24,4.47-19.33,8.93-28,10.88-20.48,4.6-31.65-7.26-28.59-23.23,2.27-11.86,10.24-19.55,22-23,3.12-.93,6.3-1.67,11.24-3-10-6.64-19.23-11.79-25.38-21-4.7-7-6.34-14.11-3.22-21.32C12.35,439,18.82,436,27.5,435.85c14.59-.22,24.21,8.2,34.91,18.35-1.61-13.07-3.27-25,6.23-34.3a25.25,25.25,0,0,1,16.68-7.58c7.32-.41,12.76,3.1,17.3,8s6,11.34,6.37,18.19c.36,6.63-2.39,12.86-2.16,20.56,9-4.9,16.81-10,27-9.32,8.5.58,15.26,3.55,20.91,9.53,8,8.47,7.83,17.29-.87,24.89s-18.56,13-30.63,15.26a80.65,80.65,0,0,1,28,20.8c-.44,4.45-.87,8.91-1.29,13.27-2.23.53-3.13-1.1-4.43-2-7-4.56-13.79-8-22.61-3.65C113.81,532.44,117.52,540,117.15,546.68ZM61.26,494.56c0,12.81,7.46,20.63,19.79,20.7,11.7.07,21.84-9.74,21.66-20.94-.17-10.65-9.6-20.49-19.72-20.57C69,473.63,61.27,481,61.26,494.56Z"/><path class="cls-6" d="M564,362.23c.33-.92.38-2.14,1-2.7,13.54-11.92,14.37-25.34,4.88-40a5.47,5.47,0,0,0,1.91-.46c2.85-2,8.55-.17,9.06-4.09s-5.16-4.15-7.56-6.39c-8.19-7.6-18.87-13.33-20-26.62-.75-8.69,2.57-15.25,10.92-18.42,13.79-5.23,24.89.06,35.18,8.76,2.15,1.81,3.66,4.68,7.92,4.74-1.94-10.79-2.4-20.88,5.46-29.59,6.25-6.92,13.56-10.28,22.6-8.27,11.45,2.54,18.21,10.32,19.78,21.68,2.34,16.92,2,17,17.68,14.95,17.44-2.28,34.19,10.33,32.27,24.36-1.29,9.49-8.63,12.55-14.76,16.83-3.92,2.74-9.1,3.64-13.65,5.52-2,.82-5.12.57-5.12,3.71s3.12,2.95,5.1,3.73c16,6.23,21.8,18.23,20.24,29.83-2,14.73-18.27,20.76-28,17.57-5.56-1.83-10.6-5.24-15.85-8-2.15-1.12-3.43-5-6.42-3.16-2.44,1.54-1.16,4.87-1.22,7.4-.52,21.74-18.26,31.73-35.68,25.51-9.71-3.47-10.86-15.88-9.45-26.58.75-5.62,5.32-13,1.48-16.34-4.29-3.74-9.44,3.78-14.66,5.5C579.31,364.26,571.92,367.43,564,362.23Zm83.42-42.1c-.07-12.58-8.51-20.79-21.15-20.57-10.46.19-20.52,10.59-20.38,21.08a21.1,21.1,0,0,0,20.9,20.44C639.82,341,647.53,333.16,647.46,320.13Z"/><path class="cls-6" d="M1061.08,576.57l3.9-11.78c13.69,4.1,26-5.56,24.22-19-2.29-17.32,9.42-34.88,25.6-38,14-2.71,27.29-1.32,36.73,10.43,8.4,10.44,6.09,22.13.43,33.23-5.09,10-18,15.25-28.48,12-11.12-3.5-16-11.34-14.62-23.35,1.27-10.82,16.72-19.69,25.3-14.49a8.67,8.67,0,0,1,3.84,11.14c-1.74,4.4-4.64,1.17-7.18-.09-5.44-2.68-8.5-.2-10.52,5-2.5,6.43,1.09,9.35,6.26,11,6.49,2.11,15.18-2.75,17.5-9.39,3.46-9.92-.09-20.38-8.11-23.82-15.59-6.71-37.81,1.17-35.23,23.7,1.66,14.42,8.78,24.64,20.71,31.48,12.87,7.37,25,4.84,36.57-4.25,14.28-11.21,11.29-26,9.33-40.59-.36-2.7-1.49-5.16,1.12-7.13,2.36-1.79,4.35.17,6.4,1,4,1.57,7.8,4.17,11.89,4.67,7.92,1,16.19,3.6,23.61-2.47,8.65-7.08,11.78-16.54,8.62-26.52a32.09,32.09,0,0,0-21.81-21.22c-9.52-2.87-16.9,1.86-21.59,9.82-2.7,4.56-2.93,10.25,1,14.78,3.3,3.81,7.59,3.44,11.8,1.55,2.69-1.21,6.05-2.49,5-6.24-1-3.56-4.15-2.51-6.6-1.67s-4.54.84-5.88-1.72-.08-4.35,1.47-6.24c3.85-4.71,8.87-6.64,13.92-3.22,5.39,3.65,10.32,8.45,8.61,16.21-1.92,8.69-12.29,16.29-21.44,15.85-10.28-.5-19.65-8.66-21.16-17.78-2.89-17.51,16.63-36.34,35-32.57,6.54,1.34,11.39,7.37,18.21,5.89,14.48-3.14,21.56-27.28,12.93-39.16-11.63-16-37.82-13.33-51.32-5.34-5.78,3.42-10.09,8.41-14.92,12.87s-8.94,4.42-10.63-2.78c-3.69-15.81-13.68-25-29.29-28.3-16.53-3.55-31.41-.27-43.55,11.82-11.64,11.58-13.82,25.76-9.27,41.06,4.47,15,17.16,24.19,30.61,22.7,9.43-1,18.5-12.07,19.72-24,1.07-10.48-6.55-21.84-15.68-23.33-4.35-.7-7.82.32-9.61,4.85-2,5.18-2.92,10.23,1.54,14.64,3.55,3.52,6.5,1.55,9.33-1.24,2.33-2.29,5-3.68,7.72-.82s1.93,5.94-.23,9c-7.73,10.84-20.63,8.94-28-4.17-5.55-9.81-4.65-19.91,2.46-27.46,5.32-5.66,17.86-6.8,26-2.71,16.4,8.28,23.6,29.12,11.65,50.23-7.26,12.82-28.27,18.91-43.36,12.36-13.1-5.7-18.61-17-23.77-28.88-4.91-11.3-15.44-15.73-27.43-12.76-7.94,2-11.55,8.07-16.53,13.19-11.71,12-13.38,34.95-3.27,48.12,4.89,6.37,13,6.82,19.21,10.87l-21.88,5.7c-.1-5.21-4.42-8.1-7.15-11.47-16.59-20.46-4.72-54.45,9.72-67.05,12.33-10.75,25.51-14.25,40.84-7.73,4.46,1.91,5.54-.07,6.25-4.28,3.84-22.88,20-35.5,40.42-39.26,20.79-3.83,42.71-2.43,56,19.27,4.06,6.64,7.84,6.9,14.5,2.6,17.41-11.24,36.15-16.31,55.79-5.56,27.85,15.24,23.2,47.91,4.83,60.36-4.36,2.95-6.7,6.15-3.4,11.45,8.29,13.33,8.2,27.35-.67,39.67-8.44,11.73-21.62,15.88-36,13.69-6.53-1-9-.64-9.1,7.15-.14,17.07-14.26,35.74-28.87,40.06-17.92,5.3-37.25-.27-48.47-15.18-4.4-5.86-6.74-6.79-13.09-2.2C1081.33,576.57,1071.22,577.85,1061.08,576.57Z"/><path class="cls-6" d="M356.86,326.71a38,38,0,0,1,12,15.53c-1.82,2.3-4,4.43-5.43,6.95-9,15.42-22.7,20.55-39.5,16.81-6.83-1.53-7,1.25-7.22,6.31-.83,24.08-14.88,38.9-35.61,43-17.3,3.43-30.85-3.42-42-15.92-4.18-4.69-7.43-5.89-13.39-2.35-26.72,15.84-50.49,2.67-51.47-28.28-.15-5-.92-7.33-6.84-8.17-19.61-2.8-33.7-13.56-37.47-33.46-3.26-17.23,2.7-32.95,14.24-46.16s25.1-19.9,42.77-12c4.21,1.88,6.39.34,7.18-4.69,5-31.49,42.23-44.71,67.34-38.6,14.27,3.47,25.54,9.84,32.68,22.72,3,5.5,6.1,1.95,8.8.21,11.81-7.61,24.12-13.67,38.67-12.45,24.09,2,46.18,22.78,36.52,49.43l-13.9,5.88c1.3-4.06,2.22-8.3,4-12.16,3.94-8.65.49-15.55-5.16-21.49a31.94,31.94,0,0,0-21.86-10c-16.86-1.11-29.69,6.42-41,17.7-2.66,2.65-5.32,5.18-9.46,3.72-3.47-1.24-3.23-4.41-3.76-7.37-1.45-8.19-6.05-14.5-12.73-19.28-26.78-19.16-66.73-2.26-69.84,30.36-1.44,15.06,3.8,30.31,20.5,36.95,11.07,4.4,25.29-1.69,29.49-12.65,4.93-12.84-.93-28.75-12.07-32.79-4.81-1.75-8.19-.09-10.72,4.23-2.76,4.72-3.12,9.38.14,13.83,3.12,4.27,6.46,3,10.15.23,2.42-1.84,5.73-4.61,8.5-.53,2.14,3.14.88,6.23-1.59,8.95-4.57,5-10.47,8.17-16.77,5.82-8.28-3.1-12.95-10.65-13.9-19.07s1.69-16.92,9.21-21.52a22.16,22.16,0,0,1,23.44.06c12.48,7.46,17.24,18.89,16.57,33.37-1.1,23.74-24.9,36.63-42.88,31.51-16.25-4.62-23.95-16.05-29.7-30.33-6.17-15.33-19.59-19.61-33.5-10.74-10.83,6.89-17.31,17.45-20.18,29.4-2.7,11.24-.91,23,8.44,30.95,9.06,7.68,19.85,11.94,32,5.75,4-2,7.71-1.91,10.62,1.86,3.52,4.56-1.33,6.27-3.29,8.86-5.85,7.74-5.74,15.71-1.22,23.95,4.24,7.74,9.58,13.12,19.58,11.55,11.86-1.85,20.85-9.67,19.56-17.84-4-25.17,10-41.43,35.44-41.75,12.56-.16,23,3.6,28.35,15.35,5.71,12.47,3.08,24.47-5.42,35.06-5.43,6.77-17.48,9.25-26.32,5.8-10-3.9-13.89-10.15-13.31-21.56.52-10.17,7.61-14.61,16-17.68,7.4-2.72,11.46,1.7,13.39,7.78,1.29,4,.44,9.08-5.83,5.7-5.18-2.8-8.56-1.78-11.76,2.57-2.23,3-2.66,6.23-.16,9,3.4,3.8,7.19,6.3,13,4.39,10.44-3.43,16.63-20.09,9.71-28.42-5.38-6.47-13-9.42-21.29-7.72s-16.69,4.3-19.51,14.3c-4.37,15.48,1.48,27.06,12.2,38,10.44,10.68,22.45,10.88,34.54,6.42,11.19-4.13,19.07-13.16,20.53-25.46.78-6.65-.42-13.83-2.14-20.4-2.46-9.4,3.07-7.64,8-6.37,4.11,1.05,7.9,3.27,12,4.6,11.4,3.75,22.49-.14,29.34-9.59C357.45,339.23,355.68,332.75,356.86,326.71Z"/><path class="cls-6" d="M1054.88,930.74c1.8-3.89,3.69-7.7,7.8-9.74,6.17,5,12,.76,17-1.65,12.46-6,14.31-14.51,9.39-35.55,2.06-3.5,2.32-8.25,6.92-10,8.91-7,18.3-12.47,30.27-11.85,18.37.95,33.13,13.39,29.89,32.28-3.06,17.85-10.84,27.33-30.77,25.18-10.23-1.1-17.38-9.95-16.58-20.57.86-11.48,8.63-19.42,18.58-19,3.79.14,7.19,1.07,9.32,4.53,1.82,2.95,2.9,6.12.47,9.18s-4.53.56-6.76-.7c-3.23-1.83-6.54-1.75-8.77,1.48-2,2.94-4.13,6.11-1.2,9.9,4.22,5.46,9.84,7.32,15.66,4.09,7.46-4.15,8.65-11.6,8.57-19.72-.07-7-3.4-11.48-9.15-13.89-17.68-7.38-35.36,4.21-35.09,22.6.19,12.63,6.78,20.38,14.4,27.8,15.33,14.92,38.06,11.7,49.82-6.41,6.52-10,3.62-20.89,2.31-31.53-.37-2.94-1.79-6.2.83-8.33s5.57-.15,8.34.93A147.75,147.75,0,0,0,1191,885c9.67,2.61,19.26-1.46,25-9.52,10.52-14.71-.8-36.81-18.25-41.06-11.84-2.89-19.34,1.5-24.28,11.66-2.67,5.48-.52,9.81,3.57,13s9,4.43,13.19-.4c1.47-1.66,3.94-3,2.81-5.76s-3.38-2.46-5.84-1.65-5.48,1.68-6.65-1.8c-1.25-3.74.93-6.45,3.9-8.25,7.24-4.38,18.61,1.62,19.42,10.12a18.76,18.76,0,0,1-16.81,20.45c-12.73,1.22-23.68-6.29-24.78-17-2.34-22.92,20.23-38.66,42.8-29.83,3.59,1.4,6.79,4.31,11.14,2.79,14.16-5,20.82-24.12,12.82-36.89-7.32-11.67-24.4-17.2-39.39-13-10.86,3-19.2,9.85-27.12,17.39-5.15,4.9-10.18,4.83-11.65-2.52-5.19-25.84-27.69-30.15-47.25-27.54-23.35,3.12-38.09,21.35-36.24,43.72.48,5.81,2.51,11.49,3.83,17.23-2.84,1.93-6.11,2.29-9.41,2.58-6.24-18.66-12.4-23-29.69-22.39-9.41.34-13.18,8-18.42,13.29-12,12.24-13.45,35.08-3.82,48.56-1,4.57-4.52,7.06-8,9.62-6.88-12.19-10-24.71-8.33-39.2,2.29-19.7,20.93-41.16,40.77-43.82a14,14,0,0,1,4.91.11c5.66,1.36,11.26,2.94,16.89,4.44a104.94,104.94,0,0,1,5.57-16.43c9.47-22.27,39.35-32.61,59.38-28.88,16.39,3.06,30,9.61,37.2,25.65,1.56,3.48,3.34,2.43,5.2.64,12-11.48,26.41-14.48,42.49-13.64,16.36.85,28.25,8.34,35.26,22.68,6.35,13,2.9,28.12-9.51,39.3-7.63,6.86-7.67,12.63-3.44,21.17,10.41,21-4.78,45.27-28.22,45.71-6.2.12-13.72-2.82-18.26-.22s-.56,11.08-2.31,16.75c-5.42,17.5-17,28.93-34.91,32.42-16.76,3.28-31.66-2.33-42.22-15.55-4.9-6.15-8.16-5.43-13.82-2.57C1078,931.82,1067.05,936.66,1054.88,930.74Z"/><path class="cls-6" d="M282.93,766.83q-1.1,6.06-2.2,12.11c-18.29.79-33.55-5.18-44.28-20.5-3.06-4.38-5.3-3.23-8.75-.63-10.84,8.2-23.48,12.57-35.88,6.32-12.6-6.36-17.94-18.83-17.61-33.09.11-5.19-1.22-7.19-7-8-25.56-3.46-43.12-24-36.89-51.73,3.05-13.55,9.12-25,19.91-34.25,10.61-9.08,22-11.43,34.72-6.38,5.46,2.16,8.08,1.95,9.54-4.77,6.89-31.84,43.91-46.1,70.51-36.61,12.14,4.32,22.74,9.24,28.8,21.77,3.53,7.28,8.35-1.6,12.75-.79q-1.51,9-3,18c-2.91-.32-4.8,1.78-7.16,2.83-4.81,2.15-8.5,1-9.27-4.85-1.73-13.21-9.28-20.64-21.72-25.2-7.89-2.89-15.51-2.41-23.31-2.56-15.9-.32-29,10.07-34.36,23.41-7.21,17.81-3.49,37.43,10.4,47.19,7.81,5.48,16.5,6.76,25.19,2.59,9.33-4.49,14-17,12-30-1.41-8.88-7.84-12.17-15.53-14.55-4.43-1.37-7.59,0-9,3.62-2.44,6.11-2.26,12.68,2.75,17.47,3.57,3.4,5.68-1.29,8-3.2,2.72-2.29,5.43-4.43,8.45-1,2.55,3,1.85,6.22-.71,8.91-3.13,3.28-6,6.44-11.32,7C227.3,661.34,223,654.94,219.74,647c-4.15-10.16-2.08-21.1,5.06-26.07,16.56-11.53,32.43-2.52,39.89,13.94,8.41,18.58-1.79,41.23-19.31,47.85-19,7.17-38.71-1.69-46.61-21.17-11.18-27.61-32.05-30-49.62-7.34-8.31,10.7-12.1,31.53-5.47,41,8.54,12.18,18.39,20.65,38,14.46,3.41-1.08,7.57-3.5,10.63,1.27s-1.73,6.27-3.66,8.87c-6.94,9.34-4.29,24.75,5.71,32.62,6.66,5.24,23.92,2.38,29.81-5.07,2.28-2.88,4.09-6.13,3.13-10-3.69-15.09.83-27.58,13.38-36.13,13.18-9,27.11-7.42,41.13-.5,4.58,2.26,5.13,9,11.19,8.81-.57,11.43-2.79,22.6-5.61,33.66-5.94,8.44-14.39,11-24.13,9.83-11.84-1.44-19.22-11.2-17.77-23a19.21,19.21,0,0,1,21-16.57c4.95.51,8.11,2.87,8.59,7.84.42,4.41-1.09,8.11-6,4.47-5.47-4-8.37-.95-11.62,2.61-3.63,4-1.34,7.7,1.21,10.59,3.49,3.94,8.39,5.58,13.48,3.44,9.06-3.8,13.52-21.5,7.47-29.2-5.78-7.36-14.16-8.36-22.36-7-8.7,1.41-16.43,5.54-19.19,15-3.16,10.84,4.39,30,12.56,37.75C260.21,767.94,271.43,767.13,282.93,766.83Z"/><path class="cls-6" d="M550.14,449.68c3.41-3.85,6.54-8,11.46-10.16,6.35,11.08.9,20.21-5.16,29-2.41,3.47-5.91,6.19-9,9.19C544.21,480.87,544,484,546,488.3c13.76,29.9-4,55.48-36.66,52.5-6.18-.57-7.92-.43-8.88,6.55-3.33,24.31-14.08,38.31-39.22,42-14.8,2.14-28.29-3.08-37.95-15.41-4-5.14-7-8.59-13.95-2.63-4.38,3.76-11.19,5.33-17.6,5.47-2.42-2.89-3-6.43-3.57-10,20.92-5.81,21.9-6.6,21.51-28.44-.45-25.84,30.14-37.8,50.63-28.52,14.69,6.65,18.72,21.11,12.95,37.92-3.71,10.81-12.67,17.2-24,17.09-9.77-.09-20.54-8.68-21.57-17.2-1.1-9.1,8.06-21.83,17.29-23.9,5.08-1.13,9,1.23,12.3,4.71a6.34,6.34,0,0,1,.9,8.2c-2,3.17-4.35,1.63-6.68,0-3.09-2.19-6.15-1.81-9,.62-3.22,2.7-3.69,6.28-2.57,9.9a8.07,8.07,0,0,0,7.27,5.82c6.38.72,11.17-.74,14.91-6.9,4.33-7.14,4.33-13.74.18-20.35-5.6-8.92-15.06-10.66-29.1-6-8.08,2.68-13.88,12.06-13.41,22.08.27,6.07,2.94,11.41,5.63,16.71,8.58,16.9,27,24.45,44,18,15.07-5.76,23.18-24.63,18.28-42.15-1-3.61-4.17-7.95-.21-11s7.72.84,11.42,2.59c9,4.26,18.71,5.53,27.72,1.73,13.81-5.84,16.69-17,10-33-4.79-11.41-21.34-20-31.74-16.47S489.92,495.76,496.7,503c3.37,3.59,7.17,2.85,10.9,1.72,2.52-.77,5-2.83,4.71-5.73-.47-5.25-4.95-2.8-7.78-3.42-5.71-1.25-6.37-3.8-2.48-8.08,4.3-4.74,9.12-4.77,14.28-1.95,6.12,3.34,9.17,8.58,8,15.54-1.37,8.38-13.42,16.15-23.73,15.69-7.85-.35-18.94-11-19.4-18.71-1.27-21.11,24.42-39,43-28.58,9.74,5.46,15,2.3,19.75-4.55C547,460.54,555.71,457.71,550.14,449.68Z"/><path class="cls-6" d="M766.28,505.77c-7.32,12.14-16.8,22.38-27.69,31.37-5.48-.18-10.68,3.85-16.39.74-6-3.3-12.71-5.55-13.44-14.15-1.06-12.45,3.71-21.53,14-28.36,5.22-3.46,12.16-2.65,17.75-7.82A70.93,70.93,0,0,1,720,472.12c-7.8-8.32-10.51-21.69-5.45-28.65,4.33-6,18.21-11.81,30.52-5.53,4,2.05,8.38,3.5,11.63,7.18,2.7,3.06,5.1,6.87,10.24,8.33-.25-5.74-.71-11.08-.69-16.42.06-13.64,10-24.08,23-24.65,14-.61,23.41,11,24.62,23.06.37,3.71-2.74,9.07,3.89,10.6-8.84,9-15.43,20-25.63,27.75-2.29,0-4.58-.06-6.87,0-15.17.2-23.31,10.49-20.07,25.3C765.67,501.27,765.92,503.53,766.28,505.77Z"/><path class="cls-6" d="M657.39,634.26c-8.4,10-14.51,21.91-25.13,30-8.23-5.86-15.33-1.29-20.86,3.84s-8.64,12.25-3.26,19.93c-14,14.45-28.88,28-45.4,39.59-10.83-6-14.7-15.14-12.16-27,2.2-10.37,13.76-18.62,30.88-22-3.05-5.67-9-7.37-13.34-10.81-9.12-7.18-16.75-15.45-14.45-28,2.65-14.52,16.5-20.31,31.57-13.88a56.85,56.85,0,0,1,15.64,10.18c1.6,1.45,3.07,4.38,5.61,2.79,2.26-1.4.94-4.08.54-6.33-2.77-15.5,5.56-27.51,21-30.53,10.73-2.08,22.9,5.82,25.3,16.33C654.58,623.71,654.21,629.44,657.39,634.26Z"/><path class="cls-4" d="M117.15,546.68c.37-6.7-3.34-14.24,5.78-18.77,8.82-4.39,15.63-.91,22.61,3.65,1.3.85,2.2,2.48,4.43,2,.42-4.36.85-8.82,1.29-13.27,5.53-7.22,12.28-11.19,21.35-6.88,11,5.22,9.84,14.91,7.91,25.75,9.3-3.78,18-5.86,26.63-.79,3,1.74,5.31,4.41,5.85,7.66,2.59,15.56-12.17,15.19-20.35,21,14.87,9.71,18.93,18.47,13,27.5-5.13,7.87-13.79,7.64-28.83-1.26-1.13,7.57-2.75,14.85-9.52,19.23A14.12,14.12,0,0,1,155,614.16c-14.52-5.23-6.4-17.49-7.55-27.08-11.18,1.86-23.82,12.71-32-3.32-4.64-9.11,2.79-17.9,18.69-24Zm46.43,30c7.67.11,12.78-5,12.81-12.89s-5-12.92-12.75-13c-7.58,0-13.06,5.33-13.1,12.86C150.5,571,156,576.55,163.58,576.66Z"/><path class="cls-6" d="M145.88,1036.76c-6.2-4.6-13.8-6.54-22.85-11.06,16.36-5.09,31-9.23,39.4-23.18,8.78-2.61,17.36-3.22,25.58,2,4,2.55,5.79,1.15,6-3.56,1.3-26.07,32.94-43.07,58.84-40.62,11.14,1,20.66,4.67,30.52,8.61,2.75,5.25,1.43,10.67.69,16.07-7.9-5.8-15.52-11.7-25.73-13.62-18.23-3.43-39.67,4.58-48.48,19.06-9.58,15.75-7.72,32.8,5.25,48.25,7.74,9.22,25.2,10.38,33.59,2.22,8.55-8.32,9.4-28.93,1.12-36.32a16.6,16.6,0,0,0-12.88-3.89c-4.05.4-6.54,3-7.19,7-.77,4.76,0,9.36,3.49,12.88,2.9,2.94,5.56.15,7.9-1.3,3.13-1.94,6.71-5.06,9.37-1,2.42,3.7-.28,7.46-3.6,10.18-5.81,4.77-12.05,6.71-19,2.7-6-3.43-11.68-17.21-9.82-24.51,2.21-8.64,6.57-16.14,16.19-17.8,10.86-1.87,26.16,6.45,30.11,16.89,5,13.29,4.64,27-4.5,38.36s-21.41,17.07-36.81,12.2c-12.95-4.1-20.81-13-25.81-25.08-1.6-3.86-2.27-8-5.8-11.17C174.66,1004.89,151.25,1013.33,145.88,1036.76Z"/><path class="cls-6" d="M1017.74,1103.6c-4.55.46-8.06-2.2-11.87-4,.8-5.05-5.46-11.26-.14-14.67,4.24-2.72,9.75,2,14.56,4,6.86,2.76,13.92,4.2,21.17,1.72,10.23-3.5,15.78-11.05,15.92-21.24.16-11.82-7.12-23.31-17.27-27.3-13.6-5.33-25.25-.63-29.08,11.22-1.74,5.37,0,9.06,3.91,12s8.45,3.29,12.91.48c2.43-1.54,4.27-3.36,3.13-6.41-1-2.56-2.92-3.19-5.61-2.27s-6.23,2.11-7.25-2.1,1.76-6.9,5.32-8.41c6.32-2.68,15.81.82,17.35,7,1.49,6,2,12.07-3.27,17.47-6.9,7.07-14.88,8.51-23.49,5.52-6.41-2.22-13.3-5.07-14-13.54-1.07-12.63,2.13-23.23,13.87-30.21,11.37-6.76,22.4-6,33.46.34,1.65.94,2.73,2.76,5.13,2.19,11-2.62,21.52-23.59,17.08-34.16-6-14.23-25.85-22.44-40.78-17.12-10.63,3.79-20.4,8.62-28.49,16.86-6,6.08-9.71,4.78-12.33-3.4-1-3.16-1.63-6.54-5.85-6.94,3.09-4.28,6.36-8.35,11.52-10.32,1.52,7,3.08,9.56,10.51,3.57,19-15.33,53.74-18.48,72.78,7.57,7.68,10.51,5.89,30-6.51,42-8.07,7.76-8.59,13.57-4.12,23.29,10,21.72-6,44.89-30.1,44.85-4.88,0-9.84.79-14.65-1C1018.93,1099.6,1018.05,1101.38,1017.74,1103.6Z"/><path class="cls-6" d="M138.5,1077.93l9.64-6.33c2.53,8.39,8.57,11.93,16.94,12.22,6.58.23,13.19.39,19.36-2.41,3.2-1.45,5.58-.91,7.79,1.79,2.37,2.9.49,5-1.29,6.84-6.14,6.51-5.65,14.62-4.72,22.34,1,8.19,6.49,13.58,14.65,14.88,10.56,1.67,24.42-4.81,26.29-11.67a10,10,0,0,0-.12-4.85c-5.45-21.9,12.29-46.06,38.54-42.51-.3,3.7-1.17,7.15-4.24,9.63-25.92.47-30.27,28-19.5,42.1-1,4.42-1.27,9.15-5.56,12-1.27-4.74-3.51-4.45-7-1.75a43.27,43.27,0,0,1-21.52,8.8c-18.64,2.28-30.73-9.12-33.42-31.24-.89-7.32,0-12.28-10.55-12.79S143.05,1089.39,138.5,1077.93Z"/><path class="cls-6" d="M378.23,436c3.37-.19,6.52-2.44,10-1.07-1.11,10.7-2.49,21.13,2.73,31.61,8.05,16.14,23.06,25.11,39.08,15.05,3.57.28,5.48,3,7.61,5.32-.72,2.38-2.47,3.7-4.53,4.92-16.05,9.51-40.49,1.93-49.85-15.68-2-3.74-3.21-7.88-5-11.74-6-12.84-21.8-19-32.91-11.46-19.52,13.2-33.05,42.61-10.85,64.43l-9.18,4.15c-12.55-9.21-17.71-31.13-10.28-47.38,4-8.79,8.58-17.31,16.19-24.17,10.86-9.8,22.76-12.65,36.23-8.18C374,443.91,377.46,443.12,378.23,436Z"/><path class="cls-6" d="M419.31,769.27c-4.29-2.85-8.82-5.42-11.54-10.06,22.91-14.34,61.42-2,69.39,20-3.44,3-7.5,3.92-12,3.49-6.21-13.9-30.6-23.21-44.06-16.68C420.23,766.44,419.91,768.15,419.31,769.27Z"/><path class="cls-6" d="M1080.91,630.49l-12-3c.1-2.17-1.34-3.5-2.53-5.08-9.58-12.69-23.49-12.22-37.21-12.42a26.75,26.75,0,0,1,14-13.76c4,6.25,11.55,5,17.12,8.07C1071,610.19,1080,617,1080.91,630.49Z"/><path class="cls-6" d="M1148.57,1153.16c-2.81,4.39-7.07,5.91-12,6-.16-2.76-1.89-3.5-4.35-4.21-9.64-2.78-19.31-4.87-29.43-3.58-3.44-1-7.18-1.65-7.92-6.15.47-2,1.32-3.71,3.74-3.86C1116.44,1140.28,1134,1140.2,1148.57,1153.16Z"/><path class="cls-6" d="M877.71,628.76c-1.78,5.93-7.51,8-11.72,11.25-9.86,7.65-20.31,14.55-30.51,21.75C839.51,641.48,857.58,627.37,877.71,628.76Z"/><path class="cls-6" d="M280.48,782.65c-.42.75-.83,1.5-1.24,2.25C279.65,784.15,280.06,783.4,280.48,782.65Z"/><path class="cls-7" d="M1029.7,523.48c-6.16-4.05-14.32-4.5-19.21-10.87-10.11-13.17-8.44-36.09,3.27-48.12,5-5.12,8.59-11.22,16.53-13.19,12-3,22.52,1.46,27.43,12.76,5.16,11.86,10.67,23.18,23.77,28.88,15.09,6.55,36.1.46,43.36-12.36,12-21.11,4.75-41.95-11.65-50.23-8.09-4.09-20.63-3-26,2.71-7.11,7.55-8,17.65-2.46,27.46,7.41,13.11,20.31,15,28,4.17,2.16-3,2.9-6.11.23-9s-5.39-1.47-7.72.82c-2.83,2.79-5.78,4.76-9.33,1.24-4.46-4.41-3.58-9.46-1.54-14.64,1.79-4.53,5.26-5.55,9.61-4.85,9.13,1.49,16.75,12.85,15.68,23.33-1.22,11.89-10.29,22.92-19.72,24-13.45,1.49-26.14-7.68-30.61-22.7-4.55-15.3-2.37-29.48,9.27-41.06,12.14-12.09,27-15.37,43.55-11.82,15.61,3.34,25.6,12.49,29.29,28.3,1.69,7.2,5.8,7.24,10.63,2.78s9.14-9.45,14.92-12.87c13.5-8,39.69-10.67,51.32,5.34,8.63,11.88,1.55,36-12.93,39.16-6.82,1.48-11.67-4.55-18.21-5.89-18.34-3.77-37.86,15.06-35,32.57,1.51,9.12,10.88,17.28,21.16,17.78,9.15.44,19.52-7.16,21.44-15.85,1.71-7.76-3.22-12.56-8.61-16.21-5-3.42-10.07-1.49-13.92,3.22-1.55,1.89-2.75,3.79-1.47,6.24s3.37,2.59,5.88,1.72,5.62-1.89,6.6,1.67c1,3.75-2.32,5-5,6.24-4.21,1.89-8.5,2.26-11.8-1.55-3.93-4.53-3.7-10.22-1-14.78,4.69-8,12.07-12.69,21.59-9.82A32.09,32.09,0,0,1,1219,499.28c3.16,10,0,19.44-8.62,26.52-7.42,6.07-15.69,3.43-23.61,2.47-4.09-.5-7.92-3.1-11.89-4.67-2-.82-4-2.78-6.4-1-2.61,2-1.48,4.43-1.12,7.13,2,14.62,5,29.38-9.33,40.59-11.57,9.09-23.7,11.62-36.57,4.25-11.93-6.84-19-17.06-20.71-31.48-2.58-22.53,19.64-30.41,35.23-23.7,8,3.44,11.57,13.9,8.11,23.82-2.32,6.64-11,11.5-17.5,9.39-5.17-1.69-8.76-4.61-6.26-11,2-5.17,5.08-7.65,10.52-5,2.54,1.26,5.44,4.49,7.18.09a8.67,8.67,0,0,0-3.84-11.14c-8.58-5.2-24,3.67-25.3,14.49-1.4,12,3.5,19.85,14.62,23.35,10.47,3.29,23.39-2,28.48-12,5.66-11.1,8-22.79-.43-33.23-9.44-11.75-22.78-13.14-36.73-10.43-16.18,3.14-27.89,20.7-25.6,38,1.78,13.44-10.53,23.1-24.22,19,1-11.81-4.2-21.06-11.89-29.31.39-1.9.31-4.07,1.25-5.63,1.88-3.12,4.23-5.74,1-9.51s-6.41-2-9.48-.21c-2.72,1.62-6.78.1-8.55,3.77Z"/><path class="cls-7" d="M1071.26,826.22c-1.32-5.74-3.35-11.42-3.83-17.23-1.85-22.37,12.89-40.6,36.24-43.72,19.56-2.61,42.06,1.7,47.25,27.54,1.47,7.35,6.5,7.42,11.65,2.52,7.92-7.54,16.26-14.34,27.12-17.39,15-4.21,32.07,1.32,39.39,13,8,12.77,1.34,31.93-12.82,36.89-4.35,1.52-7.55-1.39-11.14-2.79-22.57-8.83-45.14,6.91-42.8,29.83,1.1,10.7,12,18.21,24.78,17a18.76,18.76,0,0,0,16.81-20.45c-.81-8.5-12.18-14.5-19.42-10.12-3,1.8-5.15,4.51-3.9,8.25,1.17,3.48,4.17,2.62,6.65,1.8s4.69-1.1,5.84,1.65-1.34,4.1-2.81,5.76c-4.24,4.83-9,3.7-13.19.4s-6.24-7.56-3.57-13c4.94-10.16,12.44-14.55,24.28-11.66,17.45,4.25,28.77,26.35,18.25,41.06-5.76,8.06-15.35,12.13-25,9.52a147.75,147.75,0,0,1-14.87-5.29c-2.77-1.08-5.7-3.09-8.34-.93s-1.2,5.39-.83,8.33c1.31,10.64,4.21,21.48-2.31,31.53-11.76,18.11-34.49,21.33-49.82,6.41-7.62-7.42-14.21-15.17-14.4-27.8-.27-18.39,17.41-30,35.09-22.6,5.75,2.41,9.08,6.87,9.15,13.89.08,8.12-1.11,15.57-8.57,19.72-5.82,3.23-11.44,1.37-15.66-4.09-2.93-3.79-.84-7,1.2-9.9,2.23-3.23,5.54-3.31,8.77-1.48,2.23,1.26,4.31,3.8,6.76.7s1.35-6.23-.47-9.18c-2.13-3.46-5.53-4.39-9.32-4.53-10-.39-17.72,7.55-18.58,19-.8,10.62,6.35,19.47,16.58,20.57,19.93,2.15,27.71-7.33,30.77-25.18,3.24-18.89-11.52-31.33-29.89-32.28-12-.62-21.36,4.89-30.27,11.85q2.82-10.72,5.66-21.48c26.9-6.85,38.83-38,19.45-60.83-6.68-7.86-15.86-9.76-24.9-7.83-8.6,1.82-13.4,9.09-14.89,17.91-1.27,7.45,5.19,20.89,11.59,23.56,7,2.93,13.65,1.65,18.93-4,2.25-2.38,4.32-5.63,1.33-8.75-2.67-2.79-5.7-2.64-8.46.52-6.18,7-9.12,1.89-11-3.51-1.76-5.16-2-11.07,4-13.77,5.35-2.42,10.74-1.56,15.23,3.26,9.83,10.54,9.55,36.38-12.59,41.74C1092.74,831.65,1084.18,824.54,1071.26,826.22Z"/><path class="cls-7" d="M334.56,517.35c-22.2-21.82-8.67-51.23,10.85-64.43,11.11-7.52,26.93-1.38,32.91,11.46,1.79,3.86,3,8,5,11.74,9.36,17.61,33.8,25.19,49.85,15.68,2.06-1.22,3.81-2.54,4.53-4.92,15.66,2.33,29.91.74,41.51-12,9-9.9,10.86-21.29,10-33.84-.14-2.06-1.54-5,1.27-6.17,2.59-1.08,4,1.65,5.62,3.08,15.88,13.83,33,21.58,54,11.72,5.57,8-3.14,10.86-6.16,15.21-4.73,6.85-10,10-19.75,4.55-18.58-10.4-44.27,7.47-43,28.58.46,7.67,11.55,18.36,19.4,18.71,10.31.46,22.36-7.31,23.73-15.69,1.14-7-1.91-12.2-8-15.54-5.16-2.82-10-2.79-14.28,1.95-3.89,4.28-3.23,6.83,2.48,8.08,2.83.62,7.31-1.83,7.78,3.42.26,2.9-2.19,5-4.71,5.73-3.73,1.13-7.53,1.87-10.9-1.72-6.78-7.2-2.27-21.31,8.14-24.84s26.95,5.06,31.74,16.47c6.72,16,3.84,27.2-10,33-9,3.8-18.74,2.53-27.72-1.73-3.7-1.75-7.36-5.72-11.42-2.59s-.8,7.38.21,11c4.9,17.52-3.21,36.39-18.28,42.15-17,6.49-35.4-1.06-44-18-2.69-5.3-5.36-10.64-5.63-16.71-.47-10,5.33-19.4,13.41-22.08,14-4.65,23.5-2.91,29.1,6,4.15,6.61,4.15,13.21-.18,20.35-3.74,6.16-8.53,7.62-14.91,6.9a8.07,8.07,0,0,1-7.27-5.82c-1.12-3.62-.65-7.2,2.57-9.9,2.88-2.43,5.94-2.81,9-.62,2.33,1.64,4.66,3.18,6.68,0a6.34,6.34,0,0,0-.9-8.2c-3.31-3.48-7.22-5.84-12.3-4.71-9.23,2.07-18.39,14.8-17.29,23.9,1,8.52,11.8,17.11,21.57,17.2,11.3.11,20.26-6.28,24-17.09,5.77-16.81,1.74-31.27-12.95-37.92-20.49-9.28-51.08,2.68-50.63,28.52.39,21.84-.59,22.63-21.51,28.44L372,529.25c3.37-1.67,5.55-4.28,2.82-7.63-2.59-3.19-6.07-3.6-8.84.39A68.35,68.35,0,0,0,334.56,517.35Z"/><path class="cls-7" d="M293,709.46c-6.06.14-6.61-6.55-11.19-8.81-14-6.92-27.95-8.48-41.13.5-12.55,8.55-17.07,21-13.38,36.13,1,3.9-.85,7.15-3.13,10-5.89,7.45-23.15,10.31-29.81,5.07-10-7.87-12.65-23.28-5.71-32.62,1.93-2.6,6.72-4.1,3.66-8.87s-7.22-2.35-10.63-1.27c-19.57,6.19-29.42-2.28-38-14.46-6.63-9.47-2.84-30.3,5.47-41,17.57-22.64,38.44-20.27,49.62,7.34,7.9,19.48,27.65,28.34,46.61,21.17,17.52-6.62,27.72-29.27,19.31-47.85-7.46-16.46-23.33-25.47-39.89-13.94-7.14,5-9.21,15.91-5.06,26.07,3.26,8,7.56,14.39,18.12,13.18,5.35-.61,8.19-3.77,11.32-7,2.56-2.69,3.26-6,.71-8.91-3-3.48-5.73-1.34-8.45,1-2.28,1.91-4.39,6.6-8,3.2-5-4.79-5.19-11.36-2.75-17.47,1.42-3.57,4.58-5,9-3.62,7.69,2.38,14.12,5.67,15.53,14.55,2,13-2.63,25.48-12,30-8.69,4.17-17.38,2.89-25.19-2.59-13.89-9.76-17.61-29.38-10.4-47.19,5.39-13.34,18.46-23.73,34.36-23.41,7.8.15,15.42-.33,23.31,2.56,12.44,4.56,20,12,21.72,25.2.77,5.84,4.46,7,9.27,4.85,2.36-1,4.25-3.15,7.16-2.83C299.45,655.31,299,682.74,293,709.46Z"/><path class="cls-7" d="M265.58,1068.23c-26.25-3.55-44,20.61-38.54,42.51a10,10,0,0,1,.12,4.85c-1.87,6.86-15.73,13.34-26.29,11.67-8.16-1.3-13.67-6.69-14.65-14.88-.93-7.72-1.42-15.83,4.72-22.34,1.78-1.88,3.66-3.94,1.29-6.84-2.21-2.7-4.59-3.24-7.79-1.79-6.17,2.8-12.78,2.64-19.36,2.41-8.37-.29-14.41-3.83-16.94-12.22,10.27-12.33,6-23.72-2.26-34.84,5.37-23.43,28.78-31.87,45.61-16.66,3.53,3.19,4.2,7.31,5.8,11.17,5,12.11,12.86,21,25.81,25.08,15.4,4.87,27.58-.77,36.81-12.2s9.53-25.07,4.5-38.36c-4-10.44-19.25-18.76-30.11-16.89-9.62,1.66-14,9.16-16.19,17.8-1.86,7.3,3.87,21.08,9.82,24.51,6.95,4,13.19,2.07,19-2.7,3.32-2.72,6-6.48,3.6-10.18-2.66-4.06-6.24-.94-9.37,1-2.34,1.45-5,4.24-7.9,1.3-3.49-3.52-4.26-8.12-3.49-12.88.65-4,3.14-6.63,7.19-7a16.6,16.6,0,0,1,12.88,3.89c8.28,7.39,7.43,28-1.12,36.32-8.39,8.16-25.85,7-33.59-2.22-13-15.45-14.83-32.5-5.25-48.25C218.69,976,240.13,968,258.36,971.4c10.21,1.92,17.83,7.82,25.73,13.62C282.62,1013.8,279.71,1042.26,265.58,1068.23Z"/><path class="cls-8" d="M443.79,993c-6.53,18.5,7.8,34.26,32,37.21,34.2,4.17,68.16,9.71,101,20.72,6,2,7.24,4.09,3.88,9.44A45.62,45.62,0,0,1,564.59,1076c-21.88,12.6-42.28,27.89-66.41,36.41-2.74,1-5.19,2.83-7.66,4.44-7.95,5.17-12.18,12-9,21.74,2.76,8.59,9.84,12.28,21.41,11.47-12,3.66-24,7.48-36.1,10.92-6.91,2-13.75,4.67-21.17,4.09-8-.63-14.8-2.73-17-12-2.12-8.83-1.27-16.1,7.28-21.38,7.56-4.67,14.91-9.6,23.44-12.47,23.77-8,42.17-25.31,63.63-37.34,4.41-2.47,6.95-8.59,9.86-13.34s-1.72-4-4.09-5c-23.06-10.39-48.4-11.32-72.41-17.65-15.94-4.21-32.84-2.43-48.32-8.61-17.53-7-26.24-22.76-15.35-40.15,2.24-3.58,4.48-6.54,8.78-7.09C415.73,988.2,430,986.9,443.79,993Z"/><path class="cls-7" d="M413.91,1537.48c4.16,2.41,5.54,6.37,5.73,10.81.16,3.66,1.55,6.67,4.89,7.91,3.53,1.32,5.23-2.15,7.14-4.16,11.29-11.89,24.72-19,41.37-16.54,19.7,2.87,31.37,15.48,23.18,35-2.23,5.32-7.21,7.45-10.7,11.23-5.64,6.08-9.23,0-13.81-1.31-11.25-3.16-21.87-2.48-31.65,5.2-8.49,6.67-9.23,15.6-8.35,24.95,1,10.46,12,17.57,23.56,15.83,9.42-1.42,17.05-10.61,15.89-19.26-.84-6.22-5.06-9.93-10.42-12-4-1.54-7.72.32-10.48,3.71-1.23,1.52-2.94,2.9-1.82,5.15a4.16,4.16,0,0,0,4.95,2.31c2.5-.58,5.26-2.34,6.86,1.07,1.5,3.21-1.58,4.64-3.26,6.47a7.14,7.14,0,0,1-9,1.77c-6.8-3.19-8.71-12.36-3.88-18.49,6.9-8.78,16.69-11.37,26.3-5.52,9.17,5.58,16,13.54,16.54,25.13.42,9.43-5.16,15.34-12.73,19.45-8.6,4.68-17.23,2.21-25.58-1.24-3.66-1.52-7.71-4.33-11.14-1.69-4,3-1.68,7.76-.72,11.88,6.15,26.62-15.27,42.55-33.84,40.64-14.45-1.49-21.67-12.32-28.47-23.4-.84-1.36-1.52-2.8-2.28-4.21,3.16-9.94,4.71-20.44,10.17-29.59,7.33-2.59,14.68-3.21,22.09-.24,6.32,2.52,11.06,7,10.65,13.8-.48,7.77-2.12,15.84-11.27,18.94a11.51,11.51,0,0,1-12.51-3.38c-2.56-2.75-2-6.78.4-10,3-4,6.5-3.59,10.39-1.35,1.58.91,4,2.48,5-.11,1.34-3.37,1.69-7.33-1.23-10.16a12.43,12.43,0,0,0-12.79-3c-7.09,2.1-14.86,13.43-14.18,20.63.9,9.4,8.57,17.37,17.65,18.32,11,1.16,21.14-3,24.88-12,4.31-10.36,6.23-21-.79-31.71-8.58-13-21.48-11.93-34.3-11.81Z"/><path class="cls-7" d="M982.1,990.71c4.22.4,4.84,3.78,5.85,6.94,2.62,8.18,6.36,9.48,12.33,3.4,8.09-8.24,17.86-13.07,28.49-16.86,14.93-5.32,34.82,2.89,40.78,17.12,4.44,10.57-6.09,31.54-17.08,34.16-2.4.57-3.48-1.25-5.13-2.19-11.06-6.29-22.09-7.1-33.46-.34-11.74,7-14.94,17.58-13.87,30.21.72,8.47,7.61,11.32,14,13.54,8.61,3,16.59,1.55,23.49-5.52,5.27-5.4,4.76-11.49,3.27-17.47-1.54-6.22-11-9.72-17.35-7-3.56,1.51-6.34,4.2-5.32,8.41s4.46,3,7.25,2.1,4.65-.29,5.61,2.27c1.14,3-.7,4.87-3.13,6.41-4.46,2.81-8.89,2.61-12.91-.48s-5.65-6.68-3.91-12c3.83-11.85,15.48-16.55,29.08-11.22,10.15,4,17.43,15.48,17.27,27.3-.14,10.19-5.69,17.74-15.92,21.24-7.25,2.48-14.31,1-21.17-1.72-4.81-1.94-10.32-6.67-14.56-4-5.32,3.41.94,9.62.14,14.67-4.46.17-8.77-.12-11.89-4,.62-12.63-6.58-20.76-17.09-24.93-12.58-5-25.6-5.45-36.5,5.16-16.51-5.19-28.23-17.78-42-27.22-3.86-2.65-9.14-4.19-7.44-10.67a12.62,12.62,0,0,1,7.93-4c9,17.4,22.49,25.73,39,24,13.77-1.43,25.37-12.71,29.6-28.26,2.54-9.36-1.59-18.2-1.41-27.35Z"/><path class="cls-8" d="M475.43,895.42c4.59,7.15,11.3,11.91,18.48,16,23.85,13.6,44,32.19,65.9,48.46a168.51,168.51,0,0,0,18.93,12.48c3.21,1.77,6.56,3.67,8,7,1.8,4.13,2.53,9.79-4.17,8.77-16.61-2.53-33.56-1.68-50-5.52-22-12.4-41.71-28.07-61-44.21-11.67-9.76-24.83-17.08-37.69-25-16.17-9.92-17.35-29.15-2.48-40.08,7.67-5.64,16.26-4.33,24.58-2.13,6.63,1.74,13,4.36,19.51,6.59q-.54,2.91-1.1,5.82c-1.81,1.82-1.79,3.83-.6,6l.84,3.94C473.52,894.79,474.11,895.26,475.43,895.42Z"/><path class="cls-7" d="M1029.2,610c13.72.2,27.63-.27,37.21,12.42,1.19,1.58,2.63,2.91,2.53,5.08-13.14-.67-23.07,5.79-32.31,14.19-20.32,18.47-39.26,38.54-61.92,54.36-10.15-.9-20.16-1.25-29.63,3.73-15.61,8.21-18.2,21.88-16.26,37.59-1.76,4.67-6.09,6.8-9.79,9.26C891.78,764.77,865.31,784,839,803.36c-2.06,1.51-4.65,2.31-7,3.43l-13,1.67c12.63-15.32,28.11-28,44.13-38.89,26.56-18.13,46.71-41.87,66.64-66.24,21.51-26.29,45.92-49.69,72.34-70.93C1011.2,625.05,1017.49,614.22,1029.2,610Z"/><path class="cls-8" d="M536.16,826.41c.19,8.59,4.61,14.94,10.89,20.22,22.25,18.66,41.64,39.92,57.43,65.11-28.76-15.09-58.37-28.31-87.63-42.28-.77-.44-1.54-.88-2.32-1.31h0c-7.25-7-14.19-14.38-21.84-20.92s-8.32-14.73-5-23.07c3.16-7.87,9.93-10.58,18.5-9.82C517.5,815.35,526.4,821.84,536.16,826.41Z"/><path class="cls-8" d="M575.77,1129c17.49-6.66,34.11-13.7,54.37-11.56,22.42,2.37,45,4.8,67.6,5.54,8.42.28,12.43,4.09,16,10.29-9.42,10.89-22.59,16.44-34.27,24.11-8-.18-9.51-7.52-12.62-12.39-3.66-5.74-7.83-8.08-14.52-7.78-22.06,1-43.61-6.11-65.79-4.21A13,13,0,0,1,575.77,1129Z"/><path class="cls-7" d="M1009.92,868.26c-9.63-13.48-8.23-36.32,3.82-48.56,5.24-5.33,9-13,18.42-13.29,17.29-.63,23.45,3.73,29.69,22.39A240.14,240.14,0,0,0,1009.92,868.26Z"/><path class="cls-6" d="M1100.36,840.66c22.14-5.36,22.42-31.2,12.59-41.74-4.49-4.82-9.88-5.68-15.23-3.26-6,2.7-5.72,8.61-4,13.77,1.84,5.4,4.78,10.55,11,3.51,2.76-3.16,5.79-3.31,8.46-.52,3,3.12.92,6.37-1.33,8.75-5.28,5.6-11.89,6.88-18.93,4-6.4-2.67-12.86-16.11-11.59-23.56,1.49-8.82,6.29-16.09,14.89-17.91,9-1.93,18.22,0,24.9,7.83,19.38,22.83,7.45,54-19.45,60.83Q1101,846.49,1100.36,840.66Z"/><path class="cls-7" d="M282.93,766.83c-11.5.3-22.72,1.11-32.37-8-8.17-7.72-15.72-26.91-12.56-37.75,2.76-9.46,10.49-13.59,19.19-15,8.2-1.32,16.58-.32,22.36,7,6.05,7.7,1.59,25.4-7.47,29.2-5.09,2.14-10,.5-13.48-3.44-2.55-2.89-4.84-6.62-1.21-10.59,3.25-3.56,6.15-6.64,11.62-2.61,4.93,3.64,6.44-.06,6-4.47-.48-5-3.64-7.33-8.59-7.84a19.21,19.21,0,0,0-21,16.57c-1.45,11.81,5.93,21.57,17.77,23,9.74,1.18,18.19-1.39,24.13-9.83C287.48,751.32,285.2,759.07,282.93,766.83Z"/><path class="cls-8" d="M667.92,850.67c-2.43,11.82-5,23.65,1.3,34.84-3.77,2.07-4.57-.47-5.59-1.75a103.66,103.66,0,0,0-28.69-24.91c-5.22-3.09-10.8-6.35-13-12.74,4,.43,4.58-3.29,6.16-5.45,7.55-10.31,15-13.42,24.76-11.59C665.34,831.42,667.82,840,667.92,850.67Z"/><path class="cls-6" d="M386.4,1616.46c12.82-.12,25.72-1.23,34.3,11.81,7,10.67,5.1,21.35.79,31.71-3.74,9-13.91,13.18-24.88,12-9.08-1-16.75-8.92-17.65-18.32-.68-7.2,7.09-18.53,14.18-20.63a12.43,12.43,0,0,1,12.79,3c2.92,2.83,2.57,6.79,1.23,10.16-1,2.59-3.44,1-5,.11-3.89-2.24-7.41-2.7-10.39,1.35-2.39,3.26-3,7.29-.4,10a11.51,11.51,0,0,0,12.51,3.38c9.15-3.1,10.79-11.17,11.27-18.94.41-6.78-4.33-11.28-10.65-13.8-7.41-3-14.76-2.35-22.09.24A30.4,30.4,0,0,1,386.4,1616.46Z"/><path class="cls-6" d="M966.1,1002.37c-.18,9.15,3.95,18,1.41,27.35-4.23,15.55-15.83,26.83-29.6,28.26-16.53,1.72-30.07-6.61-39-24,2.57-2.73,5.9-3.65,9.46-4,2.24,2.84,4.07,6.16,6.79,8.42,6.2,5.16,12.19,11.38,21.66,8.69,10.23-2.9,16.84-8.78,20-19.55,2-6.9,0-12.9-.47-19.3C958.57,1004.57,962.32,1003.45,966.1,1002.37Z"/><path class="cls-7" d="M956.31,1008.19c.46,6.4,2.48,12.4.47,19.3-3.14,10.77-9.75,16.65-20,19.55-9.47,2.69-15.46-3.53-21.66-8.69-2.72-2.26-4.55-5.58-6.79-8.42,3.67-4.13,8.55-5.62,13.79-6.32,9.28,10.93,20.38,12.18,26.92,2.83,1.72-2.44,4.81-5.37,1.33-8.59-2.86-2.65-5.46-.82-7.68,1.38-3.77,3.73-7.23,4.47-10.2-.86C939.41,1012.57,947.69,1010,956.31,1008.19Z"/><path class="cls-6" d="M928.82,737.38c-1.94-15.71.65-29.38,16.26-37.59,9.47-5,19.48-4.63,29.63-3.73-2.71,5.34-7.66,8.27-12.37,11.45-12.29-4.07-23.53,6.18-23.8,21.73A23.52,23.52,0,0,1,928.82,737.38Z"/><path class="cls-7" d="M419.31,769.27c.6-1.12.92-2.83,1.84-3.28,13.46-6.53,37.85,2.78,44.06,16.68C447.41,786.79,432.67,780.41,419.31,769.27Z"/><path class="cls-7" d="M241.84,1120c-10.77-14.06-6.42-41.63,19.5-42.1C256.52,1092.67,250.57,1107,241.84,1120Z"/><path class="cls-7" d="M1089.09,883.8c4.92,21,3.07,29.53-9.39,35.55-5,2.41-10.85,6.68-17,1.65Z"/><path class="cls-6" d="M550,1241.8c1.65,26.64-8.42,39.16-33.61,41.78.65-5.7,6-8.58,8.06-13.46,10.55-2.27,14.33-7.1,15.95-20.42C541.6,1244.6,545.18,1242.43,550,1241.8Z"/><path class="cls-9" d="M608.14,688.08c-5.38-7.68-2.25-14.82,3.26-19.93s12.63-9.7,20.86-3.84A92.1,92.1,0,0,1,608.14,688.08Z"/><path class="cls-6" d="M932.51,1018.37c3,5.33,6.43,4.59,10.2.86,2.22-2.2,4.82-4,7.68-1.38,3.48,3.22.39,6.15-1.33,8.59-6.54,9.35-17.64,8.1-26.92-2.83C924.41,1019.5,928.75,1019.5,932.51,1018.37Z"/><path class="cls-7" d="M938.54,729.24c.27-15.55,11.51-25.8,23.8-21.73C955.43,715.88,947,722.54,938.54,729.24Z"/><path class="cls-6" d="M819,808.46l13-1.67c-6.62,8.85-14.38,15.63-28.27,15.53C808.79,815.8,812.66,810.86,819,808.46Z"/><path class="cls-6" d="M1037.34,523.9c1.77-3.67,5.83-2.15,8.55-3.77,3.07-1.81,6.22-3.63,9.48.21s.85,6.39-1,9.51c-.94,1.56-.86,3.73-1.25,5.63C1048.09,531.27,1041.26,529.56,1037.34,523.9Z"/><path class="cls-7" d="M540.43,1249.7c-1.62,13.32-5.4,18.15-15.95,20.42C527.68,1261.66,531.84,1253.94,540.43,1249.7Z"/><path class="cls-6" d="M366,522c2.77-4,6.25-3.58,8.84-.39,2.73,3.35.55,6-2.82,7.63C369.14,527.55,366.67,525.52,366,522Z"/><path class="cls-7" d="M884.92,1039.22l-1.91-.48Z"/><path class="cls-6" d="M829.92,1608.36c29.67,14.91,29.37,29.86,22.43,41.71-8.85,15.13-23.65,13.38-48.45-5.07,0,5.63.2,10.37,0,15.09-.62,12.2-16.25,25.25-28.24,23.73-13-1.64-19.91-13.16-16.75-28.2,1.27-6,2.94-12,4.9-19.87-7,3-12.3,5.76-17.91,7.72-9.7,3.41-20.16,6.37-29.13-.47-16.67-12.71-5.77-34.15,11.39-42.24,3.44-1.62,7.45-2,11.88-3.19-3-5.46-8.58-7.26-12.89-10.3-5.55-3.93-10.29-8.42-12.51-14.83-2.6-7.55-4.26-15.2,2-22.17,6.87-7.6,15.14-8.55,24.31-5.64,10.19,3.23,18.51,9.29,26.36,19.77-1.45-16.3-4.41-31.37,10.23-40.05,8.14-4.83,18.24-5.37,26.07,1.21,14,11.73,11.71,27,7.51,43.37,8.46-8.94,18.7-10.85,29.77-9.77a25.22,25.22,0,0,1,7.61,1.63c8.12,3.54,16.17,8.52,16.25,18,.08,9-6,15.67-14.44,19.6C843.59,1601.52,837,1604.89,829.92,1608.36Zm-44,14.21c12.63,0,20.11-7.52,20-20.15-.1-12.14-7.53-19.55-19.62-19.57-11.16,0-21.62,9.43-21.78,19.68S774.89,1622.56,785.9,1622.57Z"/><path class="cls-6" d="M583,1423c-12.37-6.91-21.82-14-27.4-25.49-3.33-6.84-4.55-12.94.53-19.27,5.62-7,12.87-9.85,21.66-8.35s16.24,5,22.17,11.83c1.6,1.83,3.35,5.27,6.14,3.91,3.27-1.6,1.53-5.18,1-8-2.13-11.56,2.12-21.6,11.47-26.9,16.95-9.61,35.46,1.68,36.84,22.21.47,7-1.69,13.51-2.89,21.39,8.59-8,18.37-10.66,29.41-9.59,14.55,1.42,24,10.6,23,22.77-.69,8.1-5.69,13.18-12.31,16.66a101.52,101.52,0,0,1-23.42,9.43c5.58,6.62,13.94,6.85,19.26,12.46,8.21,8.65,11.63,20.41,6.37,29a23.91,23.91,0,0,1-31,8.87c-6.06-2.9-11.48-7.15-17.58-11-2,7.74,1,15.25-3.27,21.88-7.81,12.2-20.21,17.44-31.71,13-9.32-3.61-13.75-15.72-11.08-29.75.82-4.33,5.83-9.33,2.14-12.66s-8,2.76-12.34,3.5c-8.8,1.52-16.66,6.86-26.71,3.42-13.56-4.64-16.24-16.33-10.35-29.51a27.47,27.47,0,0,1,19.78-16.32C575.55,1425.85,578.27,1424.64,583,1423Zm64.48,6c-.15-12.85-7.7-20.5-20.13-20.42-12.59.09-21.19,8.41-21.34,20.63-.13,11.31,11,21.37,23.08,20.84C638.27,1449.69,647.57,1439,647.46,1429Z"/><path class="cls-6" d="M1073.29,1380.55c2.75.47,5.89-.45,8,2.23,1,13.06-7.57,21.41-15.75,29.28-4,3.88-4.85,6.62-2,10.76,9.27,13.62,7.28,27-1.76,39.41s-22.29,16-36.8,12.9c-6.73-1.44-7.09,1-7.3,6.23-.69,17.7-12.52,35.75-25.78,39.87-21,6.53-39.76,1.71-52.4-14.32-3.54-4.5-5.17-5.74-10.72-2.17a49.22,49.22,0,0,1-20.29,7c-20.14,2.64-32.48-13.62-33-31.69-.26-9.22-2.13-12.62-11.93-12.32-12,.36-29.08-16-31.83-28.59-5.43-24.9,4.75-47.93,26.95-61,9.39-5.54,19.05-6.24,28.88-1.47,3.07,1.49,6.1,4.17,7.3-1.5,4.39-20.87,16.17-34.67,37.35-39.74,1.56-.37,2.94-1.46,4.4-2.22,8.79-1.5,14.45,5.31,21.62,8.14-.69,5.56-4.16,2.09-6.63,2.08-17.15-.08-32.25,5.32-40.91,20.63-8.49,15-6.93,30.29,2.93,45.12,6.07,9.12,14.82,11.79,23.75,10.73,10.94-1.3,16.66-9.77,19.35-20.6,2.53-10.15-1.78-17.16-8.52-23.48-4.44-4.16-9.87-4.41-14.38-.74-5.08,4.15-4.38,10.33-1.82,15.42,3.25,6.49,7.85,3.68,12.21.52,1.76-1.27,4-2.74,6.3-.72,1.65,1.44,1.88,3.28,1.32,5.39-1.77,6.79-12.48,12.38-19.14,9.93-7-2.58-14.75-14.26-13.75-22.35,1.13-9.07,4.11-17.23,14.47-20.29,14-4.14,30.82,6.87,34.27,23.35,4.1,19.56-10.94,47.55-35.88,44.27-18.34-2.41-28.66-13.08-34.89-29.21-6.31-16.33-21.07-20.92-35.76-11.92-9.54,5.84-13.37,15.1-17.31,24.43-7.82,18.51,2.44,37.62,21.81,42.9,7.47,2,13.44-1.36,20.1-2.4,2.93-.46,6.19-.87,8,2.24,1.67,2.86-.32,5.28-2.24,6.89-3.66,3.08-4.34,7.22-5.07,11.44-1.77,10.27,4,22.17,12.3,25.57,6.92,2.82,23.64-3.3,28.26-10.18a8.23,8.23,0,0,0,1-7.52c-4.41-14,4.2-32,18.79-39.09,13.7-6.7,34.25-2.94,42.86,9,8.45,11.73,5.76,30.24-5.84,40.3-10.35,9-22.8,8.4-32.68-1.49-6.71-6.71-6.91-19.34.2-26.71,4.71-4.9,11-7.37,17.88-6,4.32.88,6.47,4.47,6.81,8.75s-.47,8.3-5.83,4.82c-4.14-2.69-7.07-2.76-10.28.86-2,2.24-4.63,4.42-2.74,7.68,2.39,4.12,5.65,7,11.07,6.94,7.6,0,12.34-4.46,13.34-10.83,1.23-7.77,3.41-17.31-6.21-21.93-7.79-3.74-16.2-5.19-24.58-.57-8.89,4.9-13.59,11.52-12.5,22.36.73,7.28,3.82,13.12,7.27,19.09,6.42,11.12,21.62,19.1,33.21,17.41,13.25-2,24.71-13.41,27.37-27.63,1.34-7.17-.22-14.27-1.23-21.33-.38-2.59-2-5.35.41-7.34s5,.39,7.43,1.07c1.84.52,3.37,2.11,5.22,2.65,8.78,2.56,17.47,5.57,26.7,1.1,21.91-10.62,13-36.78-1.6-45.59-9.38-5.65-19.27-5.29-26.38,1.86-4.16,4.2-9.19,9.19-4.77,16.17,3.14,5,7.77,7.1,13.55,4.87,2.7-1,6-2.28,5.61-6s-3.85-2.68-6.32-2.89c-2.82-.24-6.35.73-6.79-3.7-.41-4.13,2.52-5.89,5.7-7.08,5.67-2.12,11.2-2.11,15.12,3.29,4.27,5.89,4.4,12.49.45,18.38a22.14,22.14,0,0,1-31.8,5.31c-9.33-7.09-10.28-23.29-1.91-32.73,12.62-14.22,23.7-16.69,41.3-8.1,4,1.92,5.77,1.71,9.37-.59C1065.54,1399.26,1068.37,1389.28,1073.29,1380.55Z"/><path class="cls-6" d="M746.42,1178.91c12.29,8.42,21.72,19.81,31.8,30.54,3.3,3.51,4.89,5.2-1.16,8.14-9.73,4.74-12.61,13.8-10.77,24.19,1.57,8.83,7.54,13.37,15.92,15.39s18-2.77,22.18-12.05c2.71-6.08,5.3-7.67,10.41-2.46,12.59,12.82,29,21.28,40.62,35.21-9,20.85-25.26,21.38-51.53.39,0,5.82.17,10.51,0,15.18-.65,14.49-13.9,25.74-28.13,24s-20.93-14-16.6-30.85c1.29-5,3.12-9.91,5.39-17-11.06,4.54-20.19,9.52-30.49,10.83-8.52,1.07-17,.49-22-7-5.26-7.82-4.76-16.43.42-25,6.33-10.41,17.14-13.37,28.09-17.62-6.94-5.34-13.37-9.71-19.12-14.84-8.38-7.49-11.63-20.8-7.66-28.65s12.85-10.74,25.77-8.73A56.55,56.55,0,0,0,746.42,1178.91Z"/><path class="cls-4" d="M754.29,1473.89c-5,1.52-10,3.09-15,4.54-7,2-13.44,1.13-16.87-5.9-4-8.06-.56-14.82,6-19.84,3.07-2.34,7-3.55,11.24-5.62-3.61-3.2-7.34-6.1-10.59-9.48-5.08-5.27-8.62-11.6-4.12-18.56,4.68-7.24,11.94-7.34,19.29-4.09,3.54,1.56,6.89,3.56,10.38,5.39,3.44-2.45,1.8-6.18,2.62-9.14,2.39-8.62,7.84-13,16.59-12.18s13.26,6.48,14.08,15.1a20.41,20.41,0,0,1,0,4.94c-1,6.48,1.25,7.18,6.87,4.65a18.58,18.58,0,0,1,14.47,0c5.39,2.11,10,5.08,10.53,11.71.55,6.27-3.17,9.84-7.92,12.53-4.18,2.35-8.65,4.18-13.38,6.42,15.33,8.55,19.94,17.66,14.15,26.92-5.31,8.49-14.48,8.27-28.56-.76-3.21,1.5-1.66,4.55-2.08,6.89-1.81,10.09-9.82,15.86-20.09,14.33-7-1.06-10.51-7.84-9.13-18,.43-3.24,1.12-6.44,1.7-9.66.25-.33.51-.65.76-1Zm16.44-9.92a13.57,13.57,0,0,0,12.92-13.55c-.07-7.08-6.23-12.54-13.88-12.31s-13.51,6.17-13,13.22C757.26,1458.22,763.87,1464.2,770.73,1464Z"/><path class="cls-7" d="M1073.29,1380.55c-4.92,8.73-7.75,18.71-17.07,24.66-3.6,2.3-5.42,2.51-9.37.59-17.6-8.59-28.68-6.12-41.3,8.1-8.37,9.44-7.42,25.64,1.91,32.73a22.14,22.14,0,0,0,31.8-5.31c4-5.89,3.82-12.49-.45-18.38-3.92-5.4-9.45-5.41-15.12-3.29-3.18,1.19-6.11,2.95-5.7,7.08.44,4.43,4,3.46,6.79,3.7,2.47.21,5.88-.9,6.32,2.89s-2.91,5-5.61,6c-5.78,2.23-10.41.1-13.55-4.87-4.42-7,.61-12,4.77-16.17,7.11-7.15,17-7.51,26.38-1.86,14.63,8.81,23.51,35,1.6,45.59-9.23,4.47-17.92,1.46-26.7-1.1-1.85-.54-3.38-2.13-5.22-2.65-2.42-.68-5-3.07-7.43-1.07s-.79,4.75-.41,7.34c1,7.06,2.57,14.16,1.23,21.33-2.66,14.22-14.12,25.68-27.37,27.63-11.59,1.69-26.79-6.29-33.21-17.41-3.45-6-6.54-11.81-7.27-19.09-1.09-10.84,3.61-17.46,12.5-22.36,8.38-4.62,16.79-3.17,24.58.57,9.62,4.62,7.44,14.16,6.21,21.93-1,6.37-5.74,10.79-13.34,10.83-5.42,0-8.68-2.82-11.07-6.94-1.89-3.26.75-5.44,2.74-7.68,3.21-3.62,6.14-3.55,10.28-.86,5.36,3.48,6.17-.67,5.83-4.82s-2.49-7.87-6.81-8.75c-6.91-1.41-13.17,1.06-17.88,6-7.11,7.37-6.91,20-.2,26.71,9.88,9.89,22.33,10.46,32.68,1.49,11.6-10.06,14.29-28.57,5.84-40.3-8.61-11.94-29.16-15.7-42.86-9-14.59,7.13-23.2,25.08-18.79,39.09a8.23,8.23,0,0,1-1,7.52c-4.62,6.88-21.34,13-28.26,10.18-8.32-3.4-14.07-15.3-12.3-25.57.73-4.22,1.41-8.36,5.07-11.44,1.92-1.61,3.91-4,2.24-6.89-1.81-3.11-5.07-2.7-8-2.24-6.66,1-12.63,4.43-20.1,2.4-19.37-5.28-29.63-24.39-21.81-42.9,3.94-9.33,7.77-18.59,17.31-24.43,14.69-9,29.45-4.41,35.76,11.92,6.23,16.13,16.55,26.8,34.89,29.21,24.94,3.28,40-24.71,35.88-44.27-3.45-16.48-20.28-27.49-34.27-23.35-10.36,3.06-13.34,11.22-14.47,20.29-1,8.09,6.75,19.77,13.75,22.35,6.66,2.45,17.37-3.14,19.14-9.93.56-2.11.33-4-1.32-5.39-2.3-2-4.54-.55-6.3.72-4.36,3.16-9,6-12.21-.52-2.56-5.09-3.26-11.27,1.82-15.42,4.51-3.67,9.94-3.42,14.38.74,6.74,6.32,11,13.33,8.52,23.48-2.69,10.83-8.41,19.3-19.35,20.6-8.93,1.06-17.68-1.61-23.75-10.73-9.86-14.83-11.42-30.12-2.93-45.12,8.66-15.31,23.76-20.71,40.91-20.63,2.47,0,5.94,3.48,6.63-2.08l25.87,15.81c1.32,4.65,2.9,9.25,3.91,14,1.37,6.35,5.13,6.7,10.15,4.66a16.06,16.06,0,0,0,8-6.86,90.28,90.28,0,0,1,31.09,3.94c9.43,2.88,19,5,29.07,4.14C1069.16,1376.76,1072.43,1376.45,1073.29,1380.55Z"/><path class="cls-6" d="M940.39,1075.91c10.9-10.61,23.92-10.15,36.5-5.16,10.51,4.17,17.71,12.3,17.09,24.93-4.28-.34-9.28,1.46-11.82-4-1.07-7.18-5.5-10.3-12.37-12.11-6.14-1.62-11.68,1-17.5.53C948,1079.75,943.84,1078.79,940.39,1075.91Z"/><path class="cls-9" d="M1102.78,1151.41c10.12-1.29,19.79.8,29.43,3.58,2.46.71,4.19,1.45,4.35,4.21-5.9,12.13-12.23,14-21,5.23C1111.32,1160.13,1104.54,1158.16,1102.78,1151.41Z"/><path class="cls-6" d="M1006.11,1368.92a16.06,16.06,0,0,1-8,6.86c-5,2-8.78,1.69-10.15-4.66-1-4.71-2.59-9.31-3.91-14C991.27,1361.38,1000.76,1361.28,1006.11,1368.92Z"/><path class="cls-7" d="M952.29,1080.09c5.82.52,11.36-2.15,17.5-.53,6.87,1.81,11.3,4.93,12.37,12.11C970.07,1093.31,961.5,1085.89,952.29,1080.09Z"/><path class="cls-4" d="M473.82,889.65c-1.19-2.14-1.21-4.15.6-6Z"/><path class="cls-4" d="M475.43,895.42c-1.32-.16-1.91-.63-.77-1.83C474.91,894.2,475.17,894.81,475.43,895.42Z"/><path class="cls-4" d="M514.53,868.15c.78.43,1.55.87,2.32,1.31C516.08,869,515.31,868.58,514.53,868.15Z"/><path class="cls-7" d="M994.06,1562c-4.32-25.9,24.22-44.65,54-37.28,12.69,3.14,20.65,10.41,23.8,23.31,2.14,8.8,7.32,10,14,3.23,10.45-10.59,22.3-16.81,37.68-16,13.29.7,24.39,8,27.74,19.64,2.32,8-5.15,22.48-14.18,28.43-4,2.66-6.81.18-10-1.14-19.63-8-34.43-2.35-42.61,16.66-3,6.9-1.75,13.43,3.17,19.32,5.86,7,13.59,9.71,22.08,7.95,7.46-1.54,12.69-7.1,14.69-14.52,2.39-8.89-5.2-17.28-14.38-16.8-4.5.23-7.82,2.12-8.7,6.54-1.16,5.8,3.32,5.21,6.92,5.39,2,.1,4,.4,4.21,3.07a4.37,4.37,0,0,1-2.38,4c-2.54,1.56-5,3.09-8.23,1.28-3.62-2-6.47-4.2-6.92-8.82-1.22-12.43,11.68-21.65,24.74-16.56,8.76,3.42,16,10.07,18.43,19.43,2.48,9.76.14,18.92-8.63,25.55-8.1,6.12-16.73,4.19-25.33,2.1-2.82-.69-5.31-2.64-8-3.78-2.28-1-4.56-3.33-7.21-.93-2.42,2.19-1.34,4.7-.5,7.29,3.23,10,4,20-1.28,29.58-7.42,13.39-21.21,19.71-34.87,16.25s-27.34-19.36-27.91-32.71c-.76-18.08,16.21-30.72,32.28-24,8.91,3.73,11.51,10.68,10.76,19.93-.61,7.61-5.51,11-11.57,13.14-5.32,1.87-9.4-.35-12.36-5.37-2.87-4.85.18-7.28,3.14-10,2.23-2,4.6-2.33,7.15-.5,2.1,1.5,4.6,4,6.71.82,1.92-2.89,1.19-6.28-1.13-9.14-5.91-7.3-18.52-5.18-24.17,4.09-6.49,10.66-3.59,22.48,6.82,27.79,12,6.12,26.7,2,31.4-8.68,7.33-16.76,4.41-32.48-7.4-39.71-14-8.55-35.12-5-45.7,8.2a30.93,30.93,0,0,0-6,26.17c1.74,8.16-2.88,12.2-7.87,15-6.75,3.81-14.67,6.77-22.18.86-11.46-9-13-19.5-4.83-32.83,1.6-2.6,3.85-4.93,1.27-7.87-2.29-2.61-5.37-2.42-8.21-1-10.54,5.17-20.24,3.52-29.39-3.34-11.82-8.87-12.17-21.42-9.72-34,2.37-12.24,10-21.3,21.2-27.07,10.49-5.42,25.49.13,29.52,11.32a61.41,61.41,0,0,0,9.27,17.26c12.77,16.37,35.8,17.53,48.8,4.87,13.78-13.42,16.91-35.41.57-51-8.42-8-23.68-8.66-30.6-1.44-7.93,8.27-7.76,24,.35,32.4,6.87,7.1,18.36,5.51,23.63-3.22,1.48-2.45,2.37-5,0-7.15-1.89-1.71-4.33-1.15-6.41.24-3,2-5.62,6.91-9.71,1.79-3.69-4.63-3.34-10.09-.79-14.86s7.54-5,12.17-3c8.76,3.8,11.19,12,11.57,20.23.52,11.26-8.26,21.53-18.61,23.79-9.22,2-20-3.82-25.41-13.23C995,1576.21,992.89,1569.17,994.06,1562Z"/><path class="cls-7" d="M356.86,326.71c-1.18,6,.59,12.52-3.5,18.16-6.85,9.45-17.94,13.34-29.34,9.59-4.06-1.33-7.85-3.55-12-4.6-4.91-1.27-10.44-3-8,6.37,1.72,6.57,2.92,13.75,2.14,20.4-1.46,12.3-9.34,21.33-20.53,25.46-12.09,4.46-24.1,4.26-34.54-6.42-10.72-11-16.57-22.55-12.2-38,2.82-10,11.08-12.58,19.51-14.3s15.91,1.25,21.29,7.72c6.92,8.33.73,25-9.71,28.42-5.82,1.91-9.61-.59-13-4.39-2.5-2.82-2.07-6,.16-9,3.2-4.35,6.58-5.37,11.76-2.57,6.27,3.38,7.12-1.66,5.83-5.7-1.93-6.08-6-10.5-13.39-7.78-8.35,3.07-15.44,7.51-16,17.68-.58,11.41,3.33,17.66,13.31,21.56,8.84,3.45,20.89,1,26.32-5.8,8.5-10.59,11.13-22.59,5.42-35.06-5.38-11.75-15.79-15.51-28.35-15.35-25.4.32-39.42,16.58-35.44,41.75,1.29,8.17-7.7,16-19.56,17.84-10,1.57-15.34-3.81-19.58-11.55-4.52-8.24-4.63-16.21,1.22-23.95,2-2.59,6.81-4.3,3.29-8.86-2.91-3.77-6.65-3.89-10.62-1.86-12.11,6.19-22.9,1.93-32-5.75-9.35-7.91-11.14-19.71-8.44-30.95,2.87-11.95,9.35-22.51,20.18-29.4,13.91-8.87,27.33-4.59,33.5,10.74,5.75,14.28,13.45,25.71,29.7,30.33,18,5.12,41.78-7.77,42.88-31.51.67-14.48-4.09-25.91-16.57-33.37a22.16,22.16,0,0,0-23.44-.06c-7.52,4.6-10.15,13.18-9.21,21.52s5.62,16,13.9,19.07c6.3,2.35,12.2-.78,16.77-5.82,2.47-2.72,3.73-5.81,1.59-8.95-2.77-4.08-6.08-1.31-8.5.53-3.69,2.79-7,4-10.15-.23-3.26-4.45-2.9-9.11-.14-13.83,2.53-4.32,5.91-6,10.72-4.23,11.14,4,17,19.95,12.07,32.79-4.2,11-18.42,17.05-29.49,12.65-16.7-6.64-21.94-21.89-20.5-36.95,3.11-32.62,43.06-49.52,69.84-30.36,6.68,4.78,11.28,11.09,12.73,19.28.53,3,.29,6.13,3.76,7.37,4.14,1.46,6.8-1.07,9.46-3.72,11.34-11.28,24.17-18.81,41-17.7a31.94,31.94,0,0,1,21.86,10c5.65,5.94,9.1,12.84,5.16,21.49-1.75,3.86-2.67,8.1-4,12.16l-3.93,4c-6.65,4.36-12.62,3.23-19.89,0-14.21-6.23-28.69-1.25-37.56,11-6.45,8.94-5,23,3.09,30.62,8.28,7.76,20.43,7.78,29.51-.21,4.59-4,6.05-9.48,4.8-15.32s-5.11-9.84-10.9-11.77c-4.57-1.52-7.51,1-10.27,4.1-1.63,1.82-2.89,3.77-1.61,6.21,1.8,3.41,4.6,3.06,7.66,1.89,2.26-.87,4,.23,4.66,2.34.59,1.78-.59,3.17-2,4.07-4.1,2.54-8.57,4.31-12.94,1.24s-6.37-7-4.29-12.78c4.88-13.59,21.06-17.27,33.25-7.33,4,3.28,6.49,8.48,12.09,9.83Z"/><path class="cls-6" d="M355.84,319.47c-5.6-1.35-8.06-6.55-12.09-9.83-12.19-9.94-28.37-6.26-33.25,7.33-2.08,5.79,0,9.76,4.29,12.78s8.84,1.3,12.94-1.24c1.46-.9,2.64-2.29,2-4.07-.7-2.11-2.4-3.21-4.66-2.34-3.06,1.17-5.86,1.52-7.66-1.89-1.28-2.44,0-4.39,1.61-6.21,2.76-3.08,5.7-5.62,10.27-4.1,5.79,1.93,9.64,5.86,10.9,11.77S340,333,335.44,337c-9.08,8-21.23,8-29.51.21-8.12-7.62-9.54-21.68-3.09-30.62,8.87-12.29,23.35-17.27,37.56-11,7.27,3.19,13.24,4.32,19.89,0C355.61,302.89,356.37,311.3,355.84,319.47Z"/><path class="cls-7" d="M430.09,481.56c-16,10.06-31,1.09-39.08-15.05-5.22-10.48-3.84-20.91-2.73-31.61l19.35-5c1.85,1.64.52,2.83-.59,4-7.25,7.74-6.73,17.08-3.64,25.79,3.51,9.87,11.88,13.4,22.2,12.09Q427.85,476.68,430.09,481.56Z"/><path class="cls-6" d="M425.6,471.8c-10.32,1.31-18.69-2.22-22.2-12.09-3.09-8.71-3.61-18,3.64-25.79,1.11-1.19,2.44-2.38.59-4,5.58-3.27,11.12-6.61,16.77-9.77,1.87-1.06,4.05-3,6.16-.91s.21,4.26-.53,6.3c-1.55,4.27-3.19,8.51-4.79,12.76-7.79-.72-12.86,2.84-13.21,10.54-.3,6.8,2.61,12.13,11.09,10.86Q424.37,465.74,425.6,471.8Z"/><path class="cls-7" d="M423.12,459.68c-8.48,1.27-11.39-4.06-11.09-10.86.35-7.7,5.42-11.26,13.21-10.54Q424.17,449,423.12,459.68Z"/><path class="cls-7" d="M950.22,236c20.72-1.36,35.65,10.68,38,27.93.91,6.64,6.3,8.05,11.45,2.77a73.55,73.55,0,0,1,23.19-16.44c12.34-5.44,30.19-2.91,39.73,6,12.23,11.36,6.91,37.36-8.73,42.74-3.66,1.27-6.06-1.14-9-2.56-15.93-7.61-39.15-2.21-44.42,18.48-2.51,9.86,1.11,20,8.25,24.43,8.33,5.14,19.39,4.58,26.72-1.35,8-6.49,8.2-17.85.94-25-5.72-5.65-10.65-3.46-15.66.55-2.14,1.72-3.65,4-2.09,6.91a4.43,4.43,0,0,0,5.88,2.22c2.79-1.06,5.61-1.46,6.33,2,.67,3.25-2.54,4.27-4.89,5.32-4.64,2.08-9,1.95-12.49-2.33s-4.1-8.07-.49-13.23c8.55-12.25,22-14.26,32.62-4,5.42,5.25,11,10.39,11.85,18.66,2.4,22-16.13,30-35.78,24.66a27.87,27.87,0,0,1-4.47-2.1c-3.84-1.81-8.14-4.77-11.88-1.34-3.41,3.12-.84,7.55.45,11.13,8,22.22-11.41,47.79-39.87,42.92-18.65-3.2-33.87-34.45-24.51-50.73,6-10.47,29.14-13.2,37.82-4.47,4.29,4.31,4.43,20.05-.12,25.13-5.12,5.72-11.27,7.85-18.3,3.33-3.69-2.36-5.92-6-3.35-10.05,1.87-3,3.87-7.81,9-5.28,3,1.47,5.84,4.22,8.72,1,2.09-2.32,1.57-5.75-.3-8.29-2.57-3.47-5.38-6.59-10.6-5.74-10.63,1.74-18.06,11.31-17.79,23.37.21,9.61,7.7,16.79,18.58,17.92,16.66,1.73,25.81-9.13,28.66-23.51,3.43-17.32-6.17-30.92-22.3-33.73-22.49-3.92-38,5.95-43.85,27.75a22.47,22.47,0,0,0-.5,9.77c2.12,12.43-4.44,19.56-20,21.64-9.82,1.32-19.4-6.53-19.88-17.15-.32-7-2.09-14.54,4.35-20.43a6,6,0,0,0,.48-8.21c-3.28-3.5-7.33-1-11,.13-21.47,6.59-39.32-6.58-39.5-29-.11-13.49,5.87-24.18,15.54-32.77,10.34-9.18,17.48-11.32,29.26-5.52,7.45,3.66,9.72,10.19,12.17,17,8.72,24.33,34,31,53,20.87,13.12-7,17.28-20,16.79-34.32-.39-11.75-5.64-20.82-16.14-26.38-11.57-6.12-24.95-2.91-30.21,7-5.57,10.46-1.49,26,8.44,32.2,6.64,4.12,19.35-.52,21.66-8,.7-2.28.69-4.61-1.17-6.47-2.62-2.61-5-.48-7.12.71-3.06,1.69-5.53,5.06-9.6,1.83-3.65-2.9-3.43-6.8-3.44-10.79,0-4.82,2.08-7.13,7-7.53,9.86-.79,17.58,5.12,18.71,14.82,2,17.09-5.85,29.23-19.88,30.81-13.85,1.55-27.84-10.66-29.66-25.88C903,253.41,918.3,236,950.22,236Z"/><path class="cls-9" d="M754.29,1473.89l1-.78c-.25.32-.51.64-.76,1Z"/><path class="cls-6" d="M658.44,83.05c1.42,13.81-5.54,23.47-14.52,31.49-4.62,4.12-5.81,7-2.53,12.24,8.56,13.59,7,27.52-2.07,39.58s-22.83,14-36.7,11.51c-6.28-1.11-7.9.26-7.46,5.93,2.17,28.24-26.66,50.81-56.68,42.2-6.86-2-13.07-5.47-17-11.31-6-9-12.26-10.16-21.14-3.76-6.54,4.73-15,5.28-22.68,4.53-12.88-1.26-25.15-15.37-24.83-29,.23-9.43-1.85-12.88-11.91-15.15-28.74-6.48-40.6-33.08-29.39-60.22a68.62,68.62,0,0,1,15.88-23.18c10.81-10.64,24.57-13.66,38-7.37,4.76,2.23,6.19,3.25,7.23-3.23,3.34-20.82,16.71-33,36.34-38.54,20.93-5.86,40-3.18,57,12.13,4.12,3.72,3.11,13.14,11,11.5,5.21-1.09,9.64-5.52,14.65-8,20.51-10.07,43.11-9.14,58.74,8C655.88,68.54,660,74.93,658.44,83.05ZM527.61,47.86c-31.92,0-47.21,17.37-43.39,49.4,1.81,15.22,15.81,27.43,29.65,25.88,14-1.58,21.87-13.73,19.89-30.81-1.13-9.7-8.85-15.62-18.72-14.82-5,.4-7.06,2.71-7,7.52,0,4-.21,7.9,3.45,10.8,4.07,3.23,6.54-.14,9.59-1.83,2.16-1.19,4.5-3.33,7.12-.72,1.87,1.87,1.88,4.2,1.17,6.47-2.3,7.47-15,12.12-21.65,8-9.93-6.17-14-21.74-8.45-32.2,5.27-9.88,18.64-13.09,30.21-7C539.94,74.13,545.18,83.2,545.58,95c.48,14.36-3.68,27.35-16.79,34.33-19,10.09-44.24,3.46-53-20.87-2.46-6.85-4.72-13.38-12.17-17-11.78-5.79-18.93-3.66-29.27,5.53-9.67,8.59-15.65,19.28-15.54,32.77.19,22.4,18,35.58,39.5,29,3.72-1.14,7.76-3.64,11-.14a6,6,0,0,1-.48,8.21c-6.44,5.9-4.66,13.44-4.35,20.44.48,10.61,10.06,18.46,19.88,17.15,15.55-2.08,22.1-9.22,20-21.64a22.52,22.52,0,0,1,.51-9.78c5.85-21.79,21.36-31.67,43.84-27.74,16.13,2.81,25.73,16.41,22.3,33.73-2.84,14.38-12,25.24-28.65,23.51-10.89-1.13-18.37-8.31-18.59-17.92-.26-12.07,7.16-21.63,17.8-23.37,5.21-.85,8,2.26,10.59,5.74,1.87,2.53,2.39,6,.31,8.29-2.89,3.22-5.74.47-8.73-1-5.14-2.54-7.14,2.3-9,5.28-2.56,4.06-.34,7.68,3.35,10.05,7,4.51,13.19,2.38,18.31-3.33,4.55-5.08,4.41-20.82.12-25.13-8.69-8.74-31.81-6-37.82,4.47-9.36,16.28,5.86,47.53,24.51,50.72,28.45,4.88,47.89-20.69,39.87-42.91-1.29-3.59-3.86-8-.46-11.13,3.74-3.43,8-.48,11.89,1.34a28.34,28.34,0,0,0,4.47,2.1c19.65,5.38,38.18-2.66,35.78-24.67-.9-8.27-6.43-13.41-11.85-18.65-10.64-10.29-24.07-8.27-32.63,4-3.61,5.17-2.92,9,.5,13.24s7.84,4.4,12.48,2.33c2.36-1.06,5.57-2.08,4.89-5.32-.72-3.48-3.53-3.08-6.33-2a4.41,4.41,0,0,1-5.87-2.22c-1.57-2.9,0-5.19,2.08-6.9,5-4,9.95-6.2,15.67-.56,7.25,7.17,7.06,18.54-1,25-7.32,5.94-18.38,6.5-26.72,1.36-7.13-4.4-10.76-14.57-8.24-24.43,5.27-20.69,28.49-26.09,44.42-18.48,3,1.41,5.36,3.82,9,2.56,15.64-5.38,21-31.39,8.72-42.75-9.53-8.85-27.38-11.38-39.72-5.94a73.55,73.55,0,0,0-23.19,16.44c-5.16,5.28-10.54,3.86-11.45-2.77C563.26,58.54,548.33,46.5,527.61,47.86Z"/><path class="cls-7" d="M527.61,47.86c20.72-1.36,35.65,10.68,38,27.93.91,6.63,6.29,8,11.45,2.77a73.55,73.55,0,0,1,23.19-16.44c12.34-5.44,30.19-2.91,39.72,5.94,12.24,11.36,6.92,37.37-8.72,42.75-3.67,1.26-6.07-1.15-9-2.56-15.93-7.61-39.15-2.21-44.42,18.48-2.52,9.86,1.11,20,8.24,24.43,8.34,5.14,19.4,4.58,26.72-1.36,8-6.48,8.2-17.85,1-25-5.72-5.64-10.66-3.45-15.67.56-2.13,1.71-3.65,4-2.08,6.9a4.41,4.41,0,0,0,5.87,2.22c2.8-1.05,5.61-1.45,6.33,2,.68,3.24-2.53,4.26-4.89,5.32-4.64,2.07-9,1.95-12.48-2.33s-4.11-8.07-.5-13.24c8.56-12.24,22-14.26,32.63-4,5.42,5.24,10.95,10.38,11.85,18.65,2.4,22-16.13,30.05-35.78,24.67a28.34,28.34,0,0,1-4.47-2.1c-3.85-1.82-8.15-4.77-11.89-1.34-3.4,3.12-.83,7.54.46,11.13,8,22.22-11.42,47.79-39.87,42.91-18.65-3.19-33.87-34.44-24.51-50.72,6-10.47,29.13-13.21,37.82-4.47,4.29,4.31,4.43,20.05-.12,25.13-5.12,5.71-11.27,7.84-18.31,3.33-3.69-2.37-5.91-6-3.35-10.05,1.88-3,3.88-7.82,9-5.28,3,1.47,5.84,4.22,8.73,1,2.08-2.33,1.56-5.76-.31-8.29-2.56-3.48-5.38-6.59-10.59-5.74-10.64,1.74-18.06,11.3-17.8,23.37.22,9.61,7.7,16.79,18.59,17.92,16.65,1.73,25.81-9.13,28.65-23.51,3.43-17.32-6.17-30.92-22.3-33.73-22.48-3.93-38,5.95-43.84,27.74a22.52,22.52,0,0,0-.51,9.78c2.12,12.42-4.43,19.56-20,21.64-9.82,1.31-19.4-6.54-19.88-17.15-.31-7-2.09-14.54,4.35-20.44a6,6,0,0,0,.48-8.21c-3.28-3.5-7.32-1-11,.14-21.46,6.59-39.31-6.59-39.5-29-.11-13.49,5.87-24.18,15.54-32.77,10.34-9.19,17.49-11.32,29.27-5.53,7.45,3.67,9.71,10.2,12.17,17,8.72,24.33,34,31,53,20.87,13.11-7,17.27-20,16.79-34.33-.4-11.75-5.64-20.82-16.15-26.37-11.57-6.12-24.94-2.91-30.21,7-5.57,10.46-1.48,26,8.45,32.2,6.64,4.12,19.35-.53,21.65-8,.71-2.27.7-4.6-1.17-6.47-2.62-2.61-5-.47-7.12.72-3,1.69-5.52,5.06-9.59,1.83C507.78,92.93,508,89,508,85c0-4.81,2.08-7.12,7-7.52,9.87-.8,17.59,5.12,18.72,14.82,2,17.08-5.86,29.23-19.89,30.81C500,124.69,486,112.48,484.22,97.26,480.4,65.23,495.69,47.82,527.61,47.86Z"/><path class="cls-6" d="M1321.44,47.05c1.42,13.81-5.54,23.47-14.52,31.49-4.62,4.12-5.81,7-2.53,12.24,8.56,13.59,6.95,27.52-2.07,39.58s-22.83,14-36.7,11.51c-6.28-1.11-7.9.26-7.46,5.93,2.17,28.24-26.66,50.81-56.68,42.2-6.86-2-13.07-5.47-17-11.31-6-9-12.26-10.16-21.14-3.76-6.54,4.73-15,5.28-22.68,4.53-12.88-1.26-25.15-15.37-24.83-29,.23-9.43-1.85-12.88-11.91-15.15-28.74-6.48-40.6-33.08-29.39-60.22a68.62,68.62,0,0,1,15.88-23.18c10.81-10.64,24.57-13.66,38-7.37,4.76,2.23,6.19,3.25,7.23-3.23,3.34-20.82,16.71-33,36.34-38.54,20.93-5.86,40-3.18,57,12.13,4.12,3.72,3.11,13.14,11,11.5,5.21-1.09,9.64-5.52,14.65-8,20.51-10.07,43.11-9.14,58.74,8.05C1318.88,32.54,1323,38.93,1321.44,47.05ZM1190.61,11.86c-31.92,0-47.21,17.37-43.39,49.4,1.81,15.22,15.81,27.43,29.65,25.88,14-1.58,21.87-13.73,19.89-30.81-1.13-9.7-8.85-15.62-18.72-14.82-5,.4-7.06,2.71-7,7.52,0,4-.21,7.9,3.45,10.8,4.07,3.23,6.54-.14,9.59-1.83,2.16-1.19,4.5-3.33,7.12-.72,1.87,1.87,1.88,4.2,1.17,6.47-2.3,7.47-15,12.12-21.65,8-9.93-6.17-14-21.74-8.45-32.2,5.27-9.88,18.64-13.09,30.21-7,10.51,5.55,15.75,14.62,16.15,26.37.48,14.36-3.68,27.35-16.79,34.33-19,10.09-44.24,3.46-53-20.87-2.46-6.85-4.72-13.38-12.17-17-11.78-5.79-18.93-3.66-29.27,5.53-9.67,8.59-15.65,19.28-15.54,32.77.19,22.4,18,35.58,39.5,29,3.72-1.14,7.76-3.64,11-.14a6,6,0,0,1-.48,8.21c-6.44,5.9-4.66,13.44-4.35,20.44.48,10.61,10.06,18.46,19.88,17.15,15.55-2.08,22.1-9.22,20-21.64a22.52,22.52,0,0,1,.51-9.78c5.85-21.79,21.36-31.67,43.84-27.74,16.13,2.81,25.73,16.41,22.3,33.73-2.84,14.38-12,25.24-28.65,23.51-10.89-1.13-18.37-8.31-18.59-17.92-.26-12.07,7.16-21.63,17.8-23.37,5.21-.85,8,2.26,10.59,5.74,1.87,2.53,2.39,6,.31,8.29-2.89,3.22-5.74.47-8.73-1-5.14-2.54-7.14,2.3-9,5.28-2.56,4.06-.34,7.68,3.35,10.05,7,4.51,13.19,2.38,18.31-3.33,4.55-5.08,4.41-20.82.12-25.13-8.69-8.74-31.81-6-37.82,4.47-9.36,16.28,5.86,47.53,24.51,50.72,28.45,4.88,47.89-20.69,39.87-42.91-1.29-3.59-3.86-8-.46-11.13,3.74-3.43,8-.48,11.89,1.34a28.34,28.34,0,0,0,4.47,2.1c19.65,5.38,38.18-2.66,35.78-24.67-.9-8.27-6.43-13.41-11.85-18.65-10.64-10.29-24.07-8.27-32.63,4-3.61,5.17-2.92,9,.5,13.24s7.84,4.4,12.48,2.33c2.36-1.06,5.57-2.08,4.89-5.32-.72-3.48-3.53-3.08-6.33-2a4.41,4.41,0,0,1-5.87-2.22c-1.57-2.9,0-5.19,2.08-6.9,5-4,10-6.2,15.67-.56,7.25,7.17,7.06,18.54-1,25-7.32,5.94-18.38,6.5-26.72,1.36-7.13-4.4-10.76-14.57-8.24-24.43,5.27-20.69,28.49-26.09,44.42-18.48,3,1.41,5.36,3.82,9,2.56,15.64-5.38,21-31.39,8.72-42.75-9.53-8.85-27.38-11.38-39.72-5.94a73.55,73.55,0,0,0-23.19,16.44c-5.16,5.28-10.54,3.86-11.45-2.77C1226.26,22.54,1211.33,10.5,1190.61,11.86Z"/><path class="cls-7" d="M1190.61,11.86c20.72-1.36,35.65,10.68,38,27.93.91,6.63,6.29,8.05,11.45,2.77a73.55,73.55,0,0,1,23.19-16.44c12.34-5.44,30.19-2.91,39.72,5.94,12.24,11.36,6.92,37.37-8.72,42.75-3.67,1.26-6.07-1.15-9-2.56-15.93-7.61-39.15-2.21-44.42,18.48-2.52,9.86,1.11,20,8.24,24.43,8.34,5.14,19.4,4.58,26.72-1.36,8-6.48,8.2-17.85,1-25-5.72-5.64-10.66-3.45-15.67.56-2.13,1.71-3.65,4-2.08,6.9a4.41,4.41,0,0,0,5.87,2.22c2.8-1,5.61-1.45,6.33,2,.68,3.24-2.53,4.26-4.89,5.32-4.64,2.07-9,2-12.48-2.33s-4.11-8.07-.5-13.24c8.56-12.24,22-14.26,32.63-4,5.42,5.24,11,10.38,11.85,18.65,2.4,22-16.13,30.05-35.78,24.67a28.34,28.34,0,0,1-4.47-2.1c-3.85-1.82-8.15-4.77-11.89-1.34-3.4,3.12-.83,7.54.46,11.13,8,22.22-11.42,47.79-39.87,42.91-18.65-3.19-33.87-34.44-24.51-50.72,6-10.47,29.13-13.21,37.82-4.47,4.29,4.31,4.43,20.05-.12,25.13-5.12,5.71-11.27,7.84-18.31,3.33-3.69-2.37-5.91-6-3.35-10.05,1.88-3,3.88-7.82,9-5.28,3,1.47,5.84,4.22,8.73,1,2.08-2.33,1.56-5.76-.31-8.29-2.56-3.48-5.38-6.59-10.59-5.74-10.64,1.74-18.06,11.3-17.8,23.37.22,9.61,7.7,16.79,18.59,17.92,16.65,1.73,25.81-9.13,28.65-23.51,3.43-17.32-6.17-30.92-22.3-33.73-22.48-3.93-38,5.95-43.84,27.74a22.52,22.52,0,0,0-.51,9.78c2.12,12.42-4.43,19.56-20,21.64-9.82,1.31-19.4-6.54-19.88-17.15-.31-7-2.09-14.54,4.35-20.44a6,6,0,0,0,.48-8.21c-3.28-3.5-7.32-1-11,.14-21.46,6.59-39.31-6.59-39.5-29-.11-13.49,5.87-24.18,15.54-32.77,10.34-9.19,17.49-11.32,29.27-5.53,7.45,3.67,9.71,10.2,12.17,17,8.72,24.33,34,31,53,20.87,13.11-7,17.27-20,16.79-34.33-.4-11.75-5.64-20.82-16.15-26.37-11.57-6.12-24.94-2.91-30.21,7-5.57,10.46-1.48,26,8.45,32.2,6.64,4.12,19.35-.53,21.65-8,.71-2.27.7-4.6-1.17-6.47-2.62-2.61-5-.47-7.12.72-3,1.69-5.52,5.06-9.59,1.83-3.66-2.9-3.44-6.8-3.45-10.8,0-4.81,2.08-7.12,7-7.52,9.87-.8,17.59,5.12,18.72,14.82,2,17.08-5.86,29.23-19.89,30.81C1163,88.69,1149,76.48,1147.22,61.26,1143.4,29.23,1158.69,11.82,1190.61,11.86Z"/><path class="cls-4" d="M735,201c-1.48-1.64-3.53-1.42-5.44-1.78-15.89-3.05-25.33-17.28-21.48-33,4.57-18.62,16.31-30.2,35.16-34.32,4.06-.89,8.14-1.67,13.51-2.76l-31.15-21.9a38,38,0,0,0-12-15.53l-1-7.24c.53-8.17-.23-16.58,4.45-24l3.93-4,13.9-5.88c24.08-2.31,40.94,10.77,56.6,27.1a143.21,143.21,0,0,1-1.28-25.61c1.07-20.09,16.61-34.85,36-34.28,18.08.54,32.45,16,33.48,35.06.62,11.58-1.86,22.68-3.79,34.56,11.42-11.4,24.63-16,40.31-15.36,11.93.53,20.95,6.78,30.49,12.43,9.49,14.7,8.67,28.12-4.88,40-.63.56-.69,1.78-1,2.7-14.46,6-28.51,13-46.14,16.91,15.19,4.54,26.86,10,36.37,19.79,11.71,12.11,10.68,26,7.33,40.59-4.92,2.13-8,6.31-11.45,10.16-21,9.86-38.16,2.11-54-11.73-1.64-1.42-3-4.15-5.63-3.07-2.8,1.17-1.4,4.1-1.26,6.17.84,12.55-1,23.94-10,33.84-11.6,12.73-25.86,14.31-41.52,12-2.12-2.37-4-5-7.61-5.33l-4.49-9.75q-1.23-6.06-2.48-12.12,1.07-10.69,2.12-21.4c1.6-4.25,3.24-8.49,4.79-12.76.74-2.05,2.6-4.29.53-6.3s-4.29-.15-6.16.9c-5.64,3.17-11.19,6.5-16.77,9.77l-19.34,5C741.49,198.55,738.34,200.8,735,201Zm84.88-35.16a29.35,29.35,0,0,0,29.69-29.06c.21-16-14.12-30.69-29.84-30.63-16.56.06-30.71,13.74-30.79,29.74C788.84,153.38,801.77,165.9,819.86,165.84Z"/><path class="cls-4" d="M-79,162c-1.48-1.64-3.53-1.42-5.44-1.78-15.89-3.05-25.33-17.28-21.48-33,4.57-18.62,16.31-30.2,35.16-34.32,4.06-.89,8.14-1.67,13.51-2.76l-31.15-21.9a38,38,0,0,0-12-15.53l-1-7.24c.53-8.17-.23-16.58,4.45-24l3.93-4,13.9-5.88c24.08-2.31,40.94,10.77,56.6,27.1a143.21,143.21,0,0,1-1.28-25.61C-22.75-7-7.21-21.74,12.19-21.17c18.08.54,32.45,16,33.48,35.06.62,11.58-1.86,22.68-3.79,34.56,11.42-11.4,24.63-16,40.31-15.36,11.93.53,21,6.78,30.49,12.43,9.49,14.7,8.67,28.12-4.88,40-.63.56-.69,1.78-1,2.7-14.46,6-28.51,13-46.14,16.91C75.83,109.71,87.5,115.14,97,125c11.71,12.11,10.68,26,7.33,40.59-4.92,2.13-8,6.31-11.45,10.16-21,9.86-38.16,2.11-54-11.73-1.64-1.42-3-4.15-5.63-3.07-2.8,1.17-1.4,4.1-1.26,6.17.84,12.55-1,23.94-10,33.84-11.6,12.73-25.86,14.31-41.52,12-2.12-2.37-4-5-7.61-5.33l-4.49-9.75q-1.23-6.06-2.48-12.12Q-33.08,175-32,164.31c1.6-4.25,3.24-8.49,4.79-12.76.74-2.05,2.6-4.29.53-6.3s-4.29-.15-6.16.9c-5.64,3.17-11.19,6.5-16.77,9.77l-19.34,5C-72.51,159.55-75.66,161.8-79,162ZM5.86,126.84A29.35,29.35,0,0,0,35.55,97.78c.21-16-14.12-30.69-29.84-30.63C-10.85,67.21-25,80.89-25.08,96.89-25.16,114.38-12.23,126.9,5.86,126.84Z"/><path class="cls-6" d="M182.52,150.18c.92-18.69,9.56-27.53,33.38-33.25-8.49-4.59-14.91-10.47-20.92-16.88-9.23-9.86-11-22.23-4.2-30.26,6.66-7.84,23-9.07,32.74-2.59C228.61,70.58,234,78.87,238.09,77c5.24-2.4,1.25-11.28,2-17.3,1.42-11.17,11.37-18.71,25-18.56,12.1.13,21.6,8.09,22.45,19.06a95,95,0,0,1,0,12.85c-.24,4.15-1,8.27-1.57,13.22,7.62-2,12.84-7,20.13-8.45,11.68-2.26,20.4,2.27,27.65,9.32,10,9.76,5.46,24.39-8.85,31.05-6.81,3.16-13.81,5.91-22.22,9.48,11.23,6.26,23.38,10.41,26.16,23,1.55,7,1.61,14.81-3.68,21.64-8.77,11.33-20.94,10.29-45.1-5.1-1.11,5.95-.06,11.82-2.21,17.45-5.09,13.36-23.71,23.89-34.87,16.55-5.31-3.48-8.94-7.5-8.92-14.19.05-10.45-1-21,5.87-32.84-21.15,10.34-39.92,21.91-57.47-.12C182.53,152.75,182.52,151.46,182.52,150.18ZM240.11,122c-.11,12.48,8.08,20.84,20.84,21.37,7.31.31,21.53-10.12,20.75-21.27-.71-10.12-10.53-20.89-20.13-20.86C249,101.32,240.21,109.84,240.11,122Z"/><path class="cls-6" d="M944.44,1785.05c1.42,13.81-5.54,23.47-14.52,31.49-4.62,4.12-5.81,7-2.53,12.24,8.56,13.59,7,27.52-2.07,39.58s-22.83,14-36.7,11.51c-6.28-1.11-7.9.26-7.46,5.93,2.17,28.24-26.66,50.81-56.68,42.2-6.86-2-13.07-5.47-17-11.31-6-9-12.26-10.16-21.14-3.76-6.54,4.73-15,5.28-22.68,4.53-12.88-1.26-25.15-15.37-24.83-29,.23-9.43-1.85-12.88-11.91-15.15-28.74-6.48-40.6-33.08-29.39-60.22a68.62,68.62,0,0,1,15.88-23.18c10.81-10.64,24.57-13.66,38-7.37,4.76,2.23,6.19,3.25,7.23-3.23,3.34-20.82,16.71-33,36.34-38.54,20.93-5.86,40-3.18,57,12.13,4.12,3.72,3.11,13.14,11,11.5,5.21-1.09,9.64-5.52,14.65-8,20.51-10.07,43.11-9.14,58.74,8C941.88,1770.54,946,1776.93,944.44,1785.05Zm-130.83-35.19c-31.92,0-47.21,17.37-43.39,49.4,1.81,15.22,15.81,27.43,29.65,25.88,14-1.58,21.87-13.73,19.89-30.81-1.13-9.7-8.85-15.62-18.72-14.82-5,.4-7.06,2.71-7,7.52,0,4-.21,7.9,3.45,10.8,4.07,3.23,6.54-.14,9.59-1.83,2.16-1.19,4.5-3.33,7.12-.72,1.87,1.87,1.88,4.2,1.17,6.47-2.3,7.47-15,12.12-21.65,8-9.93-6.17-14-21.74-8.45-32.2,5.27-9.88,18.64-13.09,30.21-7,10.51,5.55,15.75,14.62,16.15,26.37.48,14.36-3.68,27.35-16.79,34.33-19,10.09-44.24,3.46-53-20.87-2.46-6.85-4.72-13.38-12.17-17.05-11.78-5.79-18.93-3.66-29.27,5.53-9.67,8.59-15.65,19.28-15.54,32.77.19,22.4,18,35.58,39.5,29,3.72-1.14,7.76-3.64,11-.14a6,6,0,0,1-.48,8.21c-6.44,5.9-4.66,13.44-4.35,20.44.48,10.61,10.06,18.46,19.88,17.15,15.55-2.08,22.1-9.22,20-21.64a22.52,22.52,0,0,1,.51-9.78c5.85-21.79,21.36-31.67,43.84-27.74,16.13,2.81,25.73,16.41,22.3,33.73-2.84,14.38-12,25.24-28.65,23.51-10.89-1.13-18.37-8.31-18.59-17.92-.26-12.07,7.16-21.63,17.8-23.37,5.21-.85,8,2.26,10.59,5.74,1.87,2.53,2.39,6,.31,8.29-2.89,3.22-5.74.47-8.73-1-5.14-2.54-7.14,2.3-9,5.28-2.56,4.06-.34,7.68,3.35,10,7,4.51,13.19,2.38,18.31-3.33,4.55-5.08,4.41-20.82.12-25.13-8.69-8.74-31.81-6-37.82,4.47-9.36,16.28,5.86,47.53,24.51,50.72,28.45,4.88,47.89-20.69,39.87-42.91-1.29-3.59-3.86-8-.46-11.13,3.74-3.43,8-.48,11.89,1.34a28.34,28.34,0,0,0,4.47,2.1c19.65,5.38,38.18-2.66,35.78-24.67-.9-8.27-6.43-13.41-11.85-18.65-10.64-10.29-24.07-8.27-32.63,4-3.61,5.17-2.92,9,.5,13.24s7.84,4.4,12.48,2.33c2.36-1.06,5.57-2.08,4.89-5.32-.72-3.48-3.53-3.08-6.33-2a4.41,4.41,0,0,1-5.87-2.22c-1.57-2.9,0-5.19,2.08-6.9,5-4,9.95-6.2,15.67-.56,7.25,7.17,7.06,18.54-1,25-7.32,5.94-18.38,6.5-26.72,1.36-7.13-4.4-10.76-14.57-8.24-24.43,5.27-20.69,28.49-26.09,44.42-18.48,3,1.41,5.36,3.82,9,2.56,15.64-5.38,21-31.39,8.72-42.75-9.53-8.85-27.38-11.38-39.72-5.94a73.55,73.55,0,0,0-23.19,16.44c-5.16,5.28-10.54,3.86-11.45-2.77C849.26,1760.54,834.33,1748.5,813.61,1749.86Z"/><path class="cls-7" d="M813.61,1749.86c20.72-1.36,35.65,10.68,38,27.93.91,6.63,6.29,8,11.45,2.77a73.55,73.55,0,0,1,23.19-16.44c12.34-5.44,30.19-2.91,39.72,5.94,12.24,11.36,6.92,37.37-8.72,42.75-3.67,1.26-6.07-1.15-9-2.56-15.93-7.61-39.15-2.21-44.42,18.48-2.52,9.86,1.11,20,8.24,24.43,8.34,5.14,19.4,4.58,26.72-1.36,8-6.48,8.2-17.85,1-25-5.72-5.64-10.66-3.45-15.67.56-2.13,1.71-3.65,4-2.08,6.9a4.41,4.41,0,0,0,5.87,2.22c2.8-1,5.61-1.45,6.33,2,.68,3.24-2.53,4.26-4.89,5.32-4.64,2.07-9,2-12.48-2.33s-4.11-8.07-.5-13.24c8.56-12.24,22-14.26,32.63-4,5.42,5.24,10.95,10.38,11.85,18.65,2.4,22-16.13,30-35.78,24.67a28.34,28.34,0,0,1-4.47-2.1c-3.85-1.82-8.15-4.77-11.89-1.34-3.4,3.12-.83,7.54.46,11.13,8,22.22-11.42,47.79-39.87,42.91-18.65-3.19-33.87-34.44-24.51-50.72,6-10.47,29.13-13.21,37.82-4.47,4.29,4.31,4.43,20-.12,25.13-5.12,5.71-11.27,7.84-18.31,3.33-3.69-2.37-5.91-6-3.35-10,1.88-3,3.88-7.82,9-5.28,3,1.47,5.84,4.22,8.73,1,2.08-2.33,1.56-5.76-.31-8.29-2.56-3.48-5.38-6.59-10.59-5.74-10.64,1.74-18.06,11.3-17.8,23.37.22,9.61,7.7,16.79,18.59,17.92,16.65,1.73,25.81-9.13,28.65-23.51,3.43-17.32-6.17-30.92-22.3-33.73-22.48-3.93-38,5.95-43.84,27.74a22.52,22.52,0,0,0-.51,9.78c2.12,12.42-4.43,19.56-20,21.64-9.82,1.31-19.4-6.54-19.88-17.15-.31-7-2.09-14.54,4.35-20.44a6,6,0,0,0,.48-8.21c-3.28-3.5-7.32-1-11,.14-21.46,6.59-39.31-6.59-39.5-29-.11-13.49,5.87-24.18,15.54-32.77,10.34-9.19,17.49-11.32,29.27-5.53,7.45,3.67,9.71,10.2,12.17,17.05,8.72,24.33,34,31,53,20.87,13.11-7,17.27-20,16.79-34.33-.4-11.75-5.64-20.82-16.15-26.37-11.57-6.12-24.94-2.91-30.21,7-5.57,10.46-1.48,26,8.45,32.2,6.64,4.12,19.35-.53,21.65-8,.71-2.27.7-4.6-1.17-6.47-2.62-2.61-5-.47-7.12.72-3,1.69-5.52,5.06-9.59,1.83-3.66-2.9-3.44-6.8-3.45-10.8,0-4.81,2.08-7.12,7-7.52,9.87-.8,17.59,5.12,18.72,14.82,2,17.08-5.86,29.23-19.89,30.81-13.84,1.55-27.84-10.66-29.65-25.88C766.4,1767.23,781.69,1749.82,813.61,1749.86Z"/><path class="cls-4" d="M1073.55,1898.22c-1.73-1.91-4.12-1.65-6.36-2.08-18.58-3.57-29.62-20.2-25.11-38.55,5.34-21.77,19.07-35.32,41.12-40.14,4.74-1,9.51-2,15.8-3.23l-36.44-25.61a44.41,44.41,0,0,0-14-18.16l-1.2-8.47c.63-9.55-.27-19.38,5.2-28l4.61-4.71,16.25-6.88c28.16-2.7,47.87,12.6,66.18,31.69a166.8,166.8,0,0,1-1.49-29.94c1.25-23.5,19.43-40.76,42.11-40.09,21.14.63,38,18.66,39.15,41,.73,13.54-2.18,26.52-4.43,40.41,13.36-13.33,28.8-18.76,47.14-18,14,.62,24.5,7.92,35.66,14.53,11.1,17.19,10.13,32.89-5.71,46.83-.74.66-.81,2.09-1.19,3.15-16.92,7-33.34,15.17-54,19.79,17.76,5.31,31.41,11.66,42.53,23.14,13.7,14.16,12.49,30.42,8.57,47.46-5.75,2.5-9.4,7.38-13.39,11.88-24.56,11.54-44.62,2.48-63.19-13.71-1.9-1.66-3.54-4.85-6.57-3.59-3.28,1.37-1.65,4.8-1.48,7.21,1,14.67-1.16,28-11.71,39.57-13.56,14.9-30.24,16.75-48.55,14-2.48-2.76-4.72-5.89-8.9-6.22q-2.62-5.7-5.24-11.41L1126,1926q1.24-12.51,2.48-25c1.87-5,3.79-9.93,5.6-14.93.87-2.39,3.05-5,.63-7.36s-5-.18-7.21,1c-6.6,3.7-13.09,7.6-19.61,11.43l-22.62,5.86C1081.17,1895.36,1077.49,1898,1073.55,1898.22Zm99.27-41.12c19.27-.06,34.47-14.94,34.72-34,.24-18.7-16.51-35.89-34.9-35.83-19.36.08-35.91,16.07-36,34.78C1136.54,1842.53,1151.66,1857.17,1172.82,1857.1Z"/><path class="cls-6" d="M426.52,1834.18c.92-18.69,9.56-27.53,33.38-33.25-8.49-4.59-14.91-10.47-20.92-16.88-9.23-9.86-11-22.23-4.2-30.26,6.66-7.84,23-9.07,32.74-2.59,5.09,3.38,10.45,11.67,14.57,9.78,5.24-2.4,1.25-11.28,2-17.3,1.42-11.17,11.37-18.71,25-18.56,12.1.13,21.6,8.09,22.45,19.06a95,95,0,0,1,0,12.85c-.24,4.15-1,8.27-1.57,13.22,7.62-2,12.84-7,20.13-8.45,11.68-2.26,20.4,2.27,27.65,9.32,10,9.76,5.46,24.39-8.85,31.05-6.81,3.16-13.81,5.91-22.22,9.48,11.23,6.26,23.38,10.41,26.16,23,1.55,7,1.61,14.81-3.68,21.64-8.77,11.33-20.94,10.29-45.1-5.1-1.11,6-.06,11.82-2.21,17.45-5.09,13.36-23.71,23.89-34.87,16.55-5.31-3.48-8.94-7.5-8.92-14.19.05-10.45-1-21,5.87-32.84-21.15,10.34-39.92,21.91-57.47-.12C426.53,1836.75,426.52,1835.46,426.52,1834.18ZM484.11,1806c-.11,12.48,8.08,20.84,20.84,21.37,7.31.31,21.53-10.12,20.75-21.27-.71-10.12-10.53-20.89-20.13-20.86C493,1785.32,484.21,1793.84,484.11,1806Z"/><text/><path class="cls-8" d="M654.73,974.56l-.18.81a32.5,32.5,0,0,1-5.83,4.76q1.77,1.46-9.86,16.57,1.41,2.92-16.88,26.26l-.94,1.14q-6.79,2.06-7.65,1.35l-2.28-1.88q-2.37-2,7.31-15.82l4.38-5.31q8.54-10.35,22-25.53a8.27,8.27,0,0,1,1.68-4.35l-.57-.47q-3.88-3.21-24.39.76a20.58,20.58,0,0,1-5,.4,29.52,29.52,0,0,1-4.42-.54l-12.74,2.88-4-3.29q-1.73-2.53,1.95-7l1.88-2.27a58.06,58.06,0,0,1,6.41-4.29l2.27-2.75q2.58-3.13.77-14.67a47.93,47.93,0,0,0,4.89-8.24q6.78-4,20.54,7.38l2.19,1.8q14.13,11.65,14.83,18.93l2.28,1.88.47-.57q1.41-1.71,8.27-11.19a7.14,7.14,0,0,0,2.63.25l1.12.93q3.93,3.24-2.1,10.55l-1.88,2.27a.81.81,0,0,0-1,0l.86.7,2,1.65c.82.67,1.77,1.52,2.86,2.52l-1,5.42-2.43,2.94-2.15,1.26Zm-34.9-25L618.15,954a5.55,5.55,0,0,0-2,1.23c.44.37-.21,2.7-1.95,7q2.06,1.37,29-1.74,1.41-1.71-4.85-6.87a35.89,35.89,0,0,0-6.55-4.53,11,11,0,0,0-4.53-1.27,9.44,9.44,0,0,0-3.62.61A33.19,33.19,0,0,1,619.83,949.6Z"/><path class="cls-8" d="M665.23,968.3l.58.46a29.69,29.69,0,0,1,3,4.31c.77.61,1.88,1.45,3.34,2.51s3.11,2.26,5,3.57l5.75,4.13c2,1.44,3.92,2.91,5.78,4.39.38.31.76.24,1.11-.21l2.44,3.06,4.8,3.84c.64.51.87,2.33.69,5.44l-2.38,3q-.76,1-9-1.19c-1.12-1.1-2.05-2-2.79-2.71s-1.35-1.24-1.8-1.59l-3.07-2.46-.46.57q.38,9.76-9.64,26.8l-1.5.69q-.08,1.67-3.59,7a24.16,24.16,0,0,0-5.9,3.63q-3.71,2.87-9.28,7.86-10.54,4.32-13.43,2-.86-.69-12-3.58l-2.4-1.92q-4.12-3.3-.74-7.53,2.76-3.47,12.77,2.35,10.63,2.84,17.48-5.7.59.46,6.46-5.7,18.06-25.73,11-34.56a8.06,8.06,0,0,0-2.57-5q-7-4.65-7.37-5l.34-1.61,5.31-6.63A1.38,1.38,0,0,1,665.23,968.3Z"/><path class="cls-8" d="M690,990.42a35.83,35.83,0,0,1,6.18,3.28A41,41,0,0,0,700,1001l.46-.58q2.65-3.39,7.76-11.11a4.91,4.91,0,0,1,2.89.7q2.24,1.76-4.48,14.3c.72.15,1.53.34,2.43.58s2,.47,3.15.67a54.16,54.16,0,0,1,5.48,6.17l5.32,3.39-8,6.05c-2-2.09-2.91-3.27-2.7-3.52l-7.7-3.54a5.12,5.12,0,0,0-3-1.12l-7.41,11.85q-6.14,12.22-22.67,35.52-6.29,4.62-9.74,3.46l-.39-.3q-6-4.71,9.39-24.36,2.43-3.09,11.25-12,14.57-18.6,7.69-24l-4.86-6.16Z"/><path class="cls-8" d="M741.5,1028.28l3.58,3.2,5.65,4.16a.66.66,0,0,0,.14,1q-7,9.18-9.46,7.32-.39-.3-7.67-6.78-14.68-.23-24.08,12.09l-5.23,6.85q-6,15.72-3.62,29.27l.69.52q7.71-2,11.23.68,3.42,5.86,1.63,8.21-7.14,8.33-15.34,2.06-6.94-5.3-6.38-26.53-1.39-13.75,3.68-20.41l1.86-2.44q7-9.19,24.1-19.67l-8.53-6-7-6.26q-.45.59-1.14.06a.64.64,0,0,0-.14-1q6.94-6.47,11.31-4.06Z"/><path class="cls-8" d="M728.25,1097.74q7.66,11.84,5.85,14.31l-2.11,2.89c-.34.46-2,.75-5,.87l-1.2-.87q-4.17-3-7.38-13.46l1.31-1.79C722.28,1096.12,725.14,1095.46,728.25,1097.74ZM787,1061.45q.26,1.11,3.53,3.5l4.67,3.41c1.19,2,1.59,3.39,1.19,4.22l-2.1,2.88c-2.81.79-5.15.51-7-.85l-2.05-2.41c-.89-.44-1.55-.37-2,.23l-5.73,7.84a32.7,32.7,0,0,1-2.18,2.68c-.78.85-1.59,1.73-2.45,2.62q-1.83,3.56-3,5.8a29.15,29.15,0,0,1-2,3.35q-4.87,5.41-5.53,6.32-11.62,19.07-6.86,22.55v3.34l-1.67,2.29a1.19,1.19,0,0,1-1.89.29l-.5-.36q-1.49-1.1-7.16-13.76-2.88-2.1-9.33-21.43-8.55-22.08-8.1-23.12,3.51-2.31,16.9-.61,21.53,1,27.31.14l.79-1.09q2.77-4.85-.61-7.3a25.47,25.47,0,0,1-8.15-4.28l-.49-.36a7.84,7.84,0,0,1-1.93-2.16,32.83,32.83,0,0,1-9.67-4.48l-.5-.36a5.41,5.41,0,0,1-1.85-2.27,30.62,30.62,0,0,1-8.64-4.63c-1.12-1.53-1.44-2.62-1-3.29l2.47-3.38c2.08-2.84,4-4,5.81-3.37l34.17,24.95A32.66,32.66,0,0,0,787,1061.45Zm-46.15,19.62-2.83,3.87q2.78,2,10.29,21.37l.5.36c.58-.79,1.07-1,1.46-.75q2-3.84,5.59-9.63t8.68-13.46l-1.09-.8a39.2,39.2,0,0,0-6.25,0q-3.84.24-9,.88Z"/><path class="cls-8" d="M838,1079q18.47,16.79,15.94,20.43l-2.54,1.08q-8.94-6.77-14.49-11t-8.18-6.55q-16.42-7.61-18.72-4.71l.91.63q1.71,1.18,3.6,2.79t4.24,3.82l-1.13,4-2.16,3.14-2.65,1-8.37-5.63c-.4-.28-1.46-.12-3.18.49q1.22.84-20.37,33.62a42.18,42.18,0,0,0-4.52,5.24,6.73,6.73,0,0,1-1.21,3.06l-3.2,3.32-2.54,5c-2.11,1.33-3.68,1.8-4.69,1.39l-.61-.42q-4.35-3-3.62-6.23,6.69-10.77,15.15-23.55t18.93-28L789,1078c-1.78-1.24-3.5-2.47-5.14-3.71a8.43,8.43,0,0,1,1-5.85,9.27,9.27,0,0,1,5.66-3.42,45.22,45.22,0,0,1,5,3c.74.51,1.49,1.06,2.24,1.63s1.51,1.17,2.28,1.79q11-10.23,31.19,3.76C831.72,1075.53,834,1076.8,838,1079Z"/><path class="cls-8" d="M848.75,1126.05q-1.07,2.09-2.63,5.18c-1,2.06-2.31,4.46-3.81,7.21l-6.12-7.06a11,11,0,0,0-.61-4.14,28.31,28.31,0,0,0-1.7-4,22.67,22.67,0,0,0-2-3.18,8.14,8.14,0,0,0-1.4-1.57q-1.54-1-17.1,11.63c-2.18.34-3.61.29-4.3-.16q-11.46-9.21-7.11-15.92l-.83-1.42q10.88-9.51,16.75-5.69.47-.72,8.63,3l3.71,2.42a8.61,8.61,0,0,1,2.81,3.58l3.5,1.39,6.18,4,.14-.2Zm-2.73-9.56c0-.47-.37-1.09-1.15-1.84a35.79,35.79,0,0,0-3.19-2.66q-2-1.53-4.71-3.36c-1.8-1.22-3.69-2.56-5.66-4q-3.7-1.53-4.11-1.8l-3.93-3.43L809.16,1092q-.45-3.37,3-8.63l.4-.62c.61-.49,1.7-.39,3.26.28a58.88,58.88,0,0,1,6.11,3.24q3.76,2.23,9,5.53t11.89,7.21a33.51,33.51,0,0,0,6.62,6.07l4.33,2.81q9.57,4.46,10,4.73c.49,2.86.66,4.39.53,4.6l-.81,1.24Q859,1125.21,854,1122l-1.86-1.21-1.11,1.48Z"/><path class="cls-8" d="M893.29,1128l3.61,1.86q4.26,2.24.79,8.46l-.59,1.08q-3.84,3.36-18.46-4.76c-2.1-1.63-4.25-3.21-6.46-4.71s-4.5-2.92-6.87-4.24l-.53-.29q-6.51-2.49-8,.2-10.54,16-12.33,19.18l-4,7.21-1.38,4a6.61,6.61,0,0,0-2.38,2.76l1.67,7.12q12.27,6.81,21.6.88l.24-.43a6,6,0,0,0,0-6.34l-.23.16a29.71,29.71,0,0,0-3.1-2.64q-1.85-1.37-4.2-3l-.94-1.09a4.09,4.09,0,0,1,.25-3.23,4.45,4.45,0,0,1,2.54-2.18,9.4,9.4,0,0,1,3.49-.46,18.27,18.27,0,0,1,3.61.6,13.65,13.65,0,0,1,3,1.15,14.68,14.68,0,0,1,5,4.23,15.27,15.27,0,0,1,2.39,5.06,13.93,13.93,0,0,1,.39,5,10.55,10.55,0,0,1-1.16,4c.86.48.73,1.73-.38,3.73q-8.29,15-26,13a5.85,5.85,0,0,1-2.84-.72l-3.65-2a44.21,44.21,0,0,1-7.93-9,24,24,0,0,1-3.39-8.22,18,18,0,0,1,.16-7.51,27.37,27.37,0,0,1,2.66-6.82q6.91-10.93,9.25-15.13l1.74-4.66a22.65,22.65,0,0,0,3.69-5.12l.6-1.08,1.44-4.12a4.82,4.82,0,0,0,2-2l-1-1.25a19.41,19.41,0,0,0-7.72-1q-3.42-3.72-2.82-4.8l.65-1.19c2.11-3.79,4.57-6.37,7.38-7.71q8.36,5.48,11.58,7.27l1.08.59q5.7,3.16,14.34,7.12a26.07,26.07,0,0,1,2,2l1.24.55c5.84,2.31,9.15,2.78,9.9,1.42l.72-1.3q-8.14-7.89-8.89-8.31l-2.94-.79q-24.75-17.25-21.65-22.84l1.08-1.94q3.89-7,9-4.12,4.11,3,2,6.85l-2.86,5.17q14.84,10.77,17.53,12.26a37.87,37.87,0,0,1,6.16,2.58q13,9.75,7.7,19.33C893.14,1127.79,893.26,1127.9,893.29,1128Z"/><path class="cls-8" d="M878,1172.78a26.85,26.85,0,0,1,4.88-4.55l4.33-1.82q7.68-2.09,12.84.24a18.91,18.91,0,0,1,4.19,3,18.22,18.22,0,0,1,3.62,4.86l1.25,2.32q.84,1.73,1.18,6.66c.22,3.3.3,7.62.23,13l-3,18.07-2.11.8a10.88,10.88,0,0,1-5.08-.4,2.17,2.17,0,0,1-1.09-.89l-.72-1.4q3.22-11.64,2-15.17,1.14-10,.29-11.74l-2.08-3.76-1.51-2.64c-.45-.79-.9-1.5-1.33-2.15l-2.34-.78-6.77,1.27c-.92.84-1.76,1.59-2.5,2.24s-1.83.67-3.25,0Q876.58,1178,878,1172.78Zm35.56-35.25,4,1.81q9.78,8.85,6.05,17.15l-.31.68q-4.44,9.87-21.55,4.73-6.81-6.17-8.05-12.39l2.36-7Q904.76,1133.59,913.51,1137.53Zm-9.7,9.26q-1.56,3.46,1.2,7.82l2,.91c.52.23,2.35-.83,5.49-3.2l.6-1.35a5.1,5.1,0,0,0-1.24-6.22Q909.41,1143.64,903.81,1146.79Z"/><path class="cls-8" d="M985.83,1172.79l4.06,2.59,6.18,3.31a.66.66,0,0,0,.3,1q-5.39,10.08-8.1,8.63-.43-.22-8.66-5.46-14.54,2.13-21.84,15.79l-4.06,7.6q-3.37,16.47,1.11,29.47l.76.4q7.29-3.21,11.2-1.12,4.32,5.24,2.92,7.84-5.7,9.36-14.81,4.49-7.71-4.12-10.54-25.17-3.58-13.35.36-20.73l1.45-2.71a59.47,59.47,0,0,1,7.71-10.73,126.61,126.61,0,0,1,12.93-12.55,29.3,29.3,0,0,1,11.75-6Z"/><path class="cls-8" d="M994.6,1178.09l20.32,11.3,12.77,7q7,3.83,15.53,8.39l1.71,0a27.22,27.22,0,0,0,5,4.54q.42.23,22.4,11.32c2.52,1.38,3.62,3.63,3.32,6.74l-.36.64a9.33,9.33,0,0,1-2.54,3.24,4.23,4.23,0,0,1-3.38.39,26.82,26.82,0,0,1-5.56-2.14q-3.42-1.68-9.1-4.37-.33-1.72-12.5-8.42l-2.91-1.59c-1.81,1.25-2.93,1.75-3.37,1.52a7.72,7.72,0,0,1-1.13,3.59l.65.35c2.44,1.34,4.07,2,4.88,1.84a35,35,0,0,0,5.36,3.79l3.24,1.77q6.57,12.32,4.61,15.87-2.21,7.08-2.61,7.83-4.62,8.4-21.24,6.72l-2.94-.78q-.23-2.64,2.5-12l1.07-1.94q.76-1.39,6.19-.8l1.07-1.94c-1.84-2.79-2.42-4.79-1.75-6,2.4-1.3,3.86-2.41,4.37-3.35l-.94-1.36q-6-3.32-18.23,5.85a6,6,0,0,1-.77,2.94l-.65-.36-.06,1.65-1.07,1.94a.65.65,0,0,1-1,.3.65.65,0,0,0,.29,1q-3.42,4.44-5.34,7.17t-2.63,4l-.07,1.65a6.09,6.09,0,0,0-2.06,2.24l3.24,14.27-1.42,2.59a1.3,1.3,0,0,1-2,.58q-2.38-1.3-6.5-12.69-14.7-28.42-20.45-47.86l.36-.65q26.39-.51,30.18-1.8a2,2,0,0,1,3-.88c.28.16,1.46,1.09,3.52,2.78,3.54-.3,5.73-.22,6.6.26l2.13-3.88q.59-1.08-2.46-4.72a94,94,0,0,1-9.41-4.33l-2.48-1.36a5.69,5.69,0,0,1-2.23-2.07q-1.79-.84-4.17-1.87c-1.59-.68-3.37-1.43-5.36-2.24l-3.64-2.84-4.68-1.17a6.42,6.42,0,0,1-3.35-5.91l3.2-5.82C992.06,1178.38,993,1178.07,994.6,1178.09Zm.47,50.5q-1.68,12,7.55,19.72l1,2.24,8.21-14.43a45.28,45.28,0,0,1,4.85-5.76,5.55,5.55,0,0,1,.78-2.94l-.65-.36q-11.27.84-17.78-1.35Q995.4,1228.77,995.07,1228.59Z"/><path class="cls-8" d="M1066.35,1218.79a36.1,36.1,0,0,1,6.72,2,39.4,39.4,0,0,0,5.19,6.42l.32-.66q1.92-3.85,5.36-12.44a4.81,4.81,0,0,1,3,.1q2.53,1.26-1.5,14.91c.73,0,1.57,0,2.51.08s2,.06,3.21,0a52.52,52.52,0,0,1,6.62,4.93l5.89,2.24-6.64,7.55q-3.59-2.46-3.36-2.9l-8.26-1.91a5.07,5.07,0,0,0-3.19-.48l-4.86,13.1q-3.54,13.21-15,39.37-5.2,5.79-8.84,5.36l-.44-.22q-6.83-3.39,4.28-25.75,1.74-3.53,8.59-14,10.51-21.15,2.69-25l-6-5Z"/><path class="cls-8" d="M1095,1233.23c1.56.52,2.87,1,3.91,1.31s2,.72,3,1.08l2.87,1.11,3.78,1.46q9.65,3.72,19.37,7.89a.66.66,0,0,0,1-.43l3.17,2a81.45,81.45,0,0,0,11.86,3.79q7.41,3.66,17.51,7.57l8.49,3.28q3.92,2.18,3.34,3.66l-2.4,6.2q-1.15,3-10.46-.22l-3.78,5.66-1.59,4.13q-2.18,5.63-1.35,9.63c-2.3,4.57-3.94,8.15-4.95,10.75l-3.45,16.07q-3.36,8.73-14.14,11-2.65-7.49.72-16.21l2.86-5.35q3.24-8.37-6.37-15.92l-.69-.26q-14.79-.32-17.49,6.69a16.17,16.17,0,0,1-9.81.82q-17.8-8.87-15.85-13.91c-.75-1.7-2.66-3.49-5.71-5.37a41.73,41.73,0,0,1,1-6.73l3.29-.31q3.43,1.32,11.1,9.83l3.59,3q.18-.45,7.37-5.06l7.63-19.74a15.31,15.31,0,0,0-1.06-5.28,12.62,12.62,0,0,0-2.37-3.76A13.64,13.64,0,0,0,1106,1249a27.89,27.89,0,0,0-3.79-1.8c-2.21-.67-4-1.2-5.46-1.58s-2.65-.7-3.65-1-1.87-.51-2.62-.75-1.57-.54-2.48-.9c-.62-.23-1-1.19-1.27-2.86Q1090.72,1231.59,1095,1233.23Zm54.4,32.24-13.87-4.9q-6.09-2.16-10.91-4l-1.37-.53-2.13,5.51q-3.67,13.6-3.9,14.18l-3,5.82q11.61-1.72,18.49,1,4.13,1.59,8.35,8.76l1.37.53,2.55-4.55.54-1.38q6.74-17.43,5.56-20.53Z"/><path class="cls-8" d="M1157.87,1247.1q3.81,4.64,2.65,8.79c-1.16,1.72-3.09,2.2-5.77,1.45l-1.78-.5a49.62,49.62,0,0,0-8.27-11.51,25.17,25.17,0,0,1,.49-5q1.13-4,23.34-5.35l17.73-7.69,2.37.67c.95.26,1.72,1.46,2.32,3.58l-1.16,4.15q-26.86,10.62-29.11,10A8.75,8.75,0,0,1,1157.87,1247.1Z"/></g></svg>